<?xml version="1.0" standalone="no"?>
<!DOCTYPE svg PUBLIC "-//W3C//DTD SVG 1.1//EN" "http://www.w3.org/Graphics/SVG/1.1/DTD/svg11.dtd" >
<svg>
<metadata>
Created by FontForge 20090914 at Mon Dec  9 13:43:51 2019
 By www-data
Copyright (c) 2008 by TypeTogether. All rights reserved.
</metadata>
<defs>
<font id="Athelas-Regular" horiz-adv-x="339" >
  <font-face 
    font-family="Athelas"
    font-weight="400"
    font-stretch="normal"
    units-per-em="1000"
    panose-1="2 0 5 3 0 0 0 2 0 3"
    ascent="800"
    descent="-200"
    x-height="422.001"
    cap-height="655.002"
    bbox="-503.001 -405.999 1651 1123"
    underline-thickness="50"
    underline-position="-100"
    unicode-range="U+0020-U+FE48"
  />
<missing-glyph horiz-adv-x="500" 
 />
    <glyph glyph-name="ff" unicode="ff" horiz-adv-x="572" 
d="M104 459c0 37.333 6.00391 69.666 18.0039 96.999s27.333 49.833 46 67.5s39.167 30.667 61.5 39s43.5 12.5 63.5 12.5c41.333 0 78.666 -10.333 111.999 -31c17.333 21.333 36.666 36 57.999 44s42.333 12 63 12c22 0 41.833 -2.16699 59.5 -6.5
s32.834 -10.166 45.501 -17.499s22.5 -15.5 29.5 -24.5s10.5 -18.167 10.5 -27.5c0 -4 -2.83301 -7.83301 -8.5 -11.5s-12 -6.83398 -19 -9.50098s-13.833 -4.66699 -20.5 -6s-11.334 -2 -14.001 -2c-9.33301 0 -16.333 4 -21 12c-7.33301 14.667 -16.166 27.667 -26.499 39
s-25.833 17 -46.5 17c-24 0 -41.833 -10.333 -53.5 -31s-17.5 -49.334 -17.5 -86.001v-124h118c0 -13.333 -1 -23.666 -3 -30.999s-7.66699 -11 -17 -11h-98v-306c0 -17.333 7.66699 -29.166 23 -35.499s40.333 -11.166 75 -14.499c7.33301 -1.33301 11 -5.66602 11 -12.999
c0 -2 -0.333008 -5 -1 -9s-1 -6.33301 -1 -7c-2 0 -7.83301 0.333008 -17.5 1s-21.167 1.33398 -34.5 2.00098s-27.666 1.16699 -42.999 1.5s-29.666 0.5 -42.999 0.5c-11.333 0 -22.833 -0.166992 -34.5 -0.5s-22.834 -0.833008 -33.501 -1.5
s-19.834 -1.33398 -27.501 -2.00098s-12.5 -1 -14.5 -1c0 0.666992 -0.333008 3 -1 7s-1 7 -1 9c0 6.66699 3 10.667 9 12c14.667 2.66699 26.667 6.5 36 11.5s14 12.833 14 23.5v322h-172v-323c0 -10.667 4.5 -17.834 13.5 -21.501s25.833 -7.83398 50.5 -12.501
c5.33301 -1.33301 8 -5.33301 8 -12c0 -1.33301 -0.166992 -3 -0.5 -5s-0.5 -3.66699 -0.5 -5c-0.666992 -2.66699 -1 -4.66699 -1 -6c-17.333 1.33301 -36.833 2.5 -58.5 3.5s-41.167 1.5 -58.5 1.5c-16.667 0 -34.5 -0.5 -53.5 -1.5s-35.167 -2.16699 -48.5 -3.5
c-0.666992 1.33301 -1 3.33301 -1 6c-0.666992 1.33301 -1 3 -1 5v5c0 7.33301 2.33301 11.333 7 12c17.333 2.66699 31.666 6.5 42.999 11.5s17 12.833 17 23.5v322h-60v18c0 7.33301 3.16699 11.833 9.5 13.5s13.166 3 20.499 4s14.166 3.33301 20.499 7
s9.5 11.5 9.5 23.5v13zM188.004 422h172.001v75c0 18 1.16699 33.833 3.5 47.5s6.16602 27.167 11.499 40.5c-10.667 15.333 -24 27.5 -40 36.5s-32.333 13.5 -49 13.5c-30.667 0 -54.667 -11.167 -72 -33.5s-26 -51.5 -26 -87.5v-92z" />
    <glyph glyph-name="fi" unicode="fi" horiz-adv-x="544" 
d="M104 481c0 37.333 5.33789 69.833 16.0049 97.5s24.667 50.5 42 68.5s37.166 31.333 59.499 40s45.5 13 69.5 13c22.667 0 42.834 -3 60.501 -9s32.667 -13.167 45 -21.5s21.833 -17.5 28.5 -27.5s10 -19 10 -27c0 -4 -2.5 -7.66699 -7.5 -11s-10.833 -6.33301 -17.5 -9
s-13.167 -4.83398 -19.5 -6.50098s-10.833 -2.5 -13.5 -2.5c-7.33301 -0.666992 -12.5 0.333008 -15.5 3s-5.83301 6.66699 -8.5 12c-10.667 22.667 -22.834 38.5 -36.501 47.5s-26.834 13.5 -39.501 13.5c-28 0 -49.833 -9.66699 -65.5 -29s-23.5 -52.333 -23.5 -99v-112
h165c20 0 36.667 1.33301 50 4s27.666 4 42.999 4c9.33301 0 14 -5 14 -15c0 -9.33301 -1 -20.5 -3 -33.5s-3 -30.167 -3 -51.5v-272c0 -10.667 5.16699 -18.334 15.5 -23.001s24.833 -8.66699 43.5 -12c5.33301 -1.33301 8 -5.33301 8 -12c0 -2 -0.166992 -5 -0.5 -9
s-0.833008 -6.33301 -1.5 -7c-2 0 -6.5 0.333008 -13.5 1s-15.5 1.33398 -25.5 2.00098s-20.833 1.16699 -32.5 1.5s-23.167 0.5 -34.5 0.5s-22.833 -0.166992 -34.5 -0.5s-22.5 -0.833008 -32.5 -1.5s-18.667 -1.33398 -26 -2.00098s-12 -1 -14 -1
c0 0.666992 -0.333008 3 -1 7s-1 7 -1 9c0 6.66699 3 10.667 9 12c17.333 3.33301 31.333 7.33301 42 12s16 12.334 16 23.001v272c0 13.333 -2.66699 25 -8 35s-17.666 15 -36.999 15h-138v-323c0 -10.667 4.33301 -18.167 13 -22.5s25.667 -8.16602 51 -11.499
c5.33301 -1.33301 8 -5.33301 8 -12c0 -1.33301 -0.166992 -3 -0.5 -5s-0.5 -3.66699 -0.5 -5c-0.666992 -2.66699 -1 -4.66699 -1 -6c-17.333 1.33301 -36.833 2.5 -58.5 3.5s-41.167 1.5 -58.5 1.5c-16.667 0 -34.5 -0.5 -53.5 -1.5s-35.167 -2.16699 -48.5 -3.5
c-0.666992 1.33301 -1 3.33301 -1 6c-0.666992 1.33301 -1 3 -1 5v5c0 7.33301 2.33301 11.333 7 12c17.333 2.66699 31.666 6.5 42.999 11.5s17 12.833 17 23.5v322h-60v18c0 7.33301 3.16699 11.833 9.5 13.5s13.166 3 20.499 4s14.166 3.33301 20.499 7
s9.5 11.5 9.5 23.5v35z" />
    <glyph glyph-name="fl" unicode="fl" horiz-adv-x="553" 
d="M525 -5c-17.333 1.33301 -34.9971 2.49902 -52.9971 3.49902s-36 1.5 -54 1.5s-36.5 -0.5 -55.5 -1.5s-36.833 -2.16699 -53.5 -3.5c-1.33301 6.66699 -2 12 -2 16c0 6.66699 3 10.667 9 12c14.667 2.66699 28.334 6.5 41.001 11.5s19 12.833 19 23.5v559
c-9.33301 12.667 -23.833 23.334 -43.5 32.001s-38.834 13 -57.501 13c-30 0 -52 -9.66699 -66 -29s-21 -52.333 -21 -99v-112h118c0 -12 -1 -22 -3 -30s-7.66699 -12 -17 -12h-98v-323c0 -5.33301 1.83301 -9.83301 5.5 -13.5s8.5 -6.83398 14.5 -9.50098s12.667 -5 20 -7
s14.333 -3.33301 21 -4c4 -1.33301 6 -5.33301 6 -12c0 -1.33301 -0.166992 -3 -0.5 -5s-0.5 -3.66699 -0.5 -5c-0.666992 -2.66699 -1 -4.66699 -1 -6l-40 2c-11.333 0.666992 -23.5 1.33398 -36.5 2.00098s-24.833 1 -35.5 1c-11.333 0 -22.833 -0.333008 -34.5 -1
s-22.5 -1.33398 -32.5 -2.00098l-35 -2c-0.666992 1.33301 -1 3.33301 -1 6c-0.666992 1.33301 -1 3 -1 5v5c0 6.66699 2.33301 10.667 7 12c16.667 3.33301 30.834 7.33301 42.501 12s17.5 12.334 17.5 23.001v322h-60v18c0 7.33301 3.16699 11.833 9.5 13.5
s13.166 3 20.499 4s14.166 3.16699 20.499 6.5s9.5 10.666 9.5 21.999v37c0 37.333 4.66699 69.833 14 97.5s22.333 50.5 39 68.5s36.167 31.333 58.5 40s46.5 13 72.5 13c21.333 0 42.666 -2 63.999 -6s38.333 -9.66699 51 -17c13.333 5.33301 23.333 10.5 30 15.5
s12.667 7.5 18 7.5c9.33301 0 14 -5 14 -15c0 -12.667 -1 -27.167 -3 -43.5s-3 -34.166 -3 -53.499v-530c0 -10.667 6.16699 -18.5 18.5 -23.5s26.166 -8.83301 41.499 -11.5c5.33301 -1.33301 8 -5.33301 8 -12c0 -4 -0.666992 -9.33301 -2 -16z" />
    <glyph glyph-name=".notdef" horiz-adv-x="500" 
 />
    <glyph glyph-name="space" unicode=" " horiz-adv-x="210" 
 />
    <glyph glyph-name="exclam" unicode="!" horiz-adv-x="239" 
d="M66 648c21.333 8.66699 42.001 13.001 62.001 13.001c20.667 0 34.5 -3.5 41.5 -10.5s10.5 -15.167 10.5 -24.5c0 -4 -0.333008 -8 -1 -12s-1.33398 -7.66699 -2.00098 -11c-9.33301 -60.667 -17 -128.834 -23 -204.501s-11.333 -152.167 -16 -229.5
c-5.33301 -1.33301 -9.33301 -2 -12 -2c-9.33301 0 -15.5 1.83301 -18.5 5.5s-4.83301 7.5 -5.5 11.5zM57.001 53.001c0 17.333 6.33301 32.5 19 45.5s28 19.5 46 19.5c17.333 0 32 -6.5 44 -19.5s18 -28.167 18 -45.5c0 -18.667 -6 -34.167 -18 -46.5
s-26.667 -18.5 -44 -18.5c-18 0 -33.333 6.16699 -46 18.5s-19 27.833 -19 46.5z" />
    <glyph glyph-name="quotedbl" unicode="&#x22;" horiz-adv-x="277" 
d="M30 631c14.667 12.667 30.668 19.001 48.001 19.001c11.333 0 21.166 -2.83301 29.499 -8.5s12.5 -13.167 12.5 -22.5c0 -4.66699 -0.666992 -8.33398 -2 -11.001c-4 -14.667 -7.5 -28.667 -10.5 -42s-5.66699 -26.833 -8 -40.5s-4.5 -28 -6.5 -43s-4 -30.833 -6 -47.5
c-2.66699 -1.33301 -6.33398 -2 -11.001 -2c-7.33301 0 -12.666 1.66699 -15.999 5s-5.33301 7 -6 11zM158.001 631.001c14.667 12.667 30.668 19.001 48.001 19.001c11.333 0 21.166 -2.83301 29.499 -8.5s12.5 -13.167 12.5 -22.5
c0 -4.66699 -0.666992 -8.33398 -2 -11.001c-4 -14.667 -7.5 -28.667 -10.5 -42s-5.66699 -26.833 -8 -40.5s-4.5 -28 -6.5 -43s-4 -30.833 -6 -47.5c-2.66699 -1.33301 -6.33398 -2 -11.001 -2c-7.33301 0 -12.666 1.66699 -15.999 5s-5.33301 7 -6 11z" />
    <glyph glyph-name="numbersign" unicode="#" horiz-adv-x="536" 
d="M83 295c-0.666992 4.66699 -1.16602 8.66797 -1.49902 12.001s-0.5 6.66602 -0.5 9.99902c0 10.667 1.5 17.667 4.5 21s7.16699 5 12.5 5h92l30 115c18.667 -1.33301 31.167 -3.83301 37.5 -7.5s9.5 -8.16699 9.5 -13.5v-7l-24 -87h111l31 115
c18.667 -1.33301 31.167 -3.83301 37.5 -7.5s9.5 -8.16699 9.5 -13.5c0 -2.66699 -0.333008 -5 -1 -7l-23 -87h79c1.33301 -4 2 -7.83301 2 -11.5v-10.5c0 -10 -1.5 -16.833 -4.5 -20.5s-7.16699 -5.5 -12.5 -5.5h-77l-36 -133h93
c0.666992 -4.66699 1.16699 -8.83398 1.5 -12.501s0.5 -7.16699 0.5 -10.5c0 -17.333 -5.66699 -26 -17 -26h-91l-34 -125c-18.667 1.33301 -31 3.83301 -37 7.5s-9 8.16699 -9 13.5c0 2.66699 0.333008 4.66699 1 6l26 98h-112l-33 -125
c-18.667 1.33301 -31.334 3.83301 -38.001 7.5s-10 8.16699 -10 13.5c0 1.33301 0.166992 2.33301 0.5 3s0.5 1.66699 0.5 3l27 98h-80c-1.33301 4.66699 -2 8.83398 -2 12.501v10.5c0 10 1.5 16.833 4.5 20.5s7.16699 5.5 12.5 5.5h78l35 133h-93zM194.001 162.001h112
l36 133h-112z" />
    <glyph glyph-name="dollar" unicode="$" horiz-adv-x="534" 
d="M282 -51c-4.66699 -1.33301 -8.66309 -1.99902 -11.9961 -1.99902h-9c-9.33301 0 -15.333 1.66699 -18 5s-4 7.33301 -4 12v46c-33.333 1.33301 -62.666 6.16602 -87.999 14.499s-47.666 18.166 -66.999 29.499c-1.33301 26.667 -3.83301 52 -7.5 76
s-8.16699 48 -13.5 72c4 2 9.33301 3 16 3c7.33301 0 12.833 -1.66699 16.5 -5s7.16699 -8.66602 10.5 -15.999c14.667 -40.667 31.667 -71.667 51 -93s46.666 -33.333 81.999 -36v234c-26 10 -48.833 20.5 -68.5 31.5s-36.334 23.333 -50.001 37s-23.834 29.667 -30.501 48
s-10 40.166 -10 65.499c0 20.667 3.66699 40.334 11 59.001s18 35.334 32 50.001s30.833 27 50.5 37s41.5 16.333 65.5 19v60c5.33301 0.666992 9.5 1.16699 12.5 1.5s6.16699 0.5 9.5 0.5c9.33301 0 15.166 -1.66699 17.499 -5s3.5 -7.33301 3.5 -12v-45
c24 -1.33301 48 -5 72 -11s50 -14.667 78 -26c1.33301 -18.667 3.16602 -38.5 5.49902 -59.5s5.16602 -40.833 8.49902 -59.5c-5.33301 -1.33301 -9.66602 -2 -12.999 -2c-8 0 -14 1.66699 -18 5s-6.66699 6.66602 -8 9.99902c-14 31.333 -30.667 55 -50 71
s-44.333 25.667 -75 29v-207l77.5 -42.5c23 -13 42.5 -26.833 58.5 -41.5s28.333 -31.5 37 -50.5s13 -41.833 13 -68.5c0 -44 -14.833 -82 -44.5 -114s-76.834 -51.333 -141.501 -58v-62zM379.004 157.001c0 14 -2.33008 26.332 -6.99707 36.999s-11.334 20.5 -20.001 29.5
s-18.834 17.333 -30.501 25s-24.834 15.167 -39.501 22.5v-216c32 4 56.167 15.833 72.5 35.5s24.5 41.834 24.5 66.501zM151.007 504c0 -22.667 7 -41.667 21 -57s36.333 -30 67 -44v190c-25.333 -2 -46.333 -11.5 -63 -28.5s-25 -37.167 -25 -60.5z" />
    <glyph glyph-name="percent" unicode="%" horiz-adv-x="781" 
d="M562 651c14.667 -5.33301 24.499 -10.5 29.499 -15.5s7.5 -9.83301 7.5 -14.5c0 -3.33301 -1 -6.33301 -3 -9l-408 -624c-14 6 -23.667 11.5 -29 16.5s-8 9.5 -8 13.5c0 1.33301 0.333008 2.83301 1 4.5s1.33398 3.16699 2.00098 4.5zM24.999 465
c0 57.333 13 102.5 39 135.5s60.667 49.5 104 49.5c44 0 79 -16.5 105 -49.5s39 -78.167 39 -135.5c0 -56.667 -13 -101.5 -39 -134.5s-61 -49.5 -105 -49.5c-43.333 0 -78 16.5 -104 49.5s-39 77.833 -39 134.5zM104.999 474c0 -49.333 5.33008 -88.999 15.9971 -118.999
s26.334 -45 47.001 -45c18.667 0 33.834 12.667 45.501 38s17.5 62.666 17.5 111.999c0 52 -5.16699 91.667 -15.5 119s-26.166 41 -47.499 41c-18 0 -33 -11.333 -45 -34s-18 -60 -18 -112zM439.996 172.001c0 56.667 13 101.5 39 134.5s60.667 49.5 104 49.5
s78 -16.5 104 -49.5s39 -77.833 39 -134.5s-13 -101.5 -39 -134.5s-60.667 -49.5 -104 -49.5s-78 16.5 -104 49.5s-39 77.833 -39 134.5zM519.996 180.001c0 -48.667 5.33008 -88 15.9971 -118s26.334 -45 47.001 -45c18.667 0 33.834 12.667 45.501 38
s17.5 62.333 17.5 111c0 52 -5.16699 91.833 -15.5 119.5s-26.166 41.5 -47.499 41.5c-18 0 -33 -11.5 -45 -34.5s-18 -60.5 -18 -112.5z" />
    <glyph glyph-name="ampersand" unicode="&#x26;" horiz-adv-x="702" 
d="M711 8c0 -1.33301 -0.169922 -3.83594 -0.50293 -7.50293s-1.16602 -7.16699 -2.49902 -10.5c-19.333 2 -45.333 3 -78 3c-9.33301 0 -19.333 0.833008 -30 2.5s-23.334 5.66699 -38.001 12s-32.167 16.333 -52.5 30s-44.5 32.5 -72.5 56.5
c-28.667 -32 -60.167 -57.667 -94.5 -77s-72.5 -29 -114.5 -29c-26 0 -50.167 3.16699 -72.5 9.5s-41.5 16 -57.5 29s-28.5 29.833 -37.5 50.5s-13.5 45 -13.5 73c0 38 11.667 72.667 35 104s56.333 60.333 99 87c-17.333 17.333 -31.333 33.333 -42 48
s-19.334 28.834 -26.001 42.501s-11.167 27 -13.5 40s-3.5 26.5 -3.5 40.5c0 36.667 13.5 66.167 40.5 88.5s61.833 33.5 104.5 33.5c20.667 0 39.667 -3.33301 57 -10s32.333 -15.834 45 -27.501s22.5 -25.667 29.5 -42s10.5 -34.166 10.5 -53.499
c0 -23.333 -7.16699 -46.666 -21.5 -69.999s-39.5 -47 -75.5 -71l98 -98.5l79 -76.5c12.667 17.333 24.334 35.333 35.001 54s19.834 36.167 27.501 52.5s13.667 31.333 18 45s6.5 24.167 6.5 31.5s-2.66699 12.833 -8 16.5s-16.666 7.16699 -33.999 10.5
c-8.66699 0.666992 -13 5 -13 13c0 1.33301 0.166992 4 0.5 8s1.16602 7 2.49902 9c12.667 -1.33301 26.667 -2.16602 42 -2.49902s31 -0.5 47 -0.5c30.667 0 57 1 79 3c0.666992 -2.66699 1.33398 -5.83398 2.00098 -9.50098s1 -6.16699 1 -7.5
c0 -7.33301 -4.33301 -12 -13 -14c-9.33301 -2 -17 -3.83301 -23 -5.5s-11.167 -4 -15.5 -7s-8.66602 -7.33301 -12.999 -13s-8.83301 -13.5 -13.5 -23.5c-14.667 -31.333 -30.334 -62.833 -47.001 -94.5s-35 -62.167 -55 -91.5c24.667 -23.333 46.334 -42.833 65.001 -58.5
s34.834 -28.5 48.501 -38.5s25.167 -17.667 34.5 -23s17.666 -9 24.999 -11c1.33301 -0.666992 4.66602 -1.16699 9.99902 -1.5s10.833 -1.16602 16.5 -2.49902s10.834 -3.33301 15.501 -6s7 -6 7 -10zM203.997 315.997c-23.333 -20 -41.3311 -43 -53.998 -69
s-19 -53 -19 -81c0 -24 4.16699 -43.833 12.5 -59.5s18.666 -28 30.999 -37s25.5 -15.333 39.5 -19s26.667 -5.5 38 -5.5c28 0 54.167 5.5 78.5 16.5s50.166 30.167 77.499 57.5c-26.667 23.333 -56.667 51 -90 83zM261.999 381.997c19.333 17.333 32.998 36 40.998 56
s12 38.667 12 56c0 32 -6.66699 56.667 -20 74s-33.666 26 -60.999 26c-17.333 0 -31.666 -5.5 -42.999 -16.5s-17 -26.167 -17 -45.5c0 -20 6 -41.5 18 -64.5s35.333 -51.5 70 -85.5z" />
    <glyph glyph-name="quotesingle" unicode="'" horiz-adv-x="150" 
d="M30 631c14.667 12.667 30.668 19.001 48.001 19.001c11.333 0 21.166 -2.83301 29.499 -8.5s12.5 -13.167 12.5 -22.5c0 -4.66699 -0.666992 -8.33398 -2 -11.001c-4 -14.667 -7.5 -28.667 -10.5 -42s-5.66699 -26.833 -8 -40.5s-4.5 -28 -6.5 -43s-4 -30.833 -6 -47.5
c-2.66699 -1.33301 -6.33398 -2 -11.001 -2c-7.33301 0 -12.666 1.66699 -15.999 5s-5.33301 7 -6 11z" />
    <glyph glyph-name="parenleft" unicode="(" horiz-adv-x="286" 
d="M257 -135c2.66699 -2.66699 3.99902 -6.33398 3.99902 -11.001c0 -2 -0.666992 -4.33301 -2 -7s-4.33301 -5.33398 -9 -8.00098c-28 20 -54 43 -78 69s-45 55.5 -63 88.5s-32 69.833 -42 110.5s-15 85.334 -15 134.001c0 51.333 5.16699 98 15.5 140s24.5 80 42.5 114
s39 64.833 63 92.5s49.667 52.5 77 74.5c4.66699 -3.33301 7.66699 -6.16602 9 -8.49902s2 -4.83301 2 -7.5s-1.33301 -6 -4 -10c-42 -48.667 -73 -102.5 -93 -161.5s-30 -123.833 -30 -194.5c0 -89.333 9.33301 -167.333 28 -234s50.334 -127 95.001 -181z" />
    <glyph glyph-name="parenright" unicode=")" horiz-adv-x="286" 
d="M30 636c-3.33301 3.33301 -5 6.66699 -5 10c0 5.33301 3.66699 10.666 11 15.999c28 -20 54 -43 78 -69s45 -55.5 63 -88.5s32 -69.833 42 -110.5s15 -85.334 15 -134.001c0 -51.333 -5.33301 -98 -16 -140s-25 -80.167 -43 -114.5s-39 -65.166 -63 -92.499
s-49.333 -52 -76 -74c-7.33301 4.66699 -11 9.66699 -11 15c0 2 0.5 4 1.5 6s2.16699 3.66699 3.5 5c82 94.667 123 213.334 123 356.001c0 89.333 -9.5 167.333 -28.5 234s-50.5 127 -94.5 181z" />
    <glyph glyph-name="asterisk" unicode="*" horiz-adv-x="380" 
d="M207 516c17.333 10.667 33.334 21.3301 48.001 31.9971s28.667 23 42 37l14 -3c7.33301 -9.33301 12.833 -18.166 16.5 -26.499s5.5 -15.166 5.5 -20.499c0 -3.33301 -0.333008 -5.66602 -1 -6.99902c-3.33301 -8 -14 -13.5 -32 -16.5s-46 -5.5 -84 -7.5
c-2.66699 0 -4.83398 0.333008 -6.50098 1s-2.5 3.66699 -2.5 9v2zM191.001 479.996c0.666992 -20.667 2.00098 -40 4.00098 -58s5.66699 -36.333 11 -55l-10 -11l-32 1c-18.667 0 -28 7.33301 -28 22c0 9.33301 3.33301 21.833 10 37.5s16.667 36.167 30 61.5
c1.33301 3.33301 3.66602 5 6.99902 5c2 0 4.66699 -1 8 -3zM190.002 524.996c-0.666992 20.667 -1.83496 40.168 -3.50195 58.501s-5.5 36.5 -11.5 54.5l10 11c2.66699 0 5.33398 0.166992 8.00098 0.5s5.33398 0.5 8.00098 0.5c12 0 21.667 -1 29 -3
c10.667 -2.66699 16 -9.33398 16 -20.001c0 -9.33301 -3.5 -22 -10.5 -38s-17.167 -36.667 -30.5 -62c-2 -3.33301 -4 -5 -6 -5s-5 1 -9 3zM69.001 584.997c11.333 20.667 21.667 31 31 31s19.833 -7.16699 31.5 -21.5s27.167 -36.5 46.5 -66.5l1 -3v-2
c0 -4 -2.33301 -7 -7 -9c-18 9.33301 -35.333 17.833 -52 25.5s-34.667 13.5 -54 17.5c-2.66699 4 -4 8.66699 -4 14l3.5 7zM172.002 491.997c-17.333 -10.667 -33.3311 -21.333 -47.998 -32s-28.667 -23 -42 -37l-14 3l-9 13c-8.66699 15.333 -13 26.333 -13 33
c0 13.333 13.333 22 40 26c9.33301 1.33301 20.166 2.33301 32.499 3s27.166 1.66699 44.499 3c2 0 4 -0.5 6 -1.5s3 -4.5 3 -10.5zM316.004 435.998c-5.33301 -14 -11.5 -25 -18.5 -33s-13.5 -12 -19.5 -12s-13.667 4.66699 -23 14c-2 2 -6 6.33301 -12 13
s-12.333 14.167 -19 22.5s-12.5 16.5 -17.5 24.5s-7.5 14.333 -7.5 19c0 3.33301 2.66699 6.33301 8 9l42 -20.5c13.333 -6.33301 27 -11.833 41 -16.5l22 -6z" />
    <glyph glyph-name="plus" unicode="+" horiz-adv-x="494" 
d="M38 188c-0.666992 4.66699 -1.16699 8.83398 -1.5 12.501s-0.5 7.16699 -0.5 10.5c0 19.333 5.66699 29 17 29h163v178c8.66699 2 16.334 3 23.001 3c19.333 0 29 -6 29 -18v-163h187c0.666992 -4.66699 1.16699 -8.83398 1.5 -12.501s0.5 -7.16699 0.5 -10.5
c0 -19.333 -5.66699 -29 -17 -29h-172v-187c-4.66699 -0.666992 -8.83398 -1 -12.501 -1h-10.5c-19.333 -0 -29 5.33301 -29 16v172h-178z" />
    <glyph glyph-name="comma" unicode="," horiz-adv-x="219" 
d="M62 -143c-10 7.33301 -15.001 15.334 -15.001 24.001c0 5.33301 2 10 6 14c18.667 18.667 31.834 35 39.501 49s11.5 26.667 11.5 38c0 15.333 -5.16699 27.166 -15.5 35.499s-21.166 15.166 -32.499 20.499s-17 14 -17 26c0 9.33301 3.83301 19.833 11.5 31.5
s20.167 22.167 37.5 31.5c10.667 -4 21.167 -9.5 31.5 -16.5s19.666 -15.333 27.999 -25s15 -20.667 20 -33s7.5 -25.5 7.5 -39.5c0 -23.333 -8.33301 -48.166 -25 -74.499s-46 -53.5 -88 -81.5z" />
    <glyph glyph-name="hyphen" unicode="-" horiz-adv-x="314" 
d="M270 271c0.666992 -4 1 -7.83496 1 -11.502v-10.5c0 -11.333 -1.33301 -20.666 -4 -27.999s-7.33398 -11 -14.001 -11h-209c-1.33301 4.66699 -2.16602 10.334 -2.49902 17.001s-0.5 11.667 -0.5 15c0 19.333 6 29 18 29h211z" />
    <glyph glyph-name="period" unicode="." horiz-adv-x="215" 
d="M44 53c0 17.333 6.16699 32.5 18.5 45.5s27.833 19.5 46.5 19.5c17.333 0 32 -6.5 44 -19.5s18 -28.167 18 -45.5c0 -19.333 -6 -35.166 -18 -47.499s-26.667 -18.5 -44 -18.5c-18.667 0 -34.167 6.16699 -46.5 18.5s-18.5 28.166 -18.5 47.499z" />
    <glyph glyph-name="slash" unicode="/" horiz-adv-x="297" 
d="M75 -45c-19.333 1.33301 -32.167 3.99805 -38.5 7.99805s-9.5 8.66699 -9.5 14c0 2 0.333008 3.66699 1 5l186 693c19.333 -1.33301 32 -4.16602 38 -8.49902s9 -9.16602 9 -14.499v-5z" />
    <glyph glyph-name="zero" unicode="0" horiz-adv-x="534" 
d="M267 -12c-35.333 0 -67.333 5.83301 -96 17.5s-53 28.167 -73 49.5s-35.5 46.833 -46.5 76.5s-16.5 62.5 -16.5 98.5c0 34 5.83301 66 17.5 96s27.834 56 48.501 78s45.167 39.5 73.5 52.5s59.166 19.5 92.499 19.5s64.166 -6.16699 92.499 -18.5
s52.833 -29.333 73.5 -51s36.834 -47.5 48.501 -77.5s17.5 -63 17.5 -99c0 -34 -5.5 -65.667 -16.5 -95s-26.5 -55 -46.5 -77s-44.333 -39.167 -73 -51.5s-60.667 -18.5 -96 -18.5zM134 230c0 -33.333 3.50098 -62.166 10.501 -86.499s16.667 -44.833 29 -61.5
s26.666 -29 42.999 -37s33.833 -12 52.5 -12c17.333 0 33.833 4 49.5 12s29.5 20 41.5 36s21.5 36.333 28.5 61s10.5 54 10.5 88s-3.5 63.667 -10.5 89s-16.5 46.166 -28.5 62.499s-26 28.666 -42 36.999s-33 12.5 -51 12.5s-35 -4 -51 -12s-30.167 -20.167 -42.5 -36.5
s-22 -37.166 -29 -62.499s-10.5 -55.333 -10.5 -90z" />
    <glyph glyph-name="one" unicode="1" horiz-adv-x="323" 
d="M51 467c2 0 6.50195 -0.333984 13.502 -1.00098s15.667 -1.33398 26 -2.00098s21.5 -1.16699 33.5 -1.5s24 -0.5 36 -0.5s24 0.166992 36 0.5s23.167 0.833008 33.5 1.5s19.166 1.33398 26.499 2.00098s12 1 14 1c0.666992 -1.33301 1.16699 -3.66602 1.5 -6.99902
s0.5 -6 0.5 -8c0 -8 -3.33301 -12.667 -10 -14c-16.667 -2.66699 -30.334 -6.83398 -41.001 -12.501s-16 -14.834 -16 -27.501v-332c0 -12.667 6.33301 -22.167 19 -28.5s27.667 -10.833 45 -13.5c6.66699 -1.33301 10 -6 10 -14c0 -2 -0.333008 -4.83301 -1 -8.5
s-1 -5.83398 -1 -6.50098c-2 0 -7 0.333008 -15 1s-17.5 1.33398 -28.5 2.00098s-23 1.16699 -36 1.5s-25.5 0.5 -37.5 0.5s-24.167 -0.166992 -36.5 -0.5s-23.833 -0.833008 -34.5 -1.5s-20 -1.33398 -28 -2.00098s-13 -1 -15 -1c0 0.666992 -0.333008 2.83398 -1 6.50098
s-1 6.5 -1 8.5c0 8 3.33301 12.667 10 14c17.333 3.33301 32 7.83301 44 13.5s18 14.834 18 27.501v333c0 12.667 -5.5 21.834 -16.5 27.501s-24.5 9.83398 -40.5 12.501c-6.66699 1.33301 -10 6 -10 14c0 2 0.166992 4.66699 0.5 8s0.833008 5.66602 1.5 6.99902z" />
    <glyph glyph-name="two" unicode="2" horiz-adv-x="436" 
d="M73 359c-1.33301 -1.33301 -3.16504 -2.83594 -5.49805 -4.50293s-4.83301 -2.5 -7.5 -2.5c-8 0 -15 4.33301 -21 13c26 33.333 54.833 60.166 86.5 80.499s66.167 30.5 103.5 30.5c46 0 80.5 -11.833 103.5 -35.5s34.5 -54.5 34.5 -92.5c0 -20 -3.83301 -40 -11.5 -60
s-20.5 -41 -38.5 -63s-42 -46 -72 -72s-67.333 -55.333 -112 -88h169c13.333 0 24.5 2.83301 33.5 8.5s17.167 17.167 24.5 34.5c3.33301 7.33301 8.66602 11 15.999 11c2 0 5.66699 -0.666992 11 -2c2 -0.666992 4 -1 6 -1c-6 -17.333 -11.5 -35.333 -16.5 -54
s-9.5 -36.667 -13.5 -54c-1.33301 -5.33301 -3 -8.66602 -5 -9.99902s-5.33301 -2 -10 -2c-12 0 -27 0.666992 -45 2s-37.667 2 -59 2h-205v24c41.333 34.667 76.5 65.834 105.5 93.501s52.5 53.334 70.5 77.001s31.167 45.834 39.5 66.501s12.5 41 12.5 61
c0 24 -5.83301 44.833 -17.5 62.5s-31.834 26.5 -60.501 26.5c-19.333 0 -38 -4 -56 -12s-38 -21.333 -60 -40z" />
    <glyph glyph-name="three" unicode="3" horiz-adv-x="413" 
d="M77 178c36 18 65.333 33.668 88 47.001s40.5 26.166 53.5 38.499s22 24.666 27 36.999s7.5 26.166 7.5 41.499c0 20 -5.5 37.167 -16.5 51.5s-30.833 21.5 -59.5 21.5c-20 0 -38.667 -3.83301 -56 -11.5s-36.333 -19.167 -57 -34.5
c-1.33301 -1.33301 -3.16602 -2.83301 -5.49902 -4.5s-4.83301 -2.5 -7.5 -2.5c-8.66699 0 -16 4.33301 -22 13c31.333 34 61.666 59.333 90.999 76s61.333 25 96 25c39.333 0 70.666 -8.66699 93.999 -26s35 -44 35 -80c0 -17.333 -2.66699 -32.666 -8 -45.999
s-13 -25.5 -23 -36.5s-21.667 -21.333 -35 -31s-28 -19.5 -44 -29.5v-2c44 -10 77.333 -27.667 100 -53s34 -55.333 34 -90c0 -27.333 -7.5 -54.833 -22.5 -82.5s-37.167 -53.5 -66.5 -77.5s-65.5 -45.333 -108.5 -64s-92.5 -32.667 -148.5 -42
c-5.33301 6.66699 -8 13.334 -8 20.001c0 6 3 10 9 12c48 16 87.333 32.5 118 49.5s54.834 34.333 72.501 52s29.834 36 36.501 55s10 38.5 10 58.5c0 32 -8.5 57.167 -25.5 75.5s-40.833 27.5 -71.5 27.5c-12.667 0 -26.334 -1.5 -41.001 -4.5s-30 -8.16699 -46 -15.5v32z
" />
    <glyph glyph-name="four" unicode="4" horiz-adv-x="481" 
d="M456 65v-65h-83v-170h-90v170h-276c-1.33301 6.66699 -2 12 -2 16s2.66699 9.33301 8 16l327 432c3.33301 4.66699 8 7 14 7h19v-406h83zM283 323l-196 -258h196v258z" />
    <glyph glyph-name="five" unicode="5" horiz-adv-x="412" 
d="M350 425c-0.666992 -10 -2.66406 -18.5 -5.99707 -25.5s-10.333 -10.5 -21 -10.5h-200l-17 -153c16.667 5.33301 33 9.33301 49 12s32.667 4 50 4c49.333 0 88.666 -13.833 117.999 -41.5s44 -64.5 44 -110.5c0 -61.333 -28.333 -116.5 -85 -165.5
s-140.334 -88.5 -251.001 -118.5c-6 7.33301 -9 14 -9 20s3 10 9 12c47.333 19.333 86.166 39.5 116.499 60.5s54 42 71 63s28.667 41.5 35 61.5s9.5 38.667 9.5 56c0 31.333 -9.16699 57 -27.5 77s-47.5 30 -87.5 30c-26 0 -57 -5 -93 -15l24 281h272z" />
    <glyph glyph-name="six" unicode="6" horiz-adv-x="480" 
d="M153 278c-4 -8.66699 -7.16602 -21.333 -9.49902 -38s-3.5 -31.667 -3.5 -45c0 -54 9.33301 -96 28 -126s43 -45 73 -45s55.167 12.833 75.5 38.5s30.5 65.5 30.5 119.5c0 24.667 -2.83301 46.167 -8.5 64.5s-13 33.5 -22 45.5s-19.5 21 -31.5 27s-24.333 9 -37 9
c-16.667 0 -34.334 -3.5 -53.001 -10.5s-32.667 -20.167 -42 -39.5zM154.001 330.001c21.333 18.667 43.1631 31.5 65.4961 38.5s43.833 10.5 64.5 10.5c19.333 0 38.333 -3.33301 57 -10s35.167 -17.5 49.5 -32.5s26 -34.167 35 -57.5s13.5 -51.333 13.5 -84
c0 -24 -4.66699 -48.333 -14 -73s-22.5 -47 -39.5 -67s-37.833 -36.333 -62.5 -49s-52 -19 -82 -19c-38.667 0 -70.667 6.83301 -96 20.5s-45.666 31.5 -60.999 53.5s-26.166 46.667 -32.499 74s-9.5 54.666 -9.5 81.999c0 38.667 6.83301 77.5 20.5 116.5s34.5 77 62.5 114
s63.333 72.167 106 105.5s93.334 64 152.001 92c2.66699 -3.33301 4.83398 -6.83301 6.50098 -10.5s2.5 -7.16699 2.5 -10.5c0 -5.33301 -3 -10 -9 -14c-34 -22.667 -63.5 -44.5 -88.5 -65.5s-46.667 -42.5 -65 -64.5s-33.5 -45.167 -45.5 -69.5s-22 -51.166 -30 -80.499z
" />
    <glyph glyph-name="seven" unicode="7" horiz-adv-x="401" 
d="M103 389c-13.333 0 -24.335 -3.66895 -33.002 -11.002s-16.667 -19.666 -24 -36.999c-3.33301 -7.33301 -9.66602 -11 -18.999 -11c-5.33301 0 -11 1 -17 3l11 37c3.33301 10.667 6.16602 20.667 8.49902 30l6.5 27c2 8.66699 3.66699 17.667 5 27
c1.33301 5.33301 3 8.66602 5 9.99902s5.33301 2 10 2c13.333 0 28.833 -0.666992 46.5 -2s37.167 -2 58.5 -2h230v-24c-40 -76 -71.833 -142.167 -95.5 -198.5s-42 -106.833 -55 -151.5s-22 -85.667 -27 -123s-8.83301 -74.333 -11.5 -111
c-0.666992 -6 -3.16699 -11.333 -7.5 -16s-9.66602 -8.5 -15.999 -11.5s-13.5 -5.16699 -21.5 -6.5s-16 -2 -24 -2c-9.33301 0 -16.5 0.666992 -21.5 2s-7.5 5.66602 -7.5 12.999c0 3.33301 0.166992 7.33301 0.5 12s0.833008 9.33398 1.5 14.001
c4.66699 32.667 11.834 66.334 21.501 101.001s23 72.834 40 114.501s38.5 88 64.5 139s58 109.5 96 175.5h-225z" />
    <glyph glyph-name="eight" unicode="8" horiz-adv-x="479" 
d="M279 367c16.667 17.333 30.5 35.666 41.5 54.999s16.5 41.333 16.5 66c0 32.667 -9.66699 58.5 -29 77.5s-42.333 28.5 -69 28.5c-25.333 0 -47 -7.83301 -65 -23.5s-27 -37.167 -27 -64.5c0 -17.333 5.33301 -33.666 16 -48.999s31 -33 61 -53zM308 349
c42.667 -30 75.4951 -58.335 98.4951 -85.002s34.5 -57.667 34.5 -93c0 -30 -6.16699 -56.333 -18.5 -79s-28.333 -41.667 -48 -57s-41.834 -27 -66.501 -35s-49 -12 -73 -12c-27.333 0 -52.666 3.16699 -75.999 9.5s-43.666 16 -60.999 29s-30.833 29.333 -40.5 49
s-14.5 42.5 -14.5 68.5c0 38.667 11.833 71.5 35.5 98.5s56.834 53.167 99.501 78.5c-22.667 14 -41.5 27.667 -56.5 41s-26.833 26.333 -35.5 39s-14.667 25.334 -18 38.001s-5 26 -5 40c0 18 3.33301 36.333 10 55s17.167 35.334 31.5 50.001s32.5 26.667 54.5 36
s48.667 14 80 14c28.667 0 53.834 -3.5 75.501 -10.5s39.834 -16.5 54.501 -28.5s25.834 -26.167 33.501 -42.5s11.5 -33.833 11.5 -52.5c0 -33.333 -10.667 -62.5 -32 -87.5s-46 -46.167 -74 -63.5zM206.995 301.998c-24.667 -20 -43.667 -41.502 -57 -64.502
s-20 -48.833 -20 -77.5c0 -45.333 10.833 -78.833 32.5 -100.5s48.167 -32.5 79.5 -32.5c14 0 27.333 2.83301 40 8.5s24 13.5 34 23.5s18 21.833 24 35.5s9 28.834 9 45.501c0 10 -0.833008 19.667 -2.5 29s-5.16699 18.5 -10.5 27.5s-12.833 18.333 -22.5 28
s-22.5 19.834 -38.5 30.501z" />
    <glyph glyph-name="nine" unicode="9" horiz-adv-x="480" 
d="M326 183c4.66699 8.66699 8 21.333 10 38s3 31.667 3 45c0 53.333 -9.33301 95 -28 125s-42.667 45 -72 45s-54.5 -12.667 -75.5 -38s-31.5 -65.333 -31.5 -120c0 -24.667 2.83301 -46 8.5 -64s13 -33 22 -45s19.5 -21 31.5 -27s24.333 -9 37 -9
c16.667 0 34.5 3.5 53.5 10.5s32.833 20.167 41.5 39.5zM325 130.999c-21.333 -19.333 -42.9961 -32.334 -64.9961 -39.001s-43.333 -10 -64 -10c-19.333 0 -38.333 3.33301 -57 10s-35.334 17.5 -50.001 32.5s-26.334 34 -35.001 57s-13 51.167 -13 84.5
c0 23.333 4.66699 47.333 14 72s22.5 47 39.5 67s37.833 36.5 62.5 49.5s52 19.5 82 19.5c38 0 69.833 -6.83301 95.5 -20.5s46.167 -31.5 61.5 -53.5s26.166 -46.667 32.499 -74s9.5 -54.666 9.5 -81.999c0 -38.667 -5.16699 -78.5 -15.5 -119.5s-27.5 -80.5 -51.5 -118.5
s-56 -73.5 -96 -106.5s-89.333 -61.167 -148 -84.5c-6.66699 8.66699 -10 16.334 -10 23.001c0 4.66699 3 9 9 13c36.667 23.333 66.667 45.5 90 66.5s42.166 42.333 56.499 64s25.333 44.667 33 69s14.167 51.166 19.5 80.499z" />
    <glyph glyph-name="colon" unicode=":" horiz-adv-x="215" 
d="M44 53c0 17.333 6.16699 32.5 18.5 45.5s27.833 19.5 46.5 19.5c17.333 0 32 -6.5 44 -19.5s18 -28.167 18 -45.5c0 -19.333 -6 -35.166 -18 -47.499s-26.667 -18.5 -44 -18.5c-18.667 0 -34.167 6.16699 -46.5 18.5s-18.5 28.166 -18.5 47.499zM44 332
c0 17.333 6.16699 32.5 18.5 45.5s27.833 19.5 46.5 19.5c17.333 0 32 -6.5 44 -19.5s18 -28.167 18 -45.5c0 -19.333 -6 -35.166 -18 -47.499s-26.667 -18.5 -44 -18.5c-18.667 0 -34.167 6.16699 -46.5 18.5s-18.5 28.166 -18.5 47.499z" />
    <glyph glyph-name="semicolon" unicode=";" horiz-adv-x="229" 
d="M74 -143c-10 7.33301 -15.001 15.334 -15.001 24.001c0 5.33301 2 10 6 14c18.667 18.667 31.834 35 39.501 49s11.5 26.667 11.5 38c0 15.333 -5.16699 27.166 -15.5 35.499s-21.166 15.166 -32.499 20.499s-17 14 -17 26c0 9.33301 3.83301 19.833 11.5 31.5
s20.167 22.167 37.5 31.5c10.667 -4 21.167 -9.5 31.5 -16.5s19.666 -15.333 27.999 -25s15 -20.667 20 -33s7.5 -25.5 7.5 -39.5c0 -23.333 -8.33301 -48.166 -25 -74.499s-46 -53.5 -88 -81.5zM43.999 332.001c0 17.333 6.16699 32.5 18.5 45.5s27.833 19.5 46.5 19.5
c17.333 0 32 -6.5 44 -19.5s18 -28.167 18 -45.5c0 -19.333 -6 -35.166 -18 -47.499s-26.667 -18.5 -44 -18.5c-18.667 0 -34.167 6.16699 -46.5 18.5s-18.5 28.166 -18.5 47.499z" />
    <glyph glyph-name="less" unicode="&#x3c;" horiz-adv-x="494" 
d="M416 423c12.667 -18 19.001 -31.334 19.001 -40.001c0 -6 -2.66699 -10.667 -8 -14l-303 -163l317 -175c-9.33301 -28 -19 -42 -29 -42c-2.66699 0 -5.33398 1 -8.00098 3l-349 196c-2 8.66699 -3 15.334 -3 20.001c0 6.66699 2 10.667 6 12z" />
    <glyph glyph-name="equal" unicode="=" horiz-adv-x="494" 
d="M38 292c-0.666992 4.66699 -1 8.83301 -1 12.5v10.5c0 19.333 5.33301 29 16 29h402c0.666992 -4 1.16699 -7.83301 1.5 -11.5s0.5 -7.16699 0.5 -10.5c0 -20 -5.66699 -30 -17 -30h-402zM38 106.999c-0.666992 4.66699 -1 8.83105 -1 12.498v10.5
c0 19.333 5.33301 29 16 29h402c0.666992 -4.66699 1.16699 -8.66699 1.5 -12s0.5 -6.66602 0.5 -9.99902c0 -11.333 -1.5 -19.166 -4.5 -23.499s-7.16699 -6.5 -12.5 -6.5h-402z" />
    <glyph glyph-name="greater" unicode="&#x3e;" horiz-adv-x="494" 
d="M436 220c3.33301 -2 5.00098 -5.99902 5.00098 -11.999c0 -5.33301 -1.33301 -12 -4 -20l-349 -196c-2 -2 -4.33301 -3 -7 -3c-10.667 0 -20.334 14 -29.001 42l316 174l-302 164c-5.33301 3.33301 -8 8 -8 14c0 9.33301 6 22.666 18 39.999z" />
    <glyph glyph-name="question" unicode="?" horiz-adv-x="379" 
d="M336 509c0 -17.333 -3.83301 -33.001 -11.5 -47.001s-17.167 -27 -28.5 -39s-23.833 -23.167 -37.5 -33.5s-26.167 -20.666 -37.5 -30.999s-20.833 -21.166 -28.5 -32.499s-11.5 -23.666 -11.5 -36.999c0 -9.33301 2.5 -23.5 7.5 -42.5s11.167 -37.5 18.5 -55.5
c1.33301 -4 2 -6.66699 2 -8c0 -4 -1.66699 -8 -5 -12s-9.66602 -7.33301 -18.999 -10c-28 32.667 -47.833 61.5 -59.5 86.5s-17.5 46.833 -17.5 65.5c0 25.333 8 47.166 24 65.499s33.833 35.5 53.5 51.5s37.5 32 53.5 48s24 34.667 24 56c0 14 -2 25.833 -6 35.5
s-9.33301 17.5 -16 23.5s-14.5 10.5 -23.5 13.5s-18.167 4.5 -27.5 4.5c-8 0 -18.5 -3.5 -31.5 -10.5s-24.167 -21.167 -33.5 -42.5c-2 -4 -4.66699 -7.16699 -8 -9.5s-8 -3.5 -14 -3.5c-2.66699 0 -7.16699 0.5 -13.5 1.5s-13 2.5 -20 4.5s-13.167 4.33301 -18.5 7
s-8 5.66699 -8 9c0 13.333 3.66699 25.666 11 36.999s17.166 21.166 29.499 29.499s26.333 14.833 42 19.5s32.167 7 49.5 7c26.667 0 50 -4.66699 70 -14s36.667 -21.166 50 -35.499s23.5 -30.5 30.5 -48.5s10.5 -35.667 10.5 -53zM125 52.999
c0 17.333 6.16699 32.166 18.5 44.499s27.5 18.5 45.5 18.5c17.333 0 31.833 -6.16699 43.5 -18.5s17.5 -27.166 17.5 -44.499c0 -19.333 -5.83301 -35 -17.5 -47s-26.167 -18 -43.5 -18c-18 0 -33.167 6 -45.5 18s-18.5 27.667 -18.5 47z" />
    <glyph glyph-name="at" unicode="@" horiz-adv-x="814" 
d="M536 0c-25.333 0 -42.9941 4.83691 -52.9941 14.5039s-15 25.167 -15 46.5c0 13.333 1.5 28.666 4.5 45.999s7.16699 37.333 12.5 60h-4c-28 -66 -58 -112.333 -90 -139s-64.333 -40 -97 -40c-8.66699 0 -17.167 1.5 -25.5 4.5s-15.833 8 -22.5 15s-12 16.667 -16 29
s-6 28.166 -6 47.499c0 56.667 8.16699 107.167 24.5 151.5s37.166 81.833 62.499 112.5s53.166 54 83.499 70s59.5 24 87.5 24c24.667 0 45.834 -1 63.501 -3s37.834 -5.33301 60.501 -10l-69 -351c-0.666992 -2 -1 -4.16699 -1 -6.5v-6.5c0 -8 2 -14.667 6 -20
s10.333 -8 19 -8c19.333 0 38.666 7.83301 57.999 23.5s36.666 36.667 51.999 63s27.833 57.166 37.5 92.499s14.5 73 14.5 113c0 39.333 -7.5 74.833 -22.5 106.5s-35.333 58.667 -61 81s-55.334 39.5 -89.001 51.5s-69.167 18 -106.5 18
c-49.333 0 -95.166 -10 -137.499 -30s-79.333 -47.833 -111 -83.5s-56.5 -78.167 -74.5 -127.5s-27 -103.666 -27 -162.999c0 -46.667 8.83301 -90.5 26.5 -131.5s41.667 -76.833 72 -107.5s65.666 -54.834 105.999 -72.501s83.5 -26.5 129.5 -26.5
c42 0 80.833 3.83301 116.5 11.5s69.834 19.834 102.501 36.501c4 2 8.66699 3 14 3c3.33301 0 7.16602 -1 11.499 -3s8.83301 -5.66699 13.5 -11c-32.667 -24 -72 -42.5 -118 -55.5s-93.667 -19.5 -143 -19.5c-56.667 0 -108.5 9.66699 -155.5 29
s-87.167 46.166 -120.5 80.499s-59.333 75.166 -78 122.499s-28 99 -28 155c0 60 10.667 116 32 168s50.666 97.167 87.999 135.5s81.166 68.5 131.499 90.5s104.5 33 162.5 33c46.667 0 89.167 -7.16699 127.5 -21.5s71.333 -34.666 99 -60.999s49.167 -57.833 64.5 -94.5
s23 -77.334 23 -122.001c0 -32.667 -4.33301 -67.667 -13 -105s-22.334 -72 -41.001 -104s-43 -58.667 -73 -80s-66 -32 -108 -32zM523.006 391.004c-18 6 -36.333 8.99609 -55 8.99609c-26.667 0 -50.167 -6.83301 -70.5 -20.5s-37.166 -32.667 -50.499 -57
s-23.5 -53.666 -30.5 -87.999s-10.5 -72.166 -10.5 -113.499c0 -24.667 3.83301 -42 11.5 -52s16.5 -15 26.5 -15c12 0 24.667 6 38 18s26.666 27.833 39.999 47.5s26 41.834 38 66.501s22.667 49.5 32 74.5s16.833 48.833 22.5 71.5s8.5 42.334 8.5 59.001z" />
    <glyph glyph-name="A" unicode="A" horiz-adv-x="687" 
d="M429 238h-223.001l-64 -161c-3.33301 -8 -5 -14.667 -5 -20c0 -14 20.333 -24 61 -30c4.66699 -0.666992 7.83398 -2.5 9.50098 -5.5s2.5 -6.5 2.5 -10.5s-0.666992 -9.33301 -2 -16c-18 1.33301 -37 2.5 -57 3.5s-39.667 1.5 -59 1.5c-13.333 0 -27 -0.333008 -41 -1
s-28.667 -2 -44 -4c-1.33301 5.33301 -2 10.666 -2 15.999c0 4.66699 0.833008 8.66699 2.5 12s5.16699 5.33301 10.5 6c20.667 3.33301 36.167 7.5 46.5 12.5s17.833 12.833 22.5 23.5l241 580c4.66699 11.333 11 17 19 17c2.66699 0 6.66699 -0.666992 12 -2l242 -598
c4 -9.33301 13 -16.666 27 -21.999s27.667 -9 41 -11c4 -1.33301 7.16699 -3.16602 9.5 -5.49902s3.5 -6.5 3.5 -12.5c0 -4 -0.666992 -9.33301 -2 -16c-21.333 1.33301 -42.333 2.5 -63 3.5s-40 1.5 -58 1.5c-18.667 0 -40 -0.5 -64 -1.5s-45.667 -2.16699 -65 -3.5
c-1.33301 6.66699 -2 12 -2 16c0 6 1.16699 10.167 3.5 12.5s4.5 3.5 6.5 3.5c17.333 3.33301 31.333 7.16602 42 11.499s16 10.833 16 19.5c0 4 -1.33301 9 -4 15zM412.999 279l-93 245l-97 -245h190z" />
    <glyph glyph-name="B" unicode="B" horiz-adv-x="598" 
d="M235 360c58.667 0 100.834 10.3311 126.501 30.998s38.5 53.334 38.5 98.001c0 40.667 -12.833 70.834 -38.5 90.501s-67.834 29.5 -126.501 29.5h-15v-249h15zM220 76.998c0 -7.33301 2.33203 -13.332 6.99902 -17.999s10.5 -8.33398 17.5 -11.001s14.5 -4.5 22.5 -5.5
s15.667 -1.5 23 -1.5c25.333 0 48.333 2 69 6s38.334 11 53.001 21s26 23.5 34 40.5s12 38.5 12 64.5c0 48 -16.5 84.333 -49.5 109s-78.167 37 -135.5 37h-53v-242zM381.999 346.999c21.333 -2.66699 42.667 -7.49707 64 -14.4971s40.666 -16.833 57.999 -29.5
s31.333 -28.5 42 -47.5s16 -41.5 16 -67.5c0 -29.333 -5.5 -55.666 -16.5 -78.999s-26.667 -43 -47 -59s-44.833 -28.333 -73.5 -37s-60.334 -13 -95.001 -13h-158c-11.333 0 -24.166 -0.333008 -38.499 -1s-27.833 -1.33398 -40.5 -2.00098l-45 -2
c-0.666992 1.33301 -1 3.33301 -1 6c-0.666992 1.33301 -1 3 -1 5v5c0 9.33301 3.66699 14.666 11 15.999c26 5.33301 44 10.5 54 15.5s15 14.167 15 27.5v509c0 6.66699 -1.16699 12.167 -3.5 16.5s-6.16602 8 -11.499 11s-12.333 5.66699 -21 8s-19.667 4.83301 -33 7.5
c-7.33301 1.33301 -11 7.66602 -11 18.999c0 3.33301 0.333008 6 1 8c0 2 0.333008 4 1 6c20 -1.33301 41.5 -2.5 64.5 -3.5s42.5 -1.5 58.5 -1.5h123c37.333 0 69.166 -4.16699 95.499 -12.5s47.833 -19.833 64.5 -34.5s28.834 -31.5 36.501 -50.5s11.5 -38.833 11.5 -59.5
c0 -15.333 -3 -30.333 -9 -45s-14.167 -28.334 -24.5 -41.001s-22.833 -24 -37.5 -34s-31 -17.667 -49 -23v-3z" />
    <glyph glyph-name="C" unicode="C" horiz-adv-x="669" 
d="M379 -12c-56 0 -105.004 8.66797 -147.004 26.001s-76.833 41.166 -104.5 71.499s-48.334 66 -62.001 107s-20.5 85.167 -20.5 132.5c0 39.333 6.83301 79 20.5 119s34.334 76.167 62.001 108.5s62.5 58.666 104.5 78.999s91 30.5 147 30.5c22 0 42.167 -0.5 60.5 -1.5
s35.833 -2.66699 52.5 -5s33 -5.33301 49 -9s32.667 -7.83398 50 -12.501c0.666992 -18 3 -40 7 -66s9.33301 -52.333 16 -79c-5.33301 -2.66699 -10.666 -4 -15.999 -4s-10.166 0.666992 -14.499 2s-7.16602 5 -8.49902 11c-12 44 -31 75.333 -57 94s-63.667 28 -113 28
c-41.333 0 -77.833 -6.66699 -109.5 -20s-58.334 -32 -80.001 -56s-38 -52.833 -49 -86.5s-16.5 -71.167 -16.5 -112.5c0 -46 7 -88.333 21 -127s32.833 -72 56.5 -100s51.334 -49.667 83.001 -65s65.5 -23 101.5 -23c28.667 0 52.834 2.83301 72.501 8.5
s36 13.834 49 24.501s24 23.834 33 39.501s17.5 33.5 25.5 53.5c4.66699 10 12.667 15 24 15c3.33301 0 6.83301 -0.5 10.5 -1.5s6.5 -2.16699 8.5 -3.5c-8 -23.333 -16 -49 -24 -77s-14.667 -56 -20 -84c-32.667 -5.33301 -66 -9.5 -100 -12.5s-71.333 -4.5 -112 -4.5z" />
    <glyph glyph-name="D" unicode="D" horiz-adv-x="757" 
d="M607 306c0 102.667 -25.499 178.834 -76.499 228.501s-125.5 74.5 -223.5 74.5h-87v-532c0 -6.66699 1.66699 -12.334 5 -17.001s9 -8.33398 17 -11.001s19 -4.66699 33 -6s31.667 -2 53 -2c51.333 0 94.666 6.16699 129.999 18.5s64 30 86 53s38 50.833 48 83.5
s15 69.334 15 110.001zM712.001 325c0 -39.333 -6.83203 -78.334 -20.499 -117.001s-34.334 -73.5 -62.001 -104.5s-62.667 -56 -105 -75s-91.833 -28.5 -148.5 -28.5h-205c-17.333 0 -37 -0.5 -59 -1.5s-43.333 -2.16699 -64 -3.5c-1.33301 6.66699 -2 12 -2 16
c0 9.33301 3.66699 14.666 11 15.999c24.667 6 42.334 11.667 53.001 17s16 14 16 26v509c0 13.333 -5 22.666 -15 27.999s-28 10.333 -54 15c-4 0.666992 -6.83301 2.66699 -8.5 6s-2.5 7 -2.5 11s0.666992 9.33301 2 16c14 -1.33301 26.167 -2.16602 36.5 -2.49902
s20.166 -0.833008 29.499 -1.5s18.5 -1 27.5 -1h28.5h205c56 0 105.167 -8.66699 147.5 -26s77.5 -40.666 105.5 -69.999s49 -63.666 63 -102.999s21 -81.333 21 -126z" />
    <glyph glyph-name="E" unicode="E" horiz-adv-x="605" 
d="M221 609l0.00390625 -255.996h156c13.333 0 22.833 6.5 28.5 19.5s10.167 28.833 13.5 47.5c2 8.66699 8 13 18 13c2 0 4.66699 -0.333008 8 -1s6 -1.33398 8 -2.00098c-1.33301 -14.667 -2.5 -31.334 -3.5 -50.001s-1.5 -35 -1.5 -49
c0 -11.333 0.333008 -25.166 1 -41.499s2 -34.833 4 -55.5c-5.33301 -1.33301 -10.333 -2 -15 -2c-10.667 0 -17 4.33301 -19 13c-3.33301 18.667 -7.83301 34.5 -13.5 47.5s-15.167 19.5 -28.5 19.5h-156v-236c0 -14 9 -23.333 27 -28s47.667 -7 89 -7h55
c19.333 0 36.166 2.83301 50.499 8.5s27 13.334 38 23.001s20.833 21.167 29.5 34.5s17 28 25 44c2 4.66699 7 7 15 7c3.33301 0 6.83301 -1 10.5 -3l10.5 -6c-6 -12.667 -11.167 -27.834 -15.5 -45.501l-12.5 -50.5c-4 -16 -8.16699 -29.667 -12.5 -41
s-9.83301 -17 -16.5 -17c-5.33301 0 -13 0.333008 -23 1s-20.833 1.16699 -32.5 1.5s-23.5 0.833008 -35.5 1.5s-22.333 1 -31 1h-219c-19.333 0 -40 -0.5 -62 -1.5s-43 -2.16699 -63 -3.5c-1.33301 6.66699 -2 12 -2 16c0 9.33301 3.33301 14.666 10 15.999
c25.333 4.66699 43.5 9.66699 54.5 15s16.5 14.666 16.5 27.999v509c0 13.333 -4.83301 22.5 -14.5 27.5s-28.5 10.167 -56.5 15.5c-6.66699 1.33301 -10 7 -10 17c0 3.33301 0.166992 6.16602 0.5 8.49902s0.833008 4.83301 1.5 7.5c28.667 -2 52.667 -3.33301 72 -4
s36.666 -1 51.999 -1h197c30 0 56 1 78 3s36.667 3 44 3c8.66699 0 14.5 -5.5 17.5 -16.5s5.5 -24.167 7.5 -39.5s4.33301 -31.666 7 -48.999s7.66699 -32 15 -44c-5.33301 -4 -11.333 -6 -18 -6c-8.66699 0 -14.334 3 -17.001 9c-8 17.333 -15.667 32.166 -23 44.499
s-15.833 22.5 -25.5 30.5s-21.334 14 -35.001 18s-30.5 6 -50.5 6h-148z" />
    <glyph glyph-name="F" unicode="F" horiz-adv-x="567" 
d="M127 579c0 13.333 -5.16895 22.6699 -15.502 28.0029s-28.833 10.333 -55.5 15c-4.66699 1.33301 -7.5 3.16602 -8.5 5.49902s-1.5 6.16602 -1.5 11.499c0 4 0.666992 9.33301 2 16c22 -1.33301 43.333 -2.5 64 -3.5s40.334 -1.5 59.001 -1.5h198c26 0 50.667 1 74 3
s39.333 3 48 3c8 0 13.667 -5.5 17 -16.5s6 -24.167 8 -39.5s4.33301 -31.5 7 -48.5s7.33398 -31.833 14.001 -44.5c-2 -2.66699 -4.66699 -4.5 -8 -5.5s-6.66602 -1.5 -9.99902 -1.5c-8 0 -13.333 3 -16 9c-8 18 -15.833 33.333 -23.5 46s-16.334 23 -26.001 31
s-21.167 13.833 -34.5 17.5s-30 5.5 -50 5.5h-148v-266h149c13.333 0 22.833 6.5 28.5 19.5s10.167 28.5 13.5 46.5c2 8.66699 8 13 18 13c5.33301 0 10.666 -0.666992 15.999 -2c-1.33301 -14.667 -2.5 -31.5 -3.5 -50.5s-1.5 -35.5 -1.5 -49.5
c0 -11.333 0.333008 -25 1 -41s2 -34.333 4 -55c-5.33301 -1.33301 -10.333 -2 -15 -2c-5.33301 0 -9.66602 0.833008 -12.999 2.5s-5.33301 5.16699 -6 10.5c-2.66699 17.333 -7 32.666 -13 45.999s-15.667 20 -29 20h-149v-232c0 -13.333 8.5 -22.5 25.5 -27.5
s37.833 -9.16699 62.5 -12.5c8 -0.666992 12 -6.33398 12 -17.001c0 -4.66699 -0.666992 -10.334 -2 -17.001c-14 0.666992 -29 1.33398 -45 2.00098c-13.333 0.666992 -28.833 1.33398 -46.5 2.00098s-36.167 1 -55.5 1c-18 0 -38.333 -0.5 -61 -1.5
s-43.667 -2.16699 -63 -3.5c-1.33301 6.66699 -2 12 -2 16c0 10 3.33301 15.333 10 16c22 5.33301 39.333 10.5 52 15.5s19 14.167 19 27.5v509z" />
    <glyph glyph-name="G" unicode="G" horiz-adv-x="712" 
d="M585 5c-30 -5.33301 -60.668 -9.49902 -92.001 -12.499s-68 -4.5 -110 -4.5c-57.333 0 -107.166 8.66699 -149.499 26s-77.5 41 -105.5 71s-48.833 65.5 -62.5 106.5s-20.5 85.5 -20.5 133.5c0 40 6.83301 80 20.5 120s34.334 76 62.001 108s62.5 58.167 104.5 78.5
s91 30.5 147 30.5c20 0 39.167 -0.5 57.5 -1.5s36.5 -2.83301 54.5 -5.5s36.167 -5.83398 54.5 -9.50098s38.166 -8.16699 59.499 -13.5c1.33301 -23.333 3.83301 -47.5 7.5 -72.5s8.5 -49.5 14.5 -73.5c-1.33301 -1.33301 -4 -2.33301 -8 -3s-7.33301 -1 -10 -1
c-10.667 0 -17.334 4.33301 -20.001 13c-12 44.667 -32.333 76.667 -61 96s-69.667 29 -123 29c-42.667 0 -80 -7 -112 -21s-58.5 -33.167 -79.5 -57.5s-36.833 -53.333 -47.5 -87s-16 -70.167 -16 -109.5c0 -46 6.83301 -88.333 20.5 -127s32.334 -72 56.001 -100
s51.667 -49.667 84 -65s67.5 -23 105.5 -23c19.333 0 38.833 1.33301 58.5 4s36.167 6 49.5 10v153c0 18 -5.33301 30.5 -16 37.5s-28.667 12.167 -54 15.5c-5.33301 0.666992 -9 3 -11 7s-3 8 -3 12c0 5.33301 0.666992 10.666 2 15.999
c19.333 -1.33301 40.666 -2.5 63.999 -3.5s43.666 -1.5 60.999 -1.5s37.166 0.5 59.499 1.5s41.833 2.16699 58.5 3.5c1.33301 -6.66699 2 -12 2 -16c0 -6.66699 -1.16699 -11.167 -3.5 -13.5s-5.16602 -3.83301 -8.49902 -4.5
c-21.333 -2.66699 -36.166 -7.16699 -44.499 -13.5s-12.5 -16.166 -12.5 -29.499v-178c0 -6 -1.66699 -11 -5 -15s-12.666 -7.33301 -27.999 -10z" />
    <glyph glyph-name="H" unicode="H" horiz-adv-x="747" 
d="M625 70c0 -13.333 4.33594 -22.498 13.0029 -27.498s26 -10.167 52 -15.5c6.66699 -1.33301 10 -6 10 -14c0 -5.33301 -0.666992 -11.333 -2 -18c-16.667 1.33301 -36.334 2.5 -59.001 3.5s-43 1.5 -61 1.5c-18.667 0 -38.5 -0.5 -59.5 -1.5s-41.5 -2.16699 -61.5 -3.5
c-1.33301 6.66699 -2 12.667 -2 18c0 8 3.33301 12.667 10 14c24.667 4.66699 41.667 9.66699 51 15s14 14.666 14 27.999v242h-314v-242c0 -13.333 4.33301 -22.5 13 -27.5s26 -10.167 52 -15.5c7.33301 -1.33301 11 -6 11 -14c0 -5.33301 -0.666992 -11.333 -2 -18
c-17.333 1.33301 -37.333 2.5 -60 3.5s-43 1.5 -61 1.5c-18.667 0 -38.334 -0.5 -59.001 -1.5s-41.334 -2.16699 -62.001 -3.5c-1.33301 6.66699 -2 12.667 -2 18c0 8 3.33301 12.667 10 14c25.333 4.66699 42.666 9.66699 51.999 15s14 14.666 14 27.999v508
c0 6.66699 -0.833008 12.167 -2.5 16.5s-4.83398 8.16602 -9.50098 11.499s-11.167 6.16602 -19.5 8.49902s-19.166 4.83301 -32.499 7.5c-6.66699 0.666992 -10 6 -10 16c0 4.66699 0.666992 10.334 2 17.001c16.667 -1.33301 36 -2.5 58 -3.5s42 -1.5 60 -1.5
c18.667 0 38.334 0.5 59.001 1.5s41 2.16699 61 3.5c1.33301 -6.66699 2 -12.334 2 -17.001c0 -9.33301 -3.33301 -14.666 -10 -15.999c-26 -4 -43.167 -9 -51.5 -15s-12.5 -15.667 -12.5 -29v-224h314v224c0 11.333 -4 20.5 -12 27.5s-25 12.5 -51 16.5
c-7.33301 0.666992 -11 6 -11 16c0 4.66699 0.666992 10.334 2 17.001c16.667 -1.33301 36.167 -2.5 58.5 -3.5s42.5 -1.5 60.5 -1.5c18.667 0 38.167 0.5 58.5 1.5s40.833 2.16699 61.5 3.5c1.33301 -6.66699 2 -12.334 2 -17.001c0 -9.33301 -3.33301 -14.666 -10 -15.999
c-26 -4 -43.167 -9 -51.5 -15s-12.5 -15.667 -12.5 -29v-508z" />
    <glyph glyph-name="I" unicode="I" 
d="M216 70c0 -13.333 4.66699 -22.499 14 -27.499s26.666 -10.167 51.999 -15.5c6.66699 -1.33301 10 -6.66602 10 -15.999c0 -4 -0.666992 -9.33301 -2 -16c-20.667 1.33301 -41.334 2.5 -62.001 3.5s-40.334 1.5 -59.001 1.5c-18 0 -37.833 -0.5 -59.5 -1.5
s-42.167 -2.16699 -61.5 -3.5c-1.33301 6.66699 -2 12 -2 16c0 9.33301 3.33301 14.666 10 15.999c25.333 4.66699 42.666 9.66699 51.999 15s14 14.666 14 27.999v509c0 13.333 -4.66699 22.833 -14 28.5s-26.666 10.5 -51.999 14.5c-4 0.666992 -6.66699 2.66699 -8 6
s-2 7 -2 11s0.666992 9.33301 2 16c20 -1.33301 40.833 -2.5 62.5 -3.5s41.167 -1.5 58.5 -1.5c16.667 0 35.834 0.5 57.501 1.5s42.834 2.16699 63.501 3.5c1.33301 -6.66699 2 -12 2 -16c0 -10 -3.33301 -15.667 -10 -17c-25.333 -4 -42.666 -8.83301 -51.999 -14.5
s-14 -15.167 -14 -28.5v-509z" />
    <glyph glyph-name="J" unicode="J" horiz-adv-x="348" 
d="M132 579c0 13.333 -4.83008 22.833 -14.4971 28.5s-27.834 10.5 -54.501 14.5c-6.66699 1.33301 -10 7 -10 17c0 4 0.666992 9.33301 2 16c21.333 -1.33301 43.5 -2.5 66.5 -3.5s42.167 -1.5 57.5 -1.5c16 0 35.167 0.5 57.5 1.5s43.166 2.16699 62.499 3.5
c1.33301 -6.66699 2 -12 2 -16c0 -10.667 -3.66699 -16.334 -11 -17.001c-24.667 -4 -41.5 -8.83301 -50.5 -14.5s-13.5 -15.167 -13.5 -28.5v-433c0 -46.667 -2 -86.667 -6 -120s-12.667 -63.5 -26 -90.5s-32.333 -52.667 -57 -77s-57.334 -50.5 -98.001 -78.5
c-8.66699 6.66699 -13 13.667 -13 21c0 4.66699 1.66699 8.66699 5 12c36.667 35.333 62.667 71.333 78 108s23 78.334 23 125.001v533z" />
    <glyph glyph-name="K" unicode="K" horiz-adv-x="663" 
d="M216 323l0.0078125 -253c0 -13.333 4.16699 -22.666 12.5 -27.999s23.833 -10.333 46.5 -15c3.33301 -0.666992 6 -2 8 -4s3 -5.66699 3 -11c0 -4.66699 -0.666992 -10.334 -2 -17.001c-21.333 1.33301 -41.666 2.5 -60.999 3.5s-37.333 1.5 -54 1.5
c-17.333 0 -36.833 -0.5 -58.5 -1.5s-42.5 -2.16699 -62.5 -3.5c-1.33301 6.66699 -2 12 -2 16c0 9.33301 3.33301 14.666 10 15.999c25.333 5.33301 42.666 10.5 51.999 15.5s14 14.167 14 27.5v509c0 13.333 -4.66699 22.833 -14 28.5s-26.666 10.5 -51.999 14.5
c-6.66699 0.666992 -10 6.33398 -10 17.001c0 4 0.666992 9.33301 2 16c19.333 -1.33301 40 -2.5 62 -3.5s41.333 -1.5 58 -1.5c17.333 0 36.666 0.5 57.999 1.5s42.666 2.16699 63.999 3.5c1.33301 -6.66699 2 -12 2 -16c0 -10 -3.33301 -15.667 -10 -17
c-25.333 -4 -42.666 -8.83301 -51.999 -14.5s-14 -15.167 -14 -28.5v-242l232 230c4 4 7.5 8.5 10.5 13.5s4.5 10.167 4.5 15.5c0 7.33301 -3.83301 12.833 -11.5 16.5s-17.834 6.5 -30.501 8.5c-6.66699 0.666992 -10 6.66699 -10 18c0 4 0.666992 9.33301 2 16
c19.333 -1.33301 38.666 -2.5 57.999 -3.5s37 -1.5 53 -1.5c14.667 0 30.167 0.5 46.5 1.5s31.166 2.16699 44.499 3.5c1.33301 -6.66699 2 -12 2 -16c0 -10.667 -3.66699 -17 -11 -19c-14.667 -2.66699 -28.334 -6.66699 -41.001 -12s-25 -13.666 -37 -24.999l-225 -222
l273 -294c11.333 -12 22.666 -20.667 33.999 -26s25 -9.33301 41 -12c8 -0.666992 12 -6.33398 12 -17.001c0 -4.66699 -0.666992 -10.334 -2 -17.001c-20.667 1.33301 -43.334 2.5 -68.001 3.5s-46 1.5 -64 1.5c-18.667 0 -38.334 -0.5 -59.001 -1.5
s-42.334 -2.16699 -65.001 -3.5c-1.33301 6.66699 -2 12 -2 16c0 10 3.66699 15.333 11 16c30 2 45 10.667 45 26c0 6.66699 -3.33301 13.334 -10 20.001z" />
    <glyph glyph-name="L" unicode="L" horiz-adv-x="558" 
d="M221 72c0 -11.333 4.99805 -19.335 14.998 -24.002s23.667 -7 41 -7h109c19.333 0 36 2.5 50 7.5s26 12.167 36 21.5s18.833 20.833 26.5 34.5s14.5 29.167 20.5 46.5c2 5.33301 6 8 12 8c3.33301 0 6.83301 -0.833008 10.5 -2.5l11.5 -5.5
c-4.66699 -20 -9.16699 -41.167 -13.5 -63.5s-8.16602 -47.5 -11.499 -75.5c-0.666992 -7.33301 -2.66699 -12 -6 -14s-7.33301 -3 -12 -3c-11.333 0 -25.5 0.833008 -42.5 2.5s-31.833 2.5 -44.5 2.5h-250c-15.333 0 -34.666 -0.5 -57.999 -1.5
s-45.666 -2.16699 -66.999 -3.5c-1.33301 6.66699 -2 12 -2 16c0 9.33301 3.33301 14.666 10 15.999c27.333 4.66699 46 9.83398 56 15.501s15 14.5 15 26.5v510c0 13.333 -4.66699 22.833 -14 28.5s-27.333 10.5 -54 14.5c-3.33301 0.666992 -5.83301 2.5 -7.5 5.5
s-2.5 6.5 -2.5 10.5c0 4.66699 0.666992 10.334 2 17.001c22.667 -1.33301 45 -2.5 67 -3.5s40.667 -1.5 56 -1.5c22.667 0 46.667 0.5 72 1.5s48 2.16699 68 3.5c1.33301 -6.66699 2 -12 2 -16c0 -11.333 -3.66699 -17.333 -11 -18
c-28.667 -3.33301 -49.834 -8.16602 -63.501 -14.499s-20.5 -17.833 -20.5 -34.5v-500z" />
    <glyph glyph-name="M" unicode="M" horiz-adv-x="900" 
d="M661 631c1.33301 2.66699 2.83203 5.33887 4.49902 8.00586s4.5 4.66699 8.5 6s9.33301 2.5 16 3.5s16 1.5 28 1.5c5.33301 0 12.333 0.166992 21 0.5s18 0.666016 28 0.999023s20.167 0.833008 30.5 1.5s19.833 1.33398 28.5 2.00098c1.33301 -6.66699 2 -12 2 -16
c0 -10.667 -3.33301 -16.334 -10 -17.001c-24 -3.33301 -40 -7.83301 -48 -13.5s-12 -13.167 -12 -22.5c0 -0.666992 0.5 -9.5 1.5 -26.5s2.5 -45.333 4.5 -85s4.5 -92.5 7.5 -158.5s6.5 -148 10.5 -246c0.666992 -12.667 5 -22 13 -28s24.333 -11 49 -15
c3.33301 -0.666992 5.83301 -2.5 7.5 -5.5s2.5 -6.5 2.5 -10.5s-0.666992 -9.33301 -2 -16l-63.5 3.5c-19 1 -36.5 1.5 -52.5 1.5c-6.66699 0 -15 -0.166992 -25 -0.5l-31.5 -1c-11 -0.333008 -21.833 -0.833008 -32.5 -1.5s-20 -1.33398 -28 -2.00098
c-1.33301 6.66699 -2 12 -2 16c0 10.667 3.33301 16 10 16c26.667 5.33301 44.834 10.666 54.501 15.999s14.5 14.333 14.5 27c0 2 -0.5 14.333 -1.5 37s-2.33301 50.334 -4 83.001s-3.33398 68 -5.00098 106s-3.33398 73.833 -5.00098 107.5s-3.16699 62.667 -4.5 87
s-2 39.166 -2 44.499l-219 -529c-2.66699 -6 -5.16699 -10.5 -7.5 -13.5s-5.5 -4.5 -9.5 -4.5c-4.66699 0 -7.66699 0.333008 -9 1l-245 562c-0.666992 -6.66699 -1.5 -22.834 -2.5 -48.501s-2.33301 -56.167 -4 -91.5l-5.5 -112l-5.5 -109
c-1.66699 -33.333 -3 -61.333 -4 -84s-1.5 -34.667 -1.5 -36c0 -20.667 22.667 -35 68 -43c6.66699 -0.666992 10 -6 10 -16c0 -4 -0.666992 -9.33301 -2 -16c-18 1.33301 -35.667 2.5 -53 3.5s-32.666 1.5 -45.999 1.5c-10.667 0 -25 -0.5 -43 -1.5s-35 -2.16699 -51 -3.5
c-1.33301 6.66699 -2 12 -2 16c0 9.33301 3.33301 14.666 10 15.999c18 3.33301 32.5 8.16602 43.5 14.499s17.167 15.833 18.5 28.5c0 6 0.666992 22.833 2 50.5s2.83301 60.5 4.5 98.5l5.5 121l5.5 118.5c1.66699 36.333 3 66.333 4 90s1.5 35.834 1.5 36.501
c0 10.667 -4.16699 18.5 -12.5 23.5s-24.166 9.5 -47.499 13.5c-6.66699 0.666992 -10 6.33398 -10 17.001c0 4 0.666992 9.33301 2 16c8.66699 -0.666992 18.5 -1.33398 29.5 -2.00098s22 -1.16699 33 -1.5l31.5 -1c10 -0.333008 18 -0.5 24 -0.5c12 0 21.333 -0.5 28 -1.5
s12 -2.16699 16 -3.5s6.83301 -3.33301 8.5 -6s3.16699 -5.33398 4.5 -8.00098l214 -499z" />
    <glyph glyph-name="N" unicode="N" horiz-adv-x="721" 
d="M563 159l0.000976562 417.999c0 14.667 -5.33301 25 -16 31s-28.667 10.667 -54 14c-7.33301 0.666992 -11 6.33398 -11 17.001c0 4 0.666992 9.33301 2 16c16.667 -1.33301 33.667 -2.5 51 -3.5s33.666 -1.5 48.999 -1.5c14.667 0 30 0.5 46 1.5s31.667 2.16699 47 3.5
c1.33301 -6.66699 2 -12 2 -16c0 -10.667 -3.33301 -16.334 -10 -17.001c-22.667 -3.33301 -38.167 -8 -46.5 -14s-12.5 -15.667 -12.5 -29v-589c-1.33301 -0.666992 -3.66602 -1.16699 -6.99902 -1.5s-6 -0.5 -8 -0.5c-4.66699 0 -9 1.16699 -13 3.5
s-8.66699 7.16602 -14 14.499l-406 535v-471c0 -13.333 4.66699 -22.666 14 -27.999s27.333 -10.333 54 -15c6.66699 -1.33301 10 -6.66602 10 -15.999c0 -4 -0.666992 -9.33301 -2 -16c-16.667 1.33301 -33.5 2.5 -50.5 3.5s-32.833 1.5 -47.5 1.5
c-13.333 0 -29 -0.5 -47 -1.5s-34.333 -2.16699 -49 -3.5c-1.33301 6.66699 -2 12 -2 16c0 9.33301 3.66699 14.666 11 15.999c24 4.66699 40.167 9.66699 48.5 15s12.5 14.666 12.5 27.999v514c0 10.667 -3.83301 18.834 -11.5 24.501s-23.5 10.167 -47.5 13.5
c-7.33301 1.33301 -11 7 -11 17c0 3.33301 0.333008 6.33301 1 9c0 2 0.333008 4.33301 1 7c13.333 -1.33301 26 -2.33301 38 -3c10.667 -0.666992 22 -1.16699 34 -1.5s22.667 -0.5 32 -0.5c19.333 0 32.166 -0.666992 38.499 -2s11.5 -4.66602 15.5 -9.99902z" />
    <glyph glyph-name="O" unicode="O" horiz-adv-x="749" 
d="M45 325c0 46 8.33008 89.334 24.9971 130.001s39.334 76.334 68.001 107.001s62 55 100 73s78 27 120 27c58 0 108.667 -9.16699 152 -27.5s79.166 -43 107.499 -74s49.5 -66.833 63.5 -107.5s21 -83.334 21 -128.001c0 -52.667 -8.66699 -99.834 -26 -141.501
s-41.166 -77 -71.499 -106s-66 -51.167 -107 -66.5s-84.833 -23 -131.5 -23c-47.333 0 -90.666 8 -129.999 24s-73.166 38.833 -101.499 68.5s-50.333 65.167 -66 106.5s-23.5 87.333 -23.5 138zM388.997 36.001c31.333 0 60 6.00195 86 18.002s48.333 28.667 67 50
s33.167 46.666 43.5 75.999s15.5 61.333 15.5 96c0 48 -5 92.5 -15 133.5s-25.167 76.667 -45.5 107s-46 54.166 -77 71.499s-67.167 26 -108.5 26c-27.333 0 -53.5 -5.16699 -78.5 -15.5s-47 -25.333 -66 -45s-34.167 -43.834 -45.5 -72.501s-17 -61.667 -17 -99
c0 -49.333 5.33301 -95.166 16 -137.499s26.167 -79 46.5 -110s45.5 -55.167 75.5 -72.5s64.333 -26 103 -26z" />
    <glyph glyph-name="P" unicode="P" horiz-adv-x="558" 
d="M221 282l0.000976562 -204.999c0 -15.333 7.33301 -26.166 22 -32.499s36.667 -11.5 66 -15.5c8 -1.33301 12 -7 12 -17c0 -4.66699 -0.666992 -10.334 -2 -17.001c-19.333 1.33301 -41.333 2.5 -66 3.5s-51.334 1.5 -80.001 1.5c-17.333 0 -37 -0.5 -59 -1.5
s-42.667 -2.16699 -62 -3.5c-1.33301 6.66699 -2 12 -2 16c0 9.33301 3.33301 14.666 10 15.999c26.667 5.33301 44.5 10.5 53.5 15.5s13.5 14.167 13.5 27.5v509c0 13.333 -5.16699 23 -15.5 29s-28.833 10.667 -55.5 14c-6.66699 1.33301 -10 7.33301 -10 18
c0 4.66699 0.666992 9.66699 2 15c18.667 -1.33301 38.5 -2.5 59.5 -3.5s40.833 -1.5 59.5 -1.5h141c72 0 126 -17 162 -51s54 -78 54 -132c0 -21.333 -4.83301 -43 -14.5 -65s-23.667 -41.833 -42 -59.5s-41 -32.167 -68 -43.5s-57.5 -17 -91.5 -17h-87zM274.001 323.001
c46.667 0 82.667 10.333 108 31s38 55.667 38 105c0 20.667 -2.33301 40 -7 58s-12.667 33.833 -24 47.5s-26.333 24.5 -45 32.5s-42 12 -70 12h-53v-286h53z" />
    <glyph glyph-name="Q" unicode="Q" horiz-adv-x="749" 
d="M439 -5c28.667 -6 55.167 -17.499 79.5 -34.499s47.166 -34.167 68.499 -51.5s41.5 -32.833 60.5 -46.5s37.833 -20.5 56.5 -20.5c9.33301 0 18 1.5 26 4.5s15.333 4.5 22 4.5c3.33301 0 5 -1.66699 5 -5c-2 -8 -7 -15.167 -15 -21.5s-17 -11.666 -27 -15.999
s-20.167 -7.5 -30.5 -9.5s-18.833 -3 -25.5 -3c-23.333 0 -45.5 4.16699 -66.5 12.5s-41.167 19 -60.5 32s-38.166 27.333 -56.499 43l-52.5 45c-16.667 14.333 -33 27.166 -49 38.499s-31.333 19 -46 23c-43.333 4.66699 -82.333 16 -117 34s-64.334 41.5 -89.001 70.5
s-43.667 63 -57 102s-20 81.833 -20 128.5c0 46 8.33301 89.333 25 130s39.334 76.334 68.001 107.001s62 55 100 73s78 27 120 27c58 0 108.667 -9.16699 152 -27.5s79.166 -43 107.499 -74s49.5 -66.833 63.5 -107.5s21 -83.334 21 -128.001
c0 -43.333 -6.33301 -83.5 -19 -120.5s-30.5 -69.5 -53.5 -97.5s-50.667 -51.333 -83 -70s-68.166 -31.334 -107.499 -38.001v-4zM389 36.001c31.333 0 60 6.00195 86 18.002s48.333 28.667 67 50s33.167 46.666 43.5 75.999s15.5 61.333 15.5 96c0 48 -5 92.5 -15 133.5
s-25.167 76.667 -45.5 107s-46 54.166 -77 71.499s-67.167 26 -108.5 26c-27.333 0 -53.5 -5.16699 -78.5 -15.5s-47 -25.333 -66 -45s-34.167 -43.834 -45.5 -72.501s-17 -61.667 -17 -99c0 -49.333 5.33301 -95.166 16 -137.499s26.167 -79 46.5 -110
s45.5 -55.167 75.5 -72.5s64.333 -26 103 -26z" />
    <glyph glyph-name="R" unicode="R" horiz-adv-x="649" 
d="M295 292l-73.9971 0.000976562v-220c0 -14.667 6.83301 -24.667 20.5 -30s34.5 -9.66602 62.5 -12.999c8 -1.33301 12 -7 12 -17c0 -4.66699 -0.666992 -10.334 -2 -17.001c-18 1.33301 -39.833 2.5 -65.5 3.5s-50.834 1.5 -75.501 1.5c-17.333 0 -37.333 -0.5 -60 -1.5
s-44 -2.16699 -64 -3.5c-1.33301 6.66699 -2 12 -2 16c0 9.33301 3.66699 14.666 11 15.999c25.333 4 43.166 8.83301 53.499 14.5s15.5 15.167 15.5 28.5v509c0 12.667 -4.83301 22.167 -14.5 28.5s-28.5 11.166 -56.5 14.499c-6.66699 0.666992 -10 6.33398 -10 17.001
c0 4 0.666992 9.33301 2 16c20 -1.33301 40.667 -2.5 62 -3.5s41.666 -1.5 60.999 -1.5h135c72 0 126.333 -15.833 163 -47.5s55 -74.5 55 -128.5c0 -14.667 -2.5 -30 -7.5 -46s-12.667 -31.667 -23 -47s-23.666 -29.5 -39.999 -42.5s-35.5 -23.5 -57.5 -31.5l167 -232
c12.667 -17.333 26.667 -29.333 42 -36s29.666 -11.667 42.999 -15c6 -1.33301 9 -6 9 -14c0 -5.33301 -0.666992 -11.333 -2 -18c-15.333 1.33301 -34 2.5 -56 3.5s-42.333 1.5 -61 1.5c-14 0 -28.167 6 -42.5 18s-27.833 27.333 -40.5 46zM274.003 333.001
c46.667 0 82.667 9.83301 108 29.5s38 54.167 38 103.5c0 20.667 -2.66699 39.667 -8 57s-13.833 32.333 -25.5 45s-27 22.667 -46 30s-42.167 11 -69.5 11h-50v-276h53z" />
    <glyph glyph-name="S" unicode="S" horiz-adv-x="552" 
d="M473 493c-6.66699 -1.33301 -11.6641 -2 -14.9971 -2c-8.66699 0 -15 1.66699 -19 5s-7 7 -9 11c-17.333 38 -38 65.667 -62 83s-56.667 26 -98 26c-16 0 -31.167 -2.16699 -45.5 -6.5s-26.833 -10.666 -37.5 -18.999s-19.167 -18.5 -25.5 -30.5s-9.5 -25.333 -9.5 -40
c0 -31.333 13.167 -57 39.5 -77s65.166 -40.333 116.499 -61c64 -25.333 111.167 -53.5 141.5 -84.5s45.5 -69.167 45.5 -114.5c0 -27.333 -4.16699 -52.833 -12.5 -76.5s-21.333 -44.334 -39 -62.001s-40.5 -31.5 -68.5 -41.5s-61.667 -15 -101 -15
c-41.333 0 -78.833 4.33301 -112.5 13s-62.167 20 -85.5 34c-2 28 -5 55 -9 81s-8.66699 52 -14 78c4.66699 2 10.334 3 17.001 3c8 0 14.167 -1.83301 18.5 -5.5s8.16602 -9.5 11.499 -17.5c16.667 -48 38.167 -83.333 64.5 -106s63.166 -34 110.499 -34
c21.333 0 40 3 56 9s29.333 14.333 40 25s18.667 22.667 24 36s8 27.666 8 42.999c0 34.667 -11.833 62 -35.5 82s-57.5 38 -101.5 54c-28.667 10.667 -54.667 21.834 -78 33.501s-43.333 25.167 -60 40.5s-29.5 33.166 -38.5 53.499s-13.5 44.5 -13.5 72.5
c0 24.667 4.5 47.834 13.5 69.501s22 40.5 39 56.5s37.5 28.667 61.5 38s51 14 81 14c31.333 0 61.333 -3 90 -9s61 -16 97 -30c1.33301 -20 3.16602 -41.5 5.49902 -64.5s5.5 -44.5 9.5 -64.5z" />
    <glyph glyph-name="T" unicode="T" horiz-adv-x="647" 
d="M371 609l-0.00488281 -534c0 -15.333 6.33301 -26.166 19 -32.499s34 -11.166 64 -14.499c7.33301 0 11 -5.33301 11 -16c0 -4.66699 -0.666992 -10.334 -2 -17.001c-21.333 1.33301 -43.833 2.5 -67.5 3.5s-47.5 1.5 -71.5 1.5c-23.333 0 -47.166 -0.5 -71.499 -1.5
s-47.166 -2.16699 -68.499 -3.5c-1.33301 6.66699 -2 12.334 -2 17.001c0 9.33301 3.33301 14.666 10 15.999c30 4 51.667 9 65 15s20 16.667 20 32v534h-103c-20 0 -36.833 -2 -50.5 -6s-25.5 -10 -35.5 -18s-18.667 -18.333 -26 -31s-15 -27.334 -23 -44.001
c-1.33301 -3.33301 -3.5 -5.66602 -6.5 -6.99902s-5.83301 -2 -8.5 -2c-7.33301 0 -13.666 2 -18.999 6c6.66699 24 11.667 45.333 15 64s6.33301 34.167 9 46.5s5.5 21.833 8.5 28.5s7.83301 10 14.5 10c4.66699 0 11.334 -0.333008 20.001 -1
s17.834 -1.33398 27.501 -2.00098l29.5 -2c10 -0.666992 19.333 -1 28 -1h334c8 0 17 0.333008 27 1l30 2c10 0.666992 19.167 1.33398 27.5 2.00098s15.166 1 20.499 1c6.66699 0 11.5 -3.5 14.5 -10.5s5.83301 -16.833 8.5 -29.5s5.5 -28.334 8.5 -47.001
s8.16699 -39.334 15.5 -62.001c-3.33301 -1.33301 -6.5 -2.66602 -9.5 -3.99902s-6.5 -2 -10.5 -2c-2.66699 0 -5.66699 0.666992 -9 2s-5.66602 3.66602 -6.99902 6.99902c-7.33301 16.667 -14.666 31.334 -21.999 44.001s-15.833 23 -25.5 31s-21.334 14 -35.001 18
s-30.5 6 -50.5 6h-103z" />
    <glyph glyph-name="U" unicode="U" horiz-adv-x="761" 
d="M649 243c0 -38 -4.33105 -72.498 -12.998 -103.498s-23.167 -57.833 -43.5 -80.5s-47.166 -40.167 -80.499 -52.5s-75 -18.5 -125 -18.5c-57.333 0 -103.666 7.16699 -138.999 21.5s-62.5 33.166 -81.5 56.499s-31.667 50.166 -38 80.499s-9.5 61.166 -9.5 92.499v340
c0 13.333 -4.66699 23 -14 29s-27 10.667 -53 14c-6.66699 0.666992 -10 6.33398 -10 17.001c0 4 0.666992 9.33301 2 16c20 -1.33301 40.5 -2.5 61.5 -3.5s41.167 -1.5 60.5 -1.5c17.333 0 37.666 0.5 60.999 1.5s45 2.16699 65 3.5c1.33301 -6.66699 2 -12 2 -16
c0 -10.667 -3.33301 -16.334 -10 -17.001c-25.333 -3.33301 -43.5 -8 -54.5 -14s-16.5 -15.667 -16.5 -29v-318c0 -69.333 13.833 -122.5 41.5 -159.5s74.5 -55.5 140.5 -55.5c37.333 0 69 4.16699 95 12.5s47.333 21.166 64 38.499s28.667 39.833 36 67.5
s11 60.834 11 99.501v315c0 13.333 -5 23 -15 29s-28 10.667 -54 14c-7.33301 0.666992 -11 6.33398 -11 17.001c0 4 0.666992 9.33301 2 16c19.333 -1.33301 38.166 -2.5 56.499 -3.5s34.166 -1.5 47.499 -1.5c16 0 32.167 0.5 48.5 1.5s32.5 2.16699 48.5 3.5
c1.33301 -6.66699 2 -12 2 -16c0 -3.33301 -1 -6.83301 -3 -10.5s-4.66699 -5.83398 -8 -6.50098c-24.667 -2.66699 -41.834 -7.16699 -51.501 -13.5s-14.5 -16.166 -14.5 -29.499v-336z" />
    <glyph glyph-name="V" unicode="V" horiz-adv-x="681" 
d="M539 570c2.66699 7.33301 4.00391 13.999 4.00391 19.999c0 9.33301 -4.66699 16.333 -14 21s-24.333 8.33398 -45 11.001c-8 0.666992 -12 6.33398 -12 17.001c0 3.33301 0.333008 6.33301 1 9c0 2 0.333008 4.33301 1 7c1.33301 0 5.66602 -0.333008 12.999 -1
s16.166 -1.33398 26.499 -2.00098s21.5 -1.16699 33.5 -1.5s23.333 -0.5 34 -0.5c22 0 42.167 0.666992 60.5 2s29.166 2.33301 32.499 3c0 -2 0.333008 -4.33301 1 -7c0 -2 0.166992 -3.83301 0.5 -5.5s0.5 -3.16699 0.5 -4.5c0 -10.667 -3.66699 -16.667 -11 -18
c-21.333 -1.33301 -37 -4.66602 -47 -9.99902s-17.667 -14.333 -23 -27l-247 -594c-1.33301 0 -2.83301 -0.166992 -4.5 -0.5s-3.16699 -0.5 -4.5 -0.5c-7.33301 0 -13.333 5.66699 -18 17l-235 583c-4 9.33301 -10.667 16.333 -20 21s-26 8.66699 -50 12
c-7.33301 0.666992 -11 6.66699 -11 18c0 5.33301 0.666992 10.666 2 15.999c20 -1.33301 41.667 -2.5 65 -3.5s43.666 -1.5 60.999 -1.5c16.667 0 37 0.5 61 1.5s46.333 2.16699 67 3.5c1.33301 -6.66699 2 -12 2 -16c0 -10 -4 -15.667 -12 -17
c-39.333 -4 -59 -14.667 -59 -32c0 -4.66699 0.666992 -9 2 -13l170 -435z" />
    <glyph glyph-name="W" unicode="W" horiz-adv-x="988" 
d="M513 660c4 1.33301 7.33008 2 9.99707 2c6.66699 0 11.334 -4.33301 14.001 -13l169 -485l142 406c1.33301 4 2.33301 7.66699 3 11s1 6.33301 1 9c0 9.33301 -4.83301 16.333 -14.5 21s-25.167 8.33398 -46.5 11.001c-7.33301 0.666992 -11 6.33398 -11 17.001
c0 5.33301 0.666992 10.666 2 15.999c17.333 -1.33301 35.5 -2.5 54.5 -3.5s35.833 -1.5 50.5 -1.5c16 0 33.167 0.5 51.5 1.5s32.833 2.16699 43.5 3.5c0 -2 0.333008 -4.66699 1 -8s1 -6 1 -8c0 -10.667 -4 -16.667 -12 -18c-20 -2.66699 -35.167 -6.5 -45.5 -11.5
s-17.833 -13.833 -22.5 -26.5l-211 -593c-4 -1.33301 -7.66699 -2 -11 -2c-8 0 -14 6 -18 18l-167 471l-170 -487c-2.66699 -1.33301 -6 -2 -10 -2c-8 0 -14 6 -18 18l-215 582c-3.33301 9.33301 -9.5 16.333 -18.5 21s-25.5 8.66699 -49.5 12
c-7.33301 2 -11 8.33301 -11 19c0 3.33301 0.666992 8.33301 2 15c9.33301 -0.666992 19.5 -1.33398 30.5 -2.00098s22 -1.16699 33 -1.5l32 -1c10.333 -0.333008 19.5 -0.5 27.5 -0.5c16.667 0 36.834 0.5 60.501 1.5s45.834 2.16699 66.501 3.5
c1.33301 -6.66699 2 -12 2 -16c0 -10 -3.66699 -15.667 -11 -17c-19.333 -2 -34.333 -5.5 -45 -10.5s-16 -12.5 -16 -22.5c0 -4 1 -8 3 -12l151 -413z" />
    <glyph glyph-name="X" unicode="X" horiz-adv-x="647" 
d="M553 62c6 -9.33301 14.1709 -16.3301 24.5039 -20.9971s27.5 -9 51.5 -13c3.33301 -0.666992 6.5 -2.16699 9.5 -4.5s4.5 -6.16602 4.5 -11.499c0 -4.66699 -0.666992 -10.334 -2 -17.001c-10 0.666992 -20.833 1.33398 -32.5 2.00098s-23.334 1.16699 -35.001 1.5
l-33.5 1c-10.667 0.333008 -19.667 0.5 -27 0.5c-18 0 -39.333 -0.5 -64 -1.5s-48.667 -2.16699 -72 -3.5c-1.33301 6.66699 -2 12 -2 16c0 9.33301 3.66699 14.666 11 15.999c16 3.33301 29 7.16602 39 11.499s15 10.833 15 19.5c0 6.66699 -2.33301 12.667 -7 18l-137 212
l-129 -195c-8.66699 -13.333 -13 -23.666 -13 -30.999c0 -17.333 17.333 -29 52 -35c7.33301 -1.33301 11 -6.66602 11 -15.999c0 -4 -0.666992 -9.33301 -2 -16c-17.333 1.33301 -36.833 2.5 -58.5 3.5s-40.5 1.5 -56.5 1.5c-15.333 0 -30 -0.333008 -44 -1
s-30.333 -2 -49 -4c-1.33301 6.66699 -2 12.334 -2 17.001c0 9.33301 3.66699 14.666 11 15.999c15.333 3.33301 30.5 8.16602 45.5 14.499s25.5 14.166 31.5 23.499l176 264l-168 258c-5.33301 8.66699 -13.833 15.834 -25.5 21.501s-28.834 9.5 -51.501 11.5
c-8 0.666992 -12 6.66699 -12 18c0 4 0.666992 9.33301 2 16c20.667 -1.33301 42.667 -2.5 66 -3.5s43 -1.5 59 -1.5c17.333 0 38.166 0.5 62.499 1.5s48.166 2.16699 71.499 3.5c1.33301 -6.66699 2 -12 2 -16c0 -10 -3.66699 -15.667 -11 -17
c-16.667 -2 -29.5 -4.66699 -38.5 -8s-13.5 -9 -13.5 -17c0 -2.66699 0.333008 -5.5 1 -8.5s2.66699 -6.5 6 -10.5l123 -187l120 176c6.66699 9.33301 10 17.666 10 24.999c0 14.667 -17 24.667 -51 30c-7.33301 1.33301 -11 7 -11 17c0 4 0.666992 9.33301 2 16
c20 -1.33301 38.667 -2.5 56 -3.5s32 -1.5 44 -1.5c17.333 0 35.166 0.5 53.499 1.5s34.833 2.16699 49.5 3.5c1.33301 -6.66699 2 -12.334 2 -17.001c0 -5.33301 -1.16699 -9.33301 -3.5 -12s-5.16602 -4.33398 -8.49902 -5.00098c-18.667 -2 -34 -5.83301 -46 -11.5
s-21.667 -14.167 -29 -25.5l-161 -236z" />
    <glyph glyph-name="Y" unicode="Y" horiz-adv-x="594" 
d="M248 288l-167 299.996c-6.66699 10 -15 17.5 -25 22.5s-23.667 8.83301 -41 11.5c-3.33301 0.666992 -5.83301 2.66699 -7.5 6s-2.5 7.33301 -2.5 12v4.5c0 1.66699 0.333008 3.16699 1 4.5c0 2 0.333008 4 1 6c14.667 -1.33301 33.334 -2.5 56.001 -3.5
s44.667 -1.5 66 -1.5c8 0 17.333 0.166992 28 0.5l33 1c11.333 0.333008 22.166 0.833008 32.499 1.5s19.166 1.33398 26.499 2.00098c0 -2.66699 0.333008 -5 1 -7c0 -2 0.166992 -3.66699 0.5 -5s0.5 -2.66602 0.5 -3.99902c0 -4 -0.833008 -7.66699 -2.5 -11
s-4.16699 -5.33301 -7.5 -6c-19.333 -2.66699 -32.833 -5.83398 -40.5 -9.50098s-11.5 -8.83398 -11.5 -15.501c0 -5.33301 2.33301 -11.666 7 -18.999l124 -224l117 208c6.66699 12 10 21.333 10 28c0 8.66699 -4.5 15.334 -13.5 20.001s-23.167 8.66699 -42.5 12
c-7.33301 0.666992 -11 6.33398 -11 17.001c0 3.33301 0.333008 6.33301 1 9c0 2 0.333008 4.33301 1 7c14.667 -1.33301 31.834 -2.5 51.501 -3.5s37.834 -1.5 54.501 -1.5c15.333 0 31.5 0.5 48.5 1.5s33.833 2.16699 50.5 3.5c0 -2.66699 0.333008 -5 1 -7
c0 -2 0.166992 -3.66699 0.5 -5s0.5 -2.66602 0.5 -3.99902c0 -9.33301 -3.66699 -15 -11 -17c-23.333 -3.33301 -39.833 -7.5 -49.5 -12.5s-17.834 -13.5 -24.501 -25.5l-162 -287v-224c0 -14.667 5.5 -24.834 16.5 -30.501s29.5 -10.5 55.5 -14.5
c7.33301 -1.33301 11 -6.66602 11 -15.999c0 -1.33301 -0.166992 -3 -0.5 -5s-0.5 -3.66699 -0.5 -5c-0.666992 -2.66699 -1 -4.66699 -1 -6l-47 2c-13.333 0.666992 -27.5 1.33398 -42.5 2.00098s-28.167 1 -39.5 1s-24.333 -0.333008 -39 -1l-42 -2l-46 -2
c-0.666992 1.33301 -1 3.33301 -1 6c-0.666992 1.33301 -1 3 -1 5v5c0 9.33301 3.33301 14.666 10 15.999c26 5.33301 44.667 10.5 56 15.5s17 14.833 17 29.5v215z" />
    <glyph glyph-name="Z" unicode="Z" horiz-adv-x="608" 
d="M177 41l228.998 0.00195312c22 0 40 2.5 54 7.5s25.833 12.167 35.5 21.5s17.667 21.166 24 35.499s12.833 31.166 19.5 50.499c1.33301 5.33301 4 9.16602 8 11.499s7.33301 3.5 10 3.5c7.33301 0 14 -2 20 -6c-6 -29.333 -10.667 -57.333 -14 -84
s-5.66602 -48.667 -6.99902 -66c-0.666992 -7.33301 -3 -12.666 -7 -15.999s-9 -5 -15 -5c-12.667 0 -28.167 1 -46.5 3s-38.166 3 -59.499 3h-387c0 6.66699 1.33301 12.334 4 17.001l380 592h-223c-23.333 0 -42.166 -1.33301 -56.499 -4s-26.166 -7.66699 -35.499 -15
s-16.666 -17.666 -21.999 -30.999s-10 -31 -14 -53c-1.33301 -5.33301 -3.83301 -9.16602 -7.5 -11.499s-7.83398 -3.5 -12.501 -3.5c-3.33301 0 -6.83301 0.666992 -10.5 2s-6.83398 2.66602 -9.50098 3.99902c4.66699 28 8.16699 54.167 10.5 78.5
s4.16602 44.166 5.49902 59.499c0.666992 13.333 7.66699 20 21 20c12.667 0 27 -0.833008 43 -2.5s34.667 -2.5 56 -2.5h385c0 -8.66699 -1.33301 -15.334 -4 -20.001z" />
    <glyph glyph-name="bracketleft" unicode="[" horiz-adv-x="303" 
d="M107 -177v853h160c0 -3.33301 0.166992 -6.33301 0.5 -9s0.5 -5 0.5 -7c0 -8.66699 -1.5 -14.334 -4.5 -17.001s-7.16699 -4.33398 -12.5 -5.00098c-17.333 -1.33301 -31.166 -2.66602 -41.499 -3.99902s-18.166 -3.33301 -23.499 -6s-8.66602 -6 -9.99902 -10
s-2 -9.33301 -2 -16v-705c0 -6.66699 0.666992 -12.167 2 -16.5s4.66602 -7.66602 9.99902 -9.99902s13.166 -4.16602 23.499 -5.49902s24.166 -2.66602 41.499 -3.99902c5.33301 -0.666992 9.5 -2.33398 12.5 -5.00098s4.5 -8.33398 4.5 -17.001
c0 -2 -0.166992 -4.33301 -0.5 -7s-0.5 -5.66699 -0.5 -9h-160z" />
    <glyph glyph-name="backslash" unicode="\" horiz-adv-x="307" 
d="M32 663c14.667 7.33301 26.667 10.999 36 10.999c6 0 10.333 -1.16699 13 -3.5s4.66699 -5.16602 6 -8.49902l185 -694c-16 -6.66699 -28.333 -10 -37 -10c-10.667 0 -16.667 4.33301 -18 13l-185 692v0z" />
    <glyph glyph-name="bracketright" unicode="]" horiz-adv-x="293" 
d="M26 -177c0 3.33301 -0.166992 6.16602 -0.5 8.49902s-0.5 4.83301 -0.5 7.5c0 8.66699 1.5 14.334 4.5 17.001s7.16699 4.33398 12.5 5.00098c17.333 1.33301 31.166 2.66602 41.499 3.99902s18.166 3.16602 23.499 5.49902s8.66602 5.66602 9.99902 9.99902
s2 9.83301 2 16.5v706c0 6.66699 -0.666992 12 -2 16s-4.66602 7.16699 -9.99902 9.5s-13.166 4.33301 -23.499 6s-24.166 3.16699 -41.499 4.5c-5.33301 0.666992 -9.5 2.33398 -12.5 5.00098s-4.5 8.33398 -4.5 17.001c0 2 0.166992 4.33301 0.5 7s0.5 5.66699 0.5 9h160
v-854h-160z" />
    <glyph glyph-name="asciicircum" unicode="^" horiz-adv-x="493" 
d="M450 154c1.33301 -2.66699 2.49707 -5.16406 3.49707 -7.49707s2.16699 -4.83301 3.5 -7.5c-5.33301 -11.333 -20.666 -21 -45.999 -29c-4 5.33301 -7.83301 11 -11.5 17l-10.5 18l-144 276l-163 -311c-17.333 5.33301 -29.666 10.666 -36.999 15.999s-11 10.333 -11 15
c0 2 0.666992 4.33301 2 7l93.5 167.5l92.5 167.5c2.66699 4 5.5 7.66699 8.5 11s7.16699 5.33301 12.5 6c2 1.33301 4.66699 1.33301 8 0c2 -0.666992 3.83301 -1.33398 5.5 -2.00098s3.83398 -1.33398 6.50098 -2.00098z" />
    <glyph glyph-name="underscore" unicode="_" horiz-adv-x="403" 
d="M1 -121c-0.666992 4.66699 -1 8.83203 -1 12.499v10.5c-0 19.333 5.33301 29 16 29h385c0.666992 -4 1.16699 -7.83301 1.5 -11.5s0.5 -7.16699 0.5 -10.5c0 -11.333 -1.5 -19.166 -4.5 -23.499s-7.16699 -6.5 -12.5 -6.5h-385v0z" />
    <glyph glyph-name="grave" unicode="`" horiz-adv-x="500" 
d="M312 524c2.66699 -5.33301 4 -9.33398 4 -12.001c0 -7.33301 -5.33301 -13.666 -16 -18.999l-36 32c-10.667 9.33301 -21.167 18 -31.5 26s-21 15.833 -32 23.5l-35.5 24.5c-9.33301 5.33301 -14 13.333 -14 24c0 11.333 5.83301 22.333 17.5 33s27.5 16 47.5 16z" />
    <glyph glyph-name="a" unicode="a" horiz-adv-x="473" 
d="M452 27c7.33301 0 11.332 -7 11.999 -21c-17.333 -12 -39.333 -18 -66 -18c-14.667 0 -27.334 2.16699 -38.001 6.5s-19.667 10.166 -27 17.499s-13 15.666 -17 24.999s-6.66699 19 -8 29c-16.667 -30 -36.5 -50.5 -59.5 -61.5s-49.5 -16.5 -79.5 -16.5
c-13.333 0 -27.5 1.16699 -42.5 3.5s-29.167 7.16602 -42.5 14.499s-24.333 17.666 -33 30.999s-13 31 -13 53c0 24.667 5.83301 45.5 17.5 62.5s26.667 31 45 42s38.333 19.833 60 26.5s42.5 12.334 62.5 17.001c11.333 2 21.833 4.16699 31.5 6.5s18.167 4.83301 25.5 7.5
c9.33301 2.66699 15.166 6.33398 17.499 11.001s3.5 13.667 3.5 27c0 31.333 -6 57.166 -18 77.499s-33.333 30.5 -64 30.5c-11.333 0 -21 -1.33301 -29 -4s-14.667 -6.83398 -20 -12.501s-10 -13.167 -14 -22.5s-8 -20.333 -12 -33c-2 -7.33301 -6.5 -12.666 -13.5 -15.999
s-18.833 -7.33301 -35.5 -12c-4 -1.33301 -9 -2.66602 -15 -3.99902s-11 -2 -15 -2c-6.66699 0 -10 7 -10 21c0 14.667 5.66699 29.334 17 44.001s25.833 27.667 43.5 39s36.834 20.5 57.501 27.5s40.334 10.5 59.001 10.5c23.333 0 44.333 -2 63 -6s34.667 -11.333 48 -22
s23.5 -25 30.5 -43s10.5 -41.333 10.5 -70v-172c0 -23.333 0.833008 -40.166 2.5 -50.499s4.16699 -18.5 7.5 -24.5c4.66699 -9.33301 9.83398 -15.5 15.501 -18.5s11.5 -4.5 17.5 -4.5c7.33301 0 12.5 0.666992 15.5 2s6.16699 2 9.5 2zM300.999 222l-32 -5
c-17.333 -3.33301 -34.166 -7.33301 -50.499 -12s-30.833 -11.167 -43.5 -19.5s-22.834 -18.833 -30.501 -31.5s-11.5 -28.334 -11.5 -47.001c0 -25.333 6.5 -44.666 19.5 -57.999s29.167 -20 48.5 -20c12.667 0 25.167 2.83301 37.5 8.5s23 13.667 32 24
s16.333 22.5 22 36.5s8.5 29.333 8.5 46v78z" />
    <glyph glyph-name="b" unicode="b" horiz-adv-x="544" 
d="M175 80c16.667 -17.333 34.999 -31 54.999 -41s43 -15 69 -15c38 0 66.833 16 86.5 48s29.5 73 29.5 123c0 25.333 -2.83301 49.5 -8.5 72.5s-14 43.167 -25 60.5s-24.167 31 -39.5 41s-33 15 -53 15c-13.333 0 -26.666 -3.83301 -39.999 -11.5s-25.5 -17.5 -36.5 -29.5
s-20 -25.5 -27 -40.5s-10.5 -30.167 -10.5 -45.5v-177zM91.999 596c0 20 -3.50098 34.167 -10.501 42.5s-22.167 13.5 -45.5 15.5c-8.66699 1.33301 -13 6 -13 14c0 4 0.666992 8.66699 2 14c8.66699 0 20.834 0.5 36.501 1.5s28.5 2.16699 38.5 3.5
c15.333 2 29 4.66699 41 8s20.667 5 26 5c9.33301 0 14 -5 14 -15c0 -11.333 -1 -24.333 -3 -39s-3 -32.667 -3 -54v-250c24.667 32.667 49 56.167 73 70.5s53.333 21.5 88 21.5c22.667 0 44.5 -4.66699 65.5 -14s39.5 -23.166 55.5 -41.499s28.833 -40.833 38.5 -67.5
s14.5 -57 14.5 -91c0 -37.333 -7 -70.333 -21 -99s-31.333 -52.834 -52 -72.501s-43.334 -34.667 -68.001 -45s-47.334 -15.5 -68.001 -15.5c-25.333 0 -49.666 3 -72.999 9s-44.333 13.667 -63 23c-7.33301 -0.666992 -14.333 -2.66699 -21 -6s-12.667 -6.83301 -18 -10.5
l-14.5 -10c-4.33301 -3 -7.83301 -4.5 -10.5 -4.5c-5.33301 0 -10.333 1.33301 -15 4c0.666992 10.667 1.33398 20.167 2.00098 28.5l2 24.5c0.666992 8 1.16699 16.167 1.5 24.5s0.5 17.833 0.5 28.5v497z" />
    <glyph glyph-name="c" unicode="c" horiz-adv-x="435" 
d="M235 396c-31.333 0 -56.835 -13.6631 -76.502 -40.9961s-29.5 -64.333 -29.5 -111c0 -64.667 14.5 -115 43.5 -151s67.5 -54 115.5 -54c21.333 0 39.166 3.33301 53.499 10s26.833 13.334 37.5 20.001l7 4.5c2.66699 1.66699 5.33398 2.5 8.00098 2.5
c3.33301 0 7 -2.33301 11 -7s6.66699 -8.33398 8 -11.001c-6.66699 -8 -15 -16 -25 -24s-22 -15.5 -36 -22.5s-30.5 -12.667 -49.5 -17s-40.5 -6.5 -64.5 -6.5c-27.333 0 -53.166 4.5 -77.499 13.5s-45.666 22.5 -63.999 40.5s-32.833 40.5 -43.5 67.5s-16 58.5 -16 94.5
c0 34 6.5 65.167 19.5 93.5s29.667 52.5 50 72.5s43 35.667 68 47s49.5 17 73.5 17c24.667 0 47 -2.66699 67 -8s37 -12.333 51 -21s24.833 -18.834 32.5 -30.501s11.5 -23.834 11.5 -36.501c0 -4 -3.33301 -7.33301 -10 -10s-14.167 -4.83398 -22.5 -6.50098
s-16.333 -2.83398 -24 -3.50098s-12.167 -1 -13.5 -1c-8.66699 0 -15.5 4.16699 -20.5 12.5l-16.5 27c-6 9.66699 -14.167 18.667 -24.5 27s-24.833 12.5 -43.5 12.5z" />
    <glyph glyph-name="d" unicode="d" horiz-adv-x="546" 
d="M452 89c0 -8 0.666016 -14.834 1.99902 -20.501s4 -10.5 8 -14.5s9.5 -7.16699 16.5 -9.5s16.167 -4.16602 27.5 -5.49902c8.66699 -1.33301 13 -5.66602 13 -12.999c0 -4 -0.666992 -8.66699 -2 -14c-8.66699 0 -20.167 -0.5 -34.5 -1.5s-26.5 -2.16699 -36.5 -3.5
c-14.667 -2.66699 -27.5 -5.5 -38.5 -8.5s-19.167 -4.5 -24.5 -4.5c-9.33301 0 -14 5 -14 15v76l-28 -36.5c-9.33301 -11.667 -20.166 -22 -32.499 -31s-26.5 -16.167 -42.5 -21.5s-35.333 -8 -58 -8s-44.334 4.66699 -65.001 14s-39 23.166 -55 41.499
s-28.833 40.833 -38.5 67.5s-14.5 57 -14.5 91c0 36.667 7 69.5 21 98.5s31.333 53.333 52 73s43.167 34.667 67.5 45s46.833 15.5 67.5 15.5c25.333 0 47.833 -2.5 67.5 -7.5s39.167 -11.5 58.5 -19.5v189c0 20 -3.5 34.167 -10.5 42.5s-22.167 13.5 -45.5 15.5
c-8.66699 1.33301 -13 6 -13 14c0 4 0.666992 8.66699 2 14c8.66699 0 20.834 0.5 36.501 1.5s28.5 2.16699 38.5 3.5c15.333 2 29 4.66699 41 8s20.667 5 26 5c9.33301 0 14 -5 14 -15c0 -11.333 -1 -24.333 -3 -39s-3 -32.667 -3 -54v-503zM368.999 341.999
c-16.667 17.333 -34.998 31 -54.998 41s-42.667 15 -68 15c-38.667 0 -67.834 -16 -87.501 -48s-29.5 -73 -29.5 -123c0 -25.333 2.83301 -49.5 8.5 -72.5s14 -43.167 25 -60.5s24.333 -31 40 -41s33.167 -15 52.5 -15c13.333 0 26.666 4 39.999 12s25.5 18.167 36.5 30.5
s20 26.333 27 42s10.5 31.167 10.5 46.5v173z" />
    <glyph glyph-name="e" unicode="e" horiz-adv-x="465" 
d="M397 93c4.66699 4.66699 9.66797 7.00098 15.001 7.00098c6.66699 0 13 -5.66699 19 -17c-8.66699 -12 -18.667 -23.667 -30 -35s-24.833 -21.5 -40.5 -30.5s-33.5 -16.167 -53.5 -21.5s-43 -8 -69 -8c-26.667 0 -52 4.33301 -76 13s-45.167 22 -63.5 40
s-33 40.333 -44 67s-16.5 58 -16.5 94c0 34 6.5 65.333 19.5 94s29.833 53.167 50.5 73.5s43.5 36.166 68.5 47.499s49.167 17 72.5 17c62 0 107.167 -18 135.5 -54s42.5 -83 42.5 -141c0 -4 -2 -6 -6 -6l-290 -13c0 -26 3.66699 -50 11 -72s17.666 -41 30.999 -57
s29.5 -28.5 48.5 -37.5s40.5 -13.5 64.5 -13.5c21.333 0 41.833 5 61.5 15s36.167 22.667 49.5 38zM235.001 398.001c-33.333 0 -59.333 -13.001 -78 -39.001s-28 -60 -28 -102l189 9c10 0 15 4.33301 15 13c0 12.667 -2 26 -6 40s-10 26.833 -18 38.5
s-18.167 21.334 -30.5 29.001s-26.833 11.5 -43.5 11.5z" />
    <glyph glyph-name="f" unicode="f" horiz-adv-x="309" 
d="M97 380l-60 -0.00292969v18c0 7.33301 3.16699 11.833 9.5 13.5s13.166 3 20.499 4s14.166 3.33301 20.499 7s9.5 11.5 9.5 23.5v46c0 36.667 5.16699 68 15.5 94s23.5 47.5 39.5 64.5s33.833 29.5 53.5 37.5s38.834 12 57.501 12c22 0 41.833 -2.16699 59.5 -6.5
s32.834 -10.166 45.501 -17.499s22.5 -15.5 29.5 -24.5s10.5 -18.167 10.5 -27.5c0 -4 -2.83301 -7.83301 -8.5 -11.5s-12 -6.83398 -19 -9.50098s-13.833 -4.66699 -20.5 -6s-11.334 -2 -14.001 -2c-9.33301 0 -16.333 4 -21 12c-7.33301 14.667 -16.166 27.667 -26.499 39
s-25.833 17 -46.5 17c-24 0 -41.833 -9.83301 -53.5 -29.5s-17.5 -47.834 -17.5 -84.501v-127h118c0 -13.333 -1 -23.666 -3 -30.999s-7.66699 -11 -17 -11h-98v-306c0 -17.333 7.66699 -29.166 23 -35.499s40.333 -11.166 75 -14.499
c7.33301 -1.33301 11 -5.66602 11 -12.999c0 -2 -0.333008 -5 -1 -9s-1 -6.33301 -1 -7c-2 0 -7.83301 0.333008 -17.5 1s-21.167 1.33398 -34.5 2.00098s-27.666 1.16699 -42.999 1.5s-29.666 0.5 -42.999 0.5c-11.333 0 -22.833 -0.166992 -34.5 -0.5
s-22.834 -0.833008 -33.501 -1.5s-19.834 -1.33398 -27.501 -2.00098s-12.5 -1 -14.5 -1c0 0.666992 -0.333008 3 -1 7s-1 7 -1 9c0 6.66699 3 10.667 9 12c14.667 2.66699 26.667 6.5 36 11.5s14 12.833 14 23.5v322z" />
    <glyph glyph-name="g" unicode="g" horiz-adv-x="484" 
d="M94 21c-28.667 16.667 -42.9961 40.6709 -42.9961 72.0039c0 33.333 22 60.666 66 81.999c-18.667 11.333 -33.5 26.5 -44.5 45.5s-16.5 42.5 -16.5 70.5c0 18.667 4.5 36.667 13.5 54s21.167 32.666 36.5 45.999s32.833 23.833 52.5 31.5s40.5 11.5 62.5 11.5
c33.333 0 60 -4 80 -12s37.333 -18 52 -30l99 43c7.33301 -4.66699 12.666 -10.834 15.999 -18.501s5 -14.834 5 -21.501c0 -14.667 -5 -22 -15 -22l-36 1c-12.667 0 -28 -2 -46 -6c16 -20.667 24 -46 24 -76c0 -20.667 -4.66699 -39.667 -14 -57s-22 -32.166 -38 -44.499
s-35 -22 -57 -29s-45.333 -10.5 -70 -10.5c-14 0 -27.333 0.833008 -40 2.5s-24.667 4.5 -36 8.5c-17.333 -8 -29.333 -16 -36 -24s-10 -15.667 -10 -23c0 -5.33301 1.66699 -10.5 5 -15.5s9.5 -9.33301 18.5 -13s21.667 -6.66699 38 -9s37.166 -3.5 62.499 -3.5
c30 0 58.333 -2.33301 85 -7s50.167 -12.334 70.5 -23.001s36.333 -24.667 48 -42s17.5 -38.333 17.5 -63c0 -27.333 -5.5 -52 -16.5 -74s-26.333 -40.833 -46 -56.5s-43.334 -27.667 -71.001 -36s-57.834 -12.5 -90.501 -12.5c-62.667 0 -111.667 11.333 -147 34
s-53 59 -53 109c0 14.667 2.33301 28.167 7 40.5s10.5 23.5 17.5 33.5s15 18.667 24 26s17.5 13.333 25.5 18zM118.004 9.00391c-16 -15.333 -25.0029 -34.6689 -27.0029 -58.002c-0.666992 -5.33301 -1 -10.666 -1 -15.999v-17c0.666992 -14 4.33398 -28 11.001 -42
s16.334 -26.333 29.001 -37s28.334 -19.334 47.001 -26.001s40.334 -10 65.001 -10c46 0 79.5 10.167 100.5 30.5s31.5 45.5 31.5 75.5c0 12.667 -2.66699 24.334 -8 35.001s-14.333 19.834 -27 27.501s-29.334 13.667 -50.001 18s-46.334 6.5 -77.001 6.5
c-17.333 0 -34.166 1 -50.499 3s-30.833 5.33301 -43.5 10zM231.001 186.001c24.667 0 44.332 8 58.999 24s22 38 22 66c0 14.667 -1.5 29.167 -4.5 43.5s-8.16699 27.333 -15.5 39s-17.166 21.167 -29.499 28.5s-27.833 11 -46.5 11c-23.333 0 -41.833 -7.66699 -55.5 -23
s-20.5 -36.333 -20.5 -63c0 -15.333 1.5 -30.5 4.5 -45.5s8 -28.5 15 -40.5s16.333 -21.667 28 -29s26.167 -11 43.5 -11z" />
    <glyph glyph-name="h" unicode="h" horiz-adv-x="570" 
d="M187 335c2 1.33301 7.66797 7.33691 17.001 18.0039s21.5 22 36.5 34s32.167 22.833 51.5 32.5s40.666 14.5 63.999 14.5c16 0 31.333 -2.33301 46 -7s27.5 -12.334 38.5 -23.001s19.833 -24.334 26.5 -41.001s10 -37.334 10 -62.001v-244c0 -10 6 -17.5 18 -22.5
s25.667 -8.83301 41 -11.5c5.33301 -1.33301 8 -5.33301 8 -12c0 -4 -0.666992 -9.33301 -2 -16c-17.333 1.33301 -34.166 2.5 -50.499 3.5s-34.5 1.5 -54.5 1.5c-17.333 0 -34.833 -0.5 -52.5 -1.5s-35.167 -2.16699 -52.5 -3.5c-1.33301 6.66699 -2 12 -2 16
c0 6.66699 3 10.667 9 12c6 0.666992 12.167 2 18.5 4s12.166 4.33301 17.499 7s9.83301 5.83398 13.5 9.50098s5.5 8.16699 5.5 13.5v196c0 16.667 -1 32 -3 46s-5.83301 26.167 -11.5 36.5s-13.334 18.333 -23.001 24s-22.167 8.5 -37.5 8.5
c-16.667 0 -33 -2.83301 -49 -8.5s-30.167 -14 -42.5 -25s-22.166 -24.5 -29.499 -40.5s-11 -34.333 -11 -55v-182c0 -10 5.66699 -17.5 17 -22.5s24 -8.83301 38 -11.5c6 -1.33301 9 -5.33301 9 -12c0 -4 -0.666992 -9.33301 -2 -16c-17.333 1.33301 -34.333 2.5 -51 3.5
s-34.334 1.5 -53.001 1.5c-19.333 0 -37.666 -0.5 -54.999 -1.5s-34.333 -2.16699 -51 -3.5c-1.33301 6.66699 -2 12 -2 16c0 6.66699 2.66699 10.667 8 12c15.333 2.66699 29 6.5 41 11.5s18 12.833 18 23.5v538c0 21.333 -4 35.666 -12 42.999s-24 12.333 -48 15
c-8.66699 1.33301 -13 6 -13 14c0 4 0.666992 8.66699 2 14c8.66699 0 20.667 0.5 36 1.5s29.333 2.16699 42 3.5c15.333 2 29 4.66699 41 8s20.667 5 26 5c6 0 10 -1.33301 12 -4s3 -6.33398 3 -11.001c0 -11.333 -1 -24.5 -3 -39.5s-3 -32.5 -3 -52.5v-258z" />
    <glyph glyph-name="i" unicode="i" horiz-adv-x="273" 
d="M142 0c-11.333 0 -22.834 -0.166016 -34.501 -0.499023s-22.5 -0.833008 -32.5 -1.5s-18.667 -1.33398 -26 -2.00098s-12 -1 -14 -1c0 0.666992 -0.333008 3 -1 7s-1 7 -1 9c0 6.66699 3 10.667 9 12c17.333 3.33301 31.333 7.33301 42 12s16 12.334 16 23.001v272
c0 20 -3.5 34.333 -10.5 43s-22.167 14 -45.5 16c-8.66699 1.33301 -13 6 -13 14c0 3.33301 0.666992 7.66602 2 12.999c8.66699 0 20.834 0.5 36.501 1.5s28.5 2.16699 38.5 3.5c15.333 2.66699 29 5.5 41 8.5s20.667 4.5 26 4.5c9.33301 0 14 -5 14 -15
c0 -9.33301 -1 -20.5 -3 -33.5s-3 -30.167 -3 -51.5v-276c0 -10.667 5.16699 -18.334 15.5 -23.001s24.833 -8.66699 43.5 -12c5.33301 -1.33301 8 -5.33301 8 -12c0 -2 -0.166992 -5 -0.5 -9s-0.833008 -6.33301 -1.5 -7c-2 0 -6.5 0.333008 -13.5 1
s-15.5 1.33398 -25.5 2.00098s-20.833 1.16699 -32.5 1.5s-23.167 0.5 -34.5 0.5zM83.999 601.001c0 16 5.5 29.833 16.5 41.5s24.833 17.5 41.5 17.5c16 0 29.333 -5.83301 40 -17.5s16 -25.5 16 -41.5c0 -17.333 -5.33301 -31.333 -16 -42s-24 -16 -40 -16
c-16.667 0 -30.5 5.33301 -41.5 16s-16.5 24.667 -16.5 42z" />
    <glyph glyph-name="j" unicode="j" horiz-adv-x="269" 
d="M99 330c0 21.333 -3.83203 35.8311 -11.499 43.498s-24.167 12.834 -49.5 15.501c-9.33301 0 -14 4.66699 -14 14c0 3.33301 0.666992 7.66602 2 12.999c8.66699 0 21.667 0.5 39 1.5s31.333 2.16699 42 3.5c14.667 2.66699 28 5.5 40 8.5s20.667 4.5 26 4.5
c6 0 10 -1.33301 12 -4s3 -6.33398 3 -11.001c0 -9.33301 -1 -20.5 -3 -33.5s-3 -30.167 -3 -51.5v-234c0 -44 -1.5 -80.833 -4.5 -110.5s-10.333 -56.5 -22 -80.5s-29.167 -47.333 -52.5 -70s-55.666 -49 -96.999 -79c-2.66699 2 -5.33398 4.83301 -8.00098 8.5
s-4 7.83398 -4 12.501c0 2.66699 0.666992 4.83398 2 6.50098s2.66602 3.16699 3.99902 4.5c18 18 33.333 34.667 46 50s23 30.833 31 46.5s13.667 32.334 17 50.001s5 38.167 5 61.5v330zM82.001 600.998c0 16 5.5 29.833 16.5 41.5s25.167 17.5 42.5 17.5
c16 0 29.333 -5.83301 40 -17.5s16 -25.5 16 -41.5c0 -17.333 -5.33301 -31.333 -16 -42s-24 -16 -40 -16c-17.333 0 -31.5 5.33301 -42.5 16s-16.5 24.667 -16.5 42z" />
    <glyph glyph-name="k" unicode="k" horiz-adv-x="506" 
d="M187 58c0 -10 5.33398 -17.5 16.001 -22.5s23.667 -9.16699 39 -12.5c6 -1.33301 9 -5.33301 9 -12c0 -4 -0.666992 -9.33301 -2 -16c-17.333 1.33301 -34.166 2.5 -50.499 3.5s-33.833 1.5 -52.5 1.5c-19.333 0 -37.833 -0.5 -55.5 -1.5s-34.834 -2.16699 -51.501 -3.5
c-1.33301 6.66699 -2 12 -2 16c0 6.66699 2.66699 10.667 8 12c14 2.66699 27.333 6.5 40 11.5s19 12.833 19 23.5v538c0 21.333 -4 35.833 -12 43.5s-24 12.5 -48 14.5c-8.66699 1.33301 -13 6 -13 14c0 4 0.666992 8.66699 2 14c8.66699 0 20.667 0.5 36 1.5
s29.333 2.16699 42 3.5c15.333 2 29 4.66699 41 8s20.667 5 26 5c6 0 10 -1.33301 12 -4s3 -6.33398 3 -11.001c0 -11.333 -1 -24.5 -3 -39.5s-3 -32.5 -3 -52.5v-358l150 133c6 3.33301 9 8.33301 9 15c0 4.66699 -2.5 7.66699 -7.5 9s-10.5 2.5 -16.5 3.5
s-11.5 2.66699 -16.5 5s-7.5 6.5 -7.5 12.5c0 2.66699 0.666992 6.66699 2 12c4 0 15 -0.5 33 -1.5s37 -1.5 57 -1.5s38 0.5 54 1.5s26.333 1.5 31 1.5c0 -0.666992 0.5 -2.16699 1.5 -4.5s1.5 -4.83301 1.5 -7.5c0 -4 -1.16699 -7.66699 -3.5 -11s-5.83301 -5 -10.5 -5
c-15.333 -1.33301 -27.833 -3.83301 -37.5 -7.5s-16.5 -7.16699 -20.5 -10.5l-140 -126l162 -188c13.333 -16 26.333 -26.167 39 -30.5s24.667 -7.16602 36 -8.49902c6.66699 0 10 -4 10 -12c0 -2 -0.333008 -5 -1 -9s-1.33398 -7.33301 -2.00098 -10
c-45.333 2 -92 3 -140 3l-182 220h-1v-160z" />
    <glyph glyph-name="l" unicode="l" horiz-adv-x="281" 
d="M253 -5c-17.333 1.33301 -35.001 2.50098 -53.001 3.50098s-36 1.5 -54 1.5s-36.5 -0.5 -55.5 -1.5s-36.833 -2.16699 -53.5 -3.5c-1.33301 6.66699 -2 12 -2 16c0 6.66699 3 10.667 9 12c14.667 2.66699 28.334 6.5 41.001 11.5s19 12.833 19 23.5v538
c0 21.333 -4.16699 35.833 -12.5 43.5s-24.166 12.5 -47.499 14.5c-8.66699 1.33301 -13 6 -13 14c0 4 0.666992 8.66699 2 14c8.66699 0 20.667 0.5 36 1.5s29.333 2.16699 42 3.5c15.333 2 29 4.66699 41 8s20.667 5 26 5c6 0 10 -1.33301 12 -4s3 -6.33398 3 -11.001
c0 -11.333 -1 -24.5 -3 -39.5s-3 -32.5 -3 -52.5v-535c0 -10.667 6.16699 -18.5 18.5 -23.5s26.166 -8.83301 41.499 -11.5c5.33301 -1.33301 8 -5.33301 8 -12c0 -4 -0.666992 -9.33301 -2 -16z" />
    <glyph glyph-name="m" unicode="m" horiz-adv-x="832" 
d="M460 333c2.66699 2 8.66602 8.33496 17.999 19.002s21.5 22 36.5 34s32.333 23 52 33s40.834 15 63.501 15c40 0 68.333 -11.833 85 -35.5s25 -56.5 25 -98.5v-243c0 -10 6 -17.5 18 -22.5s25.333 -8.83301 40 -11.5c6 -1.33301 9 -5.33301 9 -12
c0 -4 -0.666992 -9.33301 -2 -16c-17.333 1.33301 -34.333 2.5 -51 3.5s-34.667 1.5 -54 1.5c-17.333 0 -35 -0.5 -53 -1.5s-35.333 -2.16699 -52 -3.5c-1.33301 6.66699 -2 12 -2 16c0 6.66699 3 10.667 9 12c6 0.666992 12.167 2 18.5 4s12.166 4.33301 17.499 7
s9.83301 5.83398 13.5 9.50098s5.5 8.16699 5.5 13.5v206c0 41.333 -5 69.166 -15 83.499s-26.333 21.5 -49 21.5c-17.333 0 -33.833 -2.83301 -49.5 -8.5s-29.5 -14 -41.5 -25s-21.667 -24.5 -29 -40.5s-11 -34.333 -11 -55v-182c0 -10 5.66699 -17.5 17 -22.5
s24 -8.83301 38 -11.5c6 -1.33301 9 -5.33301 9 -12c0 -4 -0.666992 -9.33301 -2 -16c-17.333 1.33301 -34.166 2.5 -50.499 3.5s-33.5 1.5 -51.5 1.5s-35.833 -0.5 -53.5 -1.5s-35.167 -2.16699 -52.5 -3.5c-1.33301 6.66699 -2 12 -2 16c0 6.66699 3 10.667 9 12
c12 2 24.167 5.5 36.5 10.5s18.5 12.833 18.5 23.5v206c0 41.333 -4.83301 69.166 -14.5 83.499s-25.834 21.5 -48.501 21.5c-17.333 0 -33.833 -2.83301 -49.5 -8.5s-29.667 -14 -42 -25s-22.166 -24.5 -29.499 -40.5s-11 -34.333 -11 -55v-182
c0 -10 5.83301 -17.5 17.5 -22.5s24.167 -8.83301 37.5 -11.5c6 -1.33301 9 -5.33301 9 -12c0 -4 -0.666992 -9.33301 -2 -16c-17.333 1.33301 -34.333 2.5 -51 3.5s-34.334 1.5 -53.001 1.5c-19.333 0 -37.666 -0.5 -54.999 -1.5s-34.333 -2.16699 -51 -3.5
c-1.33301 6.66699 -2 12 -2 16c0 6.66699 3 10.667 9 12c14.667 2.66699 28 6.5 40 11.5s18 12.833 18 23.5v272c0 20 -3.5 34.333 -10.5 43s-22.167 14 -45.5 16c-8.66699 1.33301 -13 6 -13 14c0 3.33301 0.666992 7.66602 2 12.999c8.66699 0 20.834 0.5 36.501 1.5
s28.5 2.16699 38.5 3.5c15.333 2.66699 29 5.5 41 8.5s20.667 4.5 26 4.5c9.33301 0 14 -5 14 -15c0 -9.33301 -1 -20.5 -3 -33.5s-3 -30.167 -3 -51.5c2 2 7.66699 8.33301 17 19s21.5 22 36.5 34s32.167 22.833 51.5 32.5s40.666 14.5 63.999 14.5
c34.667 0 60.5 -8.83301 77.5 -26.5s27.167 -42.5 30.5 -74.5z" />
    <glyph glyph-name="n" unicode="n" horiz-adv-x="565" 
d="M474 57c0 -10 6 -17.499 18 -22.499s25.333 -8.83301 40 -11.5c6 -1.33301 9 -5.33301 9 -12c0 -4 -0.666992 -9.33301 -2 -16c-17.333 1.33301 -34.333 2.5 -51 3.5s-34.667 1.5 -54 1.5c-18 0 -35.833 -0.5 -53.5 -1.5s-35.167 -2.16699 -52.5 -3.5
c-1.33301 6.66699 -2 12 -2 16c0 6.66699 3 10.667 9 12c14 2.66699 26.667 6.5 38 11.5s17 12.5 17 22.5v196c0 16.667 -1 32 -3 46s-5.83301 26.167 -11.5 36.5s-13.334 18.333 -23.001 24s-22.167 8.5 -37.5 8.5c-16.667 0 -33 -2.83301 -49 -8.5s-30.167 -14 -42.5 -25
s-22.166 -24.5 -29.499 -40.5s-11 -34.333 -11 -55v-182c0 -10 5.83301 -17.5 17.5 -22.5s24.167 -8.83301 37.5 -11.5c6 -1.33301 9 -5.33301 9 -12c0 -4 -0.666992 -9.33301 -2 -16c-17.333 1.33301 -34.333 2.5 -51 3.5s-34.334 1.5 -53.001 1.5
c-19.333 0 -37.666 -0.5 -54.999 -1.5s-34.333 -2.16699 -51 -3.5c-1.33301 6.66699 -2 12 -2 16c0 6.66699 3 10.667 9 12c14.667 2.66699 28 6.5 40 11.5s18 12.833 18 23.5v272c0 20 -3.5 34.333 -10.5 43s-22.167 14 -45.5 16c-8.66699 1.33301 -13 6 -13 14
c0 3.33301 0.666992 7.66602 2 12.999c8.66699 0 20.834 0.5 36.501 1.5s28.5 2.16699 38.5 3.5c15.333 2.66699 29 5.5 41 8.5s20.667 4.5 26 4.5c9.33301 0 14 -5 14 -15c0 -9.33301 -1 -20.5 -3 -33.5s-3 -30.167 -3 -51.5c28.667 32 56.167 56.667 82.5 74
s55.166 26 86.499 26c40.667 0 71.167 -11.833 91.5 -35.5s30.5 -56.5 30.5 -98.5v-243z" />
    <glyph glyph-name="o" unicode="o" horiz-adv-x="517" 
d="M36 211c0 30.667 5.83301 59.6699 17.5 87.0029s27.5 51 47.5 71s43.5 35.833 70.5 47.5s56.167 17.5 87.5 17.5c32.667 0 62.667 -5.5 90 -16.5s50.833 -26.167 70.5 -45.5s35 -42.833 46 -70.5s16.5 -57.834 16.5 -90.501c0 -31.333 -5.83301 -60.5 -17.5 -87.5
s-27.5 -50.5 -47.5 -70.5s-43.5 -35.833 -70.5 -47.5s-56.167 -17.5 -87.5 -17.5c-32.667 0 -62.667 5.5 -90 16.5s-50.833 26.167 -70.5 45.5s-35 42.666 -46 69.999s-16.5 57.666 -16.5 90.999zM130 244.003c0 -24.667 2.66699 -50.001 8 -76.001s13.5 -49.5 24.5 -70.5
s25.167 -38.333 42.5 -52s38.333 -20.5 63 -20.5c38 0 67.5 13.333 88.5 40s31.5 61 31.5 103c0 24.667 -2.5 50.5 -7.5 77.5s-13 51.667 -24 74s-25.333 40.833 -43 55.5s-39.5 22 -65.5 22c-35.333 0 -63.833 -12.167 -85.5 -36.5s-32.5 -63.166 -32.5 -116.499z" />
    <glyph glyph-name="p" unicode="p" horiz-adv-x="547" 
d="M178 81c16.667 -17.333 34.998 -31.167 54.998 -41.5s42.667 -15.5 68 -15.5c19.333 0 36.333 4.33301 51 13s26.834 20.5 36.501 35.5s17 33 22 54s7.5 43.833 7.5 68.5c0 25.333 -2.83301 49.5 -8.5 72.5s-14 43.167 -25 60.5s-24.333 31 -40 41s-33.167 15 -52.5 15
c-13.333 0 -26.666 -3.83301 -39.999 -11.5s-25.5 -17.5 -36.5 -29.5s-20 -25.5 -27 -40.5s-10.5 -30.167 -10.5 -45.5v-176zM93.998 333.999c0 18.667 -3.1709 31.9971 -9.50391 39.9971s-20.833 13 -43.5 15c-8.66699 1.33301 -13 5.66602 -13 12.999
c0 4 0.666992 8.66699 2 14c8.66699 0 20.5 0.5 35.5 1.5s27.5 2.5 37.5 4.5c14.667 2 27.834 4.5 39.501 7.5s20.167 4.5 25.5 4.5c8.66699 0 13 -5 13 -15c0 -8 -0.5 -17.5 -1.5 -28.5s-1.5 -27.167 -1.5 -48.5c20 26 42.5 47.833 67.5 65.5s55.833 26.5 92.5 26.5
c22.667 0 44.5 -4.66699 65.5 -14s39.5 -23.166 55.5 -41.499s28.833 -40.833 38.5 -67.5s14.5 -57 14.5 -91c0 -37.333 -7 -70.333 -21 -99s-31.333 -52.834 -52 -72.501s-43.167 -34.667 -67.5 -45s-46.833 -15.5 -67.5 -15.5c-21.333 0 -42.166 2 -62.499 6
s-41.5 11 -63.5 21v-181c0 -17.333 7.66699 -29.166 23 -35.499s40.333 -11.166 75 -14.499c7.33301 -1.33301 11 -5.66602 11 -12.999c0 -4 -0.666992 -9.33301 -2 -16c-15.333 1.33301 -36.333 2.5 -63 3.5s-51.667 1.5 -75 1.5c-17.333 0 -35.666 -0.5 -54.999 -1.5
s-37.666 -2.16699 -54.999 -3.5c-1.33301 6.66699 -2 12 -2 16c0 6.66699 3 10.667 9 12c14.667 3.33301 26.667 7.33301 36 12s14 12.334 14 23.001v516z" />
    <glyph glyph-name="q" unicode="q" horiz-adv-x="535" 
d="M369 342c-16.667 17.333 -34.998 31 -54.998 41s-42.667 15 -68 15c-19.333 0 -36.333 -4.33301 -51 -13s-26.834 -20.5 -36.501 -35.5s-17 -33 -22 -54s-7.5 -43.833 -7.5 -68.5c0 -25.333 2.83301 -49.5 8.5 -72.5s14 -43.167 25 -60.5s24.333 -31 40 -41
s33.167 -15 52.5 -15c13.333 0 26.666 4 39.999 12s25.5 18.167 36.5 30.5s20 26.333 27 42s10.5 31.167 10.5 46.5v173zM452.002 -182c0 -10.667 5.49805 -18.499 16.498 -23.499s23.833 -8.83301 38.5 -11.5c6 -1.33301 9 -5.33301 9 -12c0 -4 -0.666992 -9.33301 -2 -16
c-17.333 1.33301 -36.333 2.5 -57 3.5s-39.667 1.5 -57 1.5c-23.333 0 -45.666 -0.5 -66.999 -1.5s-39.333 -2.16699 -54 -3.5c-1.33301 6.66699 -2 12 -2 16c0 7.33301 3.33301 11.666 10 12.999c16 2 29.167 4.16699 39.5 6.5s18.666 5.33301 24.999 9
s10.833 8.16699 13.5 13.5s4 12.333 4 21v251l-28 -36.5c-9.33301 -11.667 -20.166 -22 -32.499 -31s-26.5 -16.167 -42.5 -21.5s-35.333 -8 -58 -8c-23.333 0 -45.333 4.5 -66 13.5s-39 22.333 -55 40s-28.667 39.834 -38 66.501s-14 58 -14 94
c0 36.667 6.83301 69.5 20.5 98.5s31 53.333 52 73s43.5 34.667 67.5 45s46.667 15.5 68 15.5c47.333 0 95.666 -11.333 144.999 -34c16 2.66699 27.833 7.83398 35.5 15.501s14.167 11.5 19.5 11.5c2.66699 0 5.33398 -0.333008 8.00098 -1s5 -1.33398 7 -2.00098
c-1.33301 -18.667 -2.66602 -36.334 -3.99902 -53.001s-2 -34.667 -2 -54v-499z" />
    <glyph glyph-name="r" unicode="r" horiz-adv-x="379" 
d="M321 433c19.333 0 33.666 -4.66797 42.999 -14.001s14 -19.666 14 -30.999c0 -4 -0.666992 -7.66699 -2 -11s-4.5 -6.83301 -9.5 -10.5s-12 -8 -21 -13s-21.5 -11.167 -37.5 -18.5c-6 7.33301 -13.167 13.666 -21.5 18.999s-17.5 8 -27.5 8
c-11.333 0 -21.666 -3.16699 -30.999 -9.5s-17.333 -15 -24 -26s-11.834 -23.667 -15.501 -38s-5.5 -29.166 -5.5 -44.499v-172c0 -14.667 7.66699 -25.5 23 -32.5s37.333 -12.5 66 -16.5c6.66699 -1.33301 10 -5.33301 10 -12c0 -4 -0.666992 -9.33301 -2 -16
c-7.33301 0.666992 -16.5 1.16699 -27.5 1.5s-22.5 0.833008 -34.5 1.5s-24.333 1.16699 -37 1.5s-24.334 0.5 -35.001 0.5c-18 0 -36.667 -0.5 -56 -1.5s-37.666 -2.16699 -54.999 -3.5c-1.33301 6.66699 -2 12 -2 16c0 6.66699 3 10.667 9 12
c15.333 2.66699 28.833 6.66699 40.5 12s17.5 13 17.5 23v254c0 14 -0.833008 25.667 -2.5 35s-4.5 16.833 -8.5 22.5s-9.83301 9.83398 -17.5 12.501s-17.5 4.66699 -29.5 6c-8.66699 1.33301 -13 5.66602 -13 12.999c0 4 0.666992 8.66699 2 14
c8.66699 0 20.834 0.5 36.501 1.5s28.5 2.16699 38.5 3.5c14.667 2.66699 27.5 5.5 38.5 8.5s19.167 4.5 24.5 4.5c9.33301 0 14 -5 14 -15v-67c21.333 23.333 42.833 42.833 64.5 58.5s46.167 23.5 73.5 23.5z" />
    <glyph glyph-name="s" unicode="s" horiz-adv-x="387" 
d="M306 311c-5.33301 0 -9.17285 1.16895 -11.5059 3.50195s-3.83301 4.83301 -4.5 7.5c-4.66699 27.333 -15.5 46.833 -32.5 58.5s-38.167 17.5 -63.5 17.5c-19.333 0 -36.5 -5.5 -51.5 -16.5s-22.5 -26.167 -22.5 -45.5c0 -17.333 6.83301 -31.833 20.5 -43.5
s38.5 -23.167 74.5 -34.5c19.333 -6 37.166 -12.667 53.499 -20s30.333 -16.166 42 -26.499s20.834 -23 27.501 -38s10 -32.833 10 -53.5c0 -17.333 -3.16699 -34 -9.5 -50s-16 -30 -29 -42s-29.333 -21.667 -49 -29s-43.167 -11 -70.5 -11
c-21.333 0 -45.166 2.5 -71.499 7.5s-50.166 13.5 -71.499 25.5c-1.33301 17.333 -2.5 35.5 -3.5 54.5s-1.5 38.167 -1.5 57.5h10c6.66699 0 12.334 -1.16699 17.001 -3.5s7.33398 -6.16602 8.00098 -11.499c2.66699 -28 13.5 -50.5 32.5 -67.5s45.5 -25.5 79.5 -25.5
c27.333 0 48.333 6.16699 63 18.5s22 29.166 22 50.499c0 22 -8 38.833 -24 50.5s-39.667 22.167 -71 31.5c-39.333 12 -70.166 27.667 -92.499 47s-33.5 47.666 -33.5 84.999c0 17.333 3.33301 33.666 10 48.999s16 28.666 28 39.999s26.667 20.333 44 27
s36.666 10 57.999 10c26.667 0 51.834 -3.5 75.501 -10.5s42.167 -14.5 55.5 -22.5c0.666992 -5.33301 1.33398 -11.833 2.00098 -19.5s1.16699 -15.667 1.5 -24l1 -25c0.333008 -8.33301 0.5 -15.833 0.5 -22.5z" />
    <glyph glyph-name="t" unicode="t" horiz-adv-x="307" 
d="M270 59c3.33301 3.33301 6.16797 5.33301 8.50098 6s4.16602 1 5.49902 1c6 0 11.333 -4.33301 16 -13c-17.333 -19.333 -36 -35 -56 -47s-41.333 -18 -64 -18c-13.333 0 -26 1.5 -38 4.5s-22.333 8.83301 -31 17.5s-15.5 20.5 -20.5 35.5s-7.5 34.5 -7.5 58.5v276h-60
v11c0 4.66699 0.833008 9 2.5 13s5.16699 6 10.5 6c18 0 32.667 4.66699 44 14s20.666 21.333 27.999 36c8 16 15 31 21 45s12.667 21 20 21h18v-104h117c0 -14 -1.5 -24.5 -4.5 -31.5s-8.5 -10.5 -16.5 -10.5h-96v-248c0 -21.333 1 -38.5 3 -51.5s5 -23 9 -30
s8.66699 -11.5 14 -13.5s11.333 -3 18 -3c11.333 0 21.833 2.5 31.5 7.5s18.834 10.833 27.501 17.5z" />
    <glyph glyph-name="u" unicode="u" horiz-adv-x="559" 
d="M90 330c0 22 -3.16602 36.833 -9.49902 44.5s-20.833 12.5 -43.5 14.5c-8.66699 1.33301 -13 5.66602 -13 12.999c0 4 0.666992 8.66699 2 14c8.66699 0 20.167 0.5 34.5 1.5s26.5 2.5 36.5 4.5c14.667 2 27.5 4.5 38.5 7.5s19.167 4.5 24.5 4.5c9.33301 0 14 -5 14 -15
v-250c0 -16.667 1 -32 3 -46s5.66699 -26.167 11 -36.5s13 -18.333 23 -24s22.667 -8.5 38 -8.5c16.667 0 33 2.83301 49 8.5s30.167 14 42.5 25s22.166 24.5 29.499 40.5s11 34.667 11 56v146c0 21.333 -3.16699 36 -9.5 44s-21.166 13 -44.499 15
c-8.66699 1.33301 -13 5.66602 -13 12.999c0 4 0.666992 8.66699 2 14c8.66699 0 20.167 0.5 34.5 1.5s26.833 2.5 37.5 4.5c14.667 2 27.334 4.5 38.001 7.5s18.667 4.5 24 4.5c9.33301 0 14 -5 14 -15v-325c0 -11.333 0.666992 -20.5 2 -27.5s4 -12.667 8 -17
s9.5 -7.66602 16.5 -9.99902s16.167 -3.83301 27.5 -4.5c8.66699 -1.33301 13 -5.66602 13 -12.999c0 -4 -0.666992 -8.66699 -2 -14c-12.667 0 -26 -1 -40 -3s-27.333 -4 -40 -6s-23.834 -4 -33.501 -6s-16.5 -3 -20.5 -3c-9.33301 0 -14 5 -14 15v83
c-2 -2 -7.66699 -8.33301 -17 -19s-21.5 -22 -36.5 -34s-32.333 -22.833 -52 -32.5s-40.834 -14.5 -63.501 -14.5c-40.667 0 -71.167 11.667 -91.5 35s-30.5 56.333 -30.5 99v208z" />
    <glyph glyph-name="v" unicode="v" horiz-adv-x="476" 
d="M267 109c32 79.333 55.8311 140.334 71.498 183.001s23.5 69.334 23.5 80.001c0 6.66699 -2.16699 12.167 -6.5 16.5s-14.833 7.83301 -31.5 10.5c-8.66699 0.666992 -13 5 -13 13c0 1.33301 0.333008 3.33301 1 6s1.33398 5 2.00098 7c26 -2 53.667 -3 83 -3
c15.333 0 28.833 0.166992 40.5 0.5s22.834 1.16602 33.501 2.49902c2 -5.33301 3 -9.66602 3 -12.999c0 -4 -1.16699 -6.83301 -3.5 -8.5l-9.5 -6.5c-12 -7.33301 -23.667 -14 -35 -20s-19.666 -15.667 -24.999 -29l-145 -358c-4 -1.33301 -9 -2 -15 -2
c-7.33301 0 -12.5 3.16699 -15.5 9.5s-7.83301 17.166 -14.5 32.499l-137 318c-4 10 -7.66699 17.833 -11 23.5s-7 10.167 -11 13.5s-9 5.83301 -15 7.5s-13.667 3.16699 -23 4.5c-8.66699 0.666992 -13 5.66699 -13 15c0 3.33301 1 7.66602 3 12.999
c16.667 -1.33301 32.334 -2.16602 47.001 -2.49902s31.667 -0.5 51 -0.5c21.333 0 40.166 0.166992 56.499 0.5s33.166 1.16602 50.499 2.49902c2 -4 3 -8.33301 3 -13c0 -8 -4.33301 -12.333 -13 -13c-16 -2.66699 -26.5 -5.5 -31.5 -8.5s-7.5 -7.16699 -7.5 -12.5
c0 -3.33301 2 -11.5 6 -24.5s10.333 -29.833 19 -50.5z" />
    <glyph glyph-name="w" unicode="w" horiz-adv-x="722" 
d="M526 109l30.002 76.0039l29.5 74.5c9 23.667 16.333 45.334 22 65.001s8.5 35.5 8.5 47.5c0 6 -2.83301 10.5 -8.5 13.5s-11.834 5.5 -18.501 7.5s-12.834 4.33301 -18.501 7s-8.5 6.66699 -8.5 12c0 4.66699 1 9 3 13c28 -2 56 -3 84 -3
c13.333 0 25.333 0.166992 36 0.5s21.667 1.16602 33 2.49902c1.33301 -2 2.16602 -4.33301 2.49902 -7s0.5 -4.66699 0.5 -6c0 -8.66699 -4.33301 -13.334 -13 -14.001c-7.33301 -1.33301 -13.5 -2.83301 -18.5 -4.5s-9.5 -4.16699 -13.5 -7.5s-7.5 -8 -10.5 -14
s-6.5 -14 -10.5 -24l-139 -358c-5.33301 -1.33301 -10.666 -2 -15.999 -2s-9.5 1.66699 -12.5 5s-7.5 12.666 -13.5 27.999l-112 272l-118 -303c-6.66699 -1.33301 -12.334 -2 -17.001 -2c-7.33301 0 -13.166 4.5 -17.499 13.5s-9.16602 19.833 -14.499 32.5l-129 314
c-4 10 -7.66699 18 -11 24s-6.83301 10.667 -10.5 14s-8 5.66602 -13 6.99902s-10.833 2.66602 -17.5 3.99902c-8.66699 2 -13 7 -13 15c0 4.66699 1 9 3 13c13.333 -1.33301 27.666 -2.16602 42.999 -2.49902s31 -0.5 47 -0.5h34c14.667 0 28.334 0.333008 41.001 1l39 2
c1.33301 -2 2.16602 -4.33301 2.49902 -7s0.5 -4.66699 0.5 -6c0 -8 -4.33301 -12.333 -13 -13c-30.667 -4.66699 -46 -12 -46 -22c0 -8.66699 8 -33.334 24 -74.001l77 -193l120 313c2.66699 7.33301 6.66699 11 12 11c2 0 5 -0.666992 9 -2z" />
    <glyph glyph-name="x" unicode="x" horiz-adv-x="502" 
d="M82 367c-7.33301 9.33301 -14.832 16.166 -22.499 20.499s-18.834 7.5 -33.501 9.5c-8.66699 1.33301 -13 6 -13 14c0 1.33301 0.166992 3.5 0.5 6.5s1.16602 5.5 2.49902 7.5c16.667 -1.33301 33.167 -2.16602 49.5 -2.49902s34.5 -0.5 54.5 -0.5
c41.333 0 78.666 1 111.999 3c0.666992 -2 1.33398 -4.16699 2.00098 -6.5s1 -4.16602 1 -5.49902c0 -9.33301 -4.33301 -14 -13 -14c-17.333 -1.33301 -28.833 -3.16602 -34.5 -5.49902s-8.5 -6.16602 -8.5 -11.499c0 -8 5.33301 -18.333 16 -31l74 -93l71 101
c7.33301 11.333 11 19.333 11 24c0 4 -2.16699 7.16699 -6.5 9.5s-13.5 4.16602 -27.5 5.49902c-8.66699 0 -13 5 -13 15c0 1.33301 0.166992 3.16602 0.5 5.49902s1.16602 4.5 2.49902 6.5c26 -2 54.333 -3 85 -3c26.667 0 52 1 76 3c2 -4 3 -8.33301 3 -13
c0 -8.66699 -4.33301 -13.334 -13 -14.001c-16 -2 -29.5 -5.33301 -40.5 -10s-21.167 -13.667 -30.5 -27l-94 -133l121 -154c14 -17.333 26.333 -29.333 37 -36s23 -11 37 -13c5.33301 -0.666992 8 -5.33398 8 -14.001c0 -4 -0.666992 -9.33301 -2 -16
c-18.667 1.33301 -38.167 2.5 -58.5 3.5s-38.833 1.5 -55.5 1.5c-16 0 -34 -0.5 -54 -1.5s-39.667 -2.16699 -59 -3.5c-1.33301 6.66699 -2 12 -2 16c0 8 3.33301 12.333 10 13c15.333 2.66699 26.833 5.5 34.5 8.5s11.5 7.83301 11.5 14.5c0 3.33301 -1.5 7 -4.5 11
l-9.5 13l-82 108l-68 -101c-4 -6 -7.16699 -11 -9.5 -15s-3.5 -7.66699 -3.5 -11c0 -8 4.5 -13.833 13.5 -17.5s22.167 -7.16699 39.5 -10.5c6.66699 -1.33301 10 -5.66602 10 -12.999c0 -4 -0.666992 -9.33301 -2 -16c-17.333 1.33301 -33.666 2.5 -48.999 3.5
s-31.333 1.5 -48 1.5c-15.333 0 -31.333 -0.5 -48 -1.5s-33.667 -2.16699 -51 -3.5c-1.33301 6.66699 -2 12 -2 16c0 7.33301 3 11.666 9 12.999c15.333 3.33301 30.833 7.83301 46.5 13.5s28.834 15.834 39.501 30.501l100 140z" />
    <glyph glyph-name="y" unicode="y" horiz-adv-x="486" 
d="M272 109c10 25.333 21.0029 51.501 33.0029 78.501l33.5 76.5c10.333 24 18.833 45.667 25.5 65s10 33.666 10 42.999c0 6 -2.66699 10.5 -8 13.5s-11.166 5.66699 -17.499 8s-12.166 4.66602 -17.499 6.99902s-8 6.16602 -8 11.499c0 1.33301 0.333008 3.33301 1 6
s1.33398 5 2.00098 7c26 -2 53.667 -3 83 -3c15.333 0 28.666 0.166992 39.999 0.5s22 1.16602 32 2.49902c1.33301 -2 2.16602 -4.33301 2.49902 -7s0.5 -4.66699 0.5 -6c0 -7.33301 -4.33301 -12 -13 -14c-10 -2 -17.833 -4 -23.5 -6s-10.334 -4.66699 -14.001 -8
s-7 -7.66602 -10 -12.999s-6.5 -13 -10.5 -23l-205 -484c-13.333 -32 -33.333 -57.333 -60 -76s-55.334 -28 -86.001 -28c-5.33301 0 -9.16602 1.5 -11.499 4.5s-3.5 6.5 -3.5 10.5c0 7.33301 1 15.166 3 23.499s4.66699 16 8 23s7.16602 12.667 11.499 17
s8.83301 6.5 13.5 6.5c5.33301 0 10.166 -0.5 14.499 -1.5s9.16602 -1.5 14.499 -1.5c18 0 31.333 3.5 40 10.5s16.334 18.167 23.001 33.5l51 119l-154 343c-4.66699 9.33301 -8.66699 16.833 -12 22.5s-7 10.334 -11 14.001s-8.66699 6.33398 -14 8.00098
s-12.333 3.16699 -21 4.5c-8.66699 2 -13 7 -13 15c0 1.33301 0.166992 3.33301 0.5 6s1.16602 5 2.49902 7c13.333 -1.33301 26.833 -2.16602 40.5 -2.49902s29.167 -0.5 46.5 -0.5h29c16 0 31 0.166992 45 0.5s28 1.16602 42 2.49902
c1.33301 -2 2.16602 -4.33301 2.49902 -7s0.5 -4.66699 0.5 -6c0 -8 -4.33301 -12.333 -13 -13c-15.333 -2.66699 -25.666 -5.5 -30.999 -8.5s-8 -7.16699 -8 -12.5c0 -3.33301 2 -11.666 6 -24.999s10.667 -30 20 -50z" />
    <glyph glyph-name="z" unicode="z" horiz-adv-x="426" 
d="M144 385c-22 0 -37.999 -4.83203 -47.999 -14.499s-17.333 -29.167 -22 -58.5c-1.33301 -6 -6 -9 -14 -9c-4.66699 0 -8.33398 1 -11.001 3c1.33301 16.667 2.33301 33 3 49s1.33398 29.667 2.00098 41c0.666992 7.33301 2.16699 13.5 4.5 18.5s6.83301 7.5 13.5 7.5h311
c1.33301 -2.66699 2 -5 2 -7c0 -1.33301 -0.333008 -2.83301 -1 -4.5s-2.66699 -4.83398 -6 -9.50098l-230 -364h151c18 0 32.167 6.33301 42.5 19s19.166 32 26.499 58c2 6.66699 7 10 15 10c1.33301 0 3.33301 -0.333008 6 -1s4.66699 -1.33398 6 -2.00098l-10 -113
c-0.666992 -5.33301 -2.16699 -8.66602 -4.5 -9.99902s-5.83301 -2 -10.5 -2c-4 0 -9.5 0.166992 -16.5 0.5s-13.833 0.833008 -20.5 1.5c-10.667 0.666992 -22 1.16699 -34 1.5s-23 0.5 -33 0.5h-231c-0.666992 0.666992 -1 2.66699 -1 6c0 1.33301 0.333008 3 1 5
s2.66699 5.33301 6 10l233 364h-130z" />
    <glyph glyph-name="braceleft" unicode="{" horiz-adv-x="315" 
d="M147 250c30.667 -11.333 52.001 -28.167 64.001 -50.5s18 -51.5 18 -87.5c0 -23.333 -1.83301 -49.166 -5.5 -77.499s-8.83398 -59.833 -15.501 -94.5c-2 -9.33301 -3 -18.333 -3 -27c0 -23.333 7 -39 21 -47s31 -13.333 51 -16c9.33301 -0.666992 14 -5 14 -13
c0 -2.66699 -0.666992 -7.33398 -2 -14.001c-19.333 0 -38 1.16699 -56 3.5s-34 7 -48 14s-25.333 16.833 -34 29.5s-13 29.667 -13 51c0 4 0.166992 8 0.5 12s0.833008 7.66699 1.5 11l14.5 104c4.33301 30.667 6.5 57.334 6.5 80.001c0 30.667 -6.33301 54.667 -19 72
s-36.667 27.666 -72 30.999v33c35.333 3.33301 59.333 13.833 72 31.5s19 42.167 19 73.5c0 23.333 -2.16699 50.5 -6.5 81.5l-14.5 104.5c-0.666992 3.33301 -1.16699 7.33301 -1.5 12s-0.5 8.33398 -0.5 11.001c0 35.333 13.667 60.666 41 75.999
s63.666 22.666 108.999 21.999c0.666992 -3.33301 1 -7.33301 1 -12c0 -9.33301 -4 -14.333 -12 -15c-10 -1.33301 -19.333 -3.16602 -28 -5.49902s-16.167 -5.83301 -22.5 -10.5s-11.5 -10.667 -15.5 -18s-6 -17 -6 -29c0 -9.33301 1 -18.333 3 -27
c6.66699 -34.667 11.834 -66 15.501 -94s5.5 -53.667 5.5 -77c0 -36 -6 -65 -18 -87s-33.333 -38.667 -64 -50v-1z" />
    <glyph glyph-name="bar" unicode="|" horiz-adv-x="252" 
d="M152 -239c-5.33301 -1.33301 -9.83301 -1.99902 -13.5 -1.99902h-10.5c-11.333 0 -18.833 1.66699 -22.5 5s-5.5 7.33301 -5.5 12v922c8.66699 2 16.667 3 24 3c11.333 0 18.833 -1.83301 22.5 -5.5s5.5 -7.83398 5.5 -12.501v-922z" />
    <glyph glyph-name="braceright" unicode="}" horiz-adv-x="315" 
d="M167 251c-30.667 11.333 -51.9961 28.1699 -63.9961 50.5029s-18 51.5 -18 87.5c0 23.333 1.83301 49.166 5.5 77.499s8.83398 59.833 15.501 94.5c2 8.66699 3 17.667 3 27c0 12 -1.83301 21.667 -5.5 29s-8.83398 13.333 -15.501 18s-14.334 8.16699 -23.001 10.5
s-18 4.16602 -28 5.49902c-9.33301 0.666992 -14 5 -14 13c0 2.66699 0.666992 7.33398 2 14.001c19.333 0 38 -1.16699 56 -3.5s34 -7 48 -14s25.333 -16.833 34 -29.5s13 -29.667 13 -51c0 -4 -0.166992 -8 -0.5 -12s-0.833008 -7.66699 -1.5 -11l-14.5 -104
c-4.33301 -30.667 -6.5 -57.334 -6.5 -80.001c0 -30.667 6.33301 -54.667 19 -72s36.667 -27.666 72 -30.999v-33c-35.333 -3.33301 -59.333 -14 -72 -32s-19 -42.333 -19 -73c0 -23.333 2.16699 -50.5 6.5 -81.5l14.5 -104.5c0.666992 -3.33301 1.16699 -7.33301 1.5 -12
s0.5 -8.33398 0.5 -11.001c0 -35.333 -13.833 -60.833 -41.5 -76.5s-63.834 -22.834 -108.501 -21.501c-0.666992 3.33301 -1 7.33301 -1 12c0 5.33301 1 9 3 11s5 3.33301 9 4c19.333 2.66699 36.166 8 50.499 16s21.5 23.667 21.5 47c0 8.66699 -1 17.667 -3 27
c-6.66699 34.667 -11.834 66 -15.501 94s-5.5 53.667 -5.5 77c0 36 6 65 18 87s33.333 38.667 64 50v1z" />
    <glyph glyph-name="asciitilde" unicode="~" horiz-adv-x="560" 
d="M390 219c12 0 25.999 4.83105 41.999 14.498s33.667 26.5 53 50.5c10 -5.33301 17.167 -11.166 21.5 -17.499s6.5 -12.166 6.5 -17.499c0 -6 -1.33301 -10.667 -4 -14c-19.333 -25.333 -39.666 -43.666 -60.999 -54.999s-40.333 -17 -57 -17c-18.667 0 -39 3.5 -61 10.5
s-45.667 17.167 -71 30.5c-19.333 9.33301 -36.333 16.5 -51 21.5s-27.667 7.5 -39 7.5c-6 0 -12 -0.833008 -18 -2.5s-12.667 -4.66699 -20 -9s-15.5 -10.666 -24.5 -18.999s-19.5 -19.5 -31.5 -33.5c-11.333 5.33301 -19.166 11.166 -23.499 17.499
s-6.5 12.166 -6.5 17.499c0 4.66699 1.66699 8.66699 5 12c23.333 28 44.666 47.333 63.999 58s37.333 16 54 16c15.333 0 32.5 -3.16699 51.5 -9.5s42.167 -16.5 69.5 -30.5c42 -20.667 75.667 -31 101 -31z" />
    <glyph glyph-name="exclamdown" unicode="&#xa1;" horiz-adv-x="239" 
d="M175 -226c-21.333 -8.66699 -42.001 -13.001 -62.001 -13.001c-20.667 0 -34.5 3.5 -41.5 10.5s-10.5 15.167 -10.5 24.5c0 4 0.333008 8 1 12s1.33398 7.66699 2.00098 11c9.33301 60.667 17 128.834 23 204.501s11.333 152.167 16 229.5
c5.33301 1.33301 9.33301 2 12 2c9.33301 0 15.5 -1.83301 18.5 -5.5s4.83301 -7.5 5.5 -11.5zM183.999 368.999c0 -17.333 -6.33301 -32.5 -19 -45.5s-28 -19.5 -46 -19.5c-17.333 0 -32 6.5 -44 19.5s-18 28.167 -18 45.5c0 18.667 6 34.167 18 46.5s26.667 18.5 44 18.5
c18 0 33.333 -6.16699 46 -18.5s19 -27.833 19 -46.5z" />
    <glyph glyph-name="cent" unicode="&#xa2;" horiz-adv-x="508" 
d="M333 61c21.333 0 39.499 3.16895 54.499 9.50195s27.167 13.166 36.5 20.499c1.33301 1.33301 3.5 2.83301 6.5 4.5s5.83301 2.5 8.5 2.5c3.33301 0 7.16602 -2.5 11.499 -7.5s6.83301 -8.83301 7.5 -11.5c-12 -13.333 -29.5 -27.166 -52.5 -41.499
s-53.167 -23.166 -90.5 -26.499v-67c-4 -1.33301 -7.66699 -2 -11 -2h-9c-10 0 -16.667 1.83301 -20 5.5s-5 7.5 -5 11.5v51c-27.333 0.666992 -52.5 5.83398 -75.5 15.501s-43.167 23.5 -60.5 41.5s-30.833 40.167 -40.5 66.5s-14.5 57.166 -14.5 92.499
c0 31.333 5.66699 60.333 17 87s26 50 44 70s38.333 36.167 61 48.5s45.667 20.166 69 23.499v63c4 0.666992 8.16699 1.16699 12.5 1.5s7.83301 0.5 10.5 0.5c10 0 16.167 -1.83301 18.5 -5.5s3.5 -7.83398 3.5 -12.501v-47c22 -1.33301 41.667 -5 59 -11
s32 -13.333 44 -22s21.167 -18.334 27.5 -29.001s9.5 -22 9.5 -34c0 -4 -3.16699 -7.33301 -9.5 -10s-13.5 -4.66699 -21.5 -6s-15.667 -2.33301 -23 -3s-11.666 -1 -12.999 -1c-7.33301 0 -13.166 3 -17.499 9s-8.83301 13 -13.5 21s-10.167 16 -16.5 24
s-14.833 14 -25.5 18v-350h18zM171.999 266.002c0 -50 8.33301 -91.667 25 -125s41 -56.333 73 -69v345c-29.333 -2 -53 -16.667 -71 -44s-27 -63 -27 -107z" />
    <glyph glyph-name="sterling" unicode="&#xa3;" horiz-adv-x="535" 
d="M65 302c-0.666992 3.33301 -1.16309 6.50391 -1.49609 9.50391s-0.5 5.83301 -0.5 8.5c0 9.33301 1.5 15.666 4.5 18.999s7.16699 5 12.5 5h53c-2.66699 13.333 -4.83398 26.333 -6.50098 39s-2.5 25 -2.5 37c0 38 5 70.667 15 98s23.5 50 40.5 68s36.333 31.333 58 40
s44.167 13 67.5 13c18.667 0 36.167 -1.83301 52.5 -5.5s30.5 -8.5 42.5 -14.5s21.5 -12.5 28.5 -19.5s10.5 -13.833 10.5 -20.5c0 -3.33301 -1.66699 -7 -5 -11s-7.33301 -7.83301 -12 -11.5s-9.5 -7.16699 -14.5 -10.5s-8.83301 -5.66602 -11.5 -6.99902
c-5.33301 -2 -11 -3 -17 -3s-10 1.33301 -12 4c-15.333 21.333 -30.5 36.166 -45.5 44.499s-28.833 12.5 -41.5 12.5c-23.333 0 -41.166 -9.33301 -53.499 -28s-18.5 -50.667 -18.5 -96c0 -21.333 2.16699 -43 6.5 -65s8.83301 -43.333 13.5 -64h151
c0.666992 -3.33301 1 -6.5 1 -9.5v-8.5c0 -16 -5.66699 -24 -17 -24h-127c2 -12 3 -23.333 3 -34c0 -32 -7 -62 -21 -90s-33 -54 -57 -78c21.333 0 40.833 -3 58.5 -9s34.167 -12.833 49.5 -20.5s30.333 -14.5 45 -20.5s29.667 -9 45 -9c19.333 0 32.666 3.66699 39.999 11
s11 16.666 11 27.999c0 8 -1.83301 16.167 -5.5 24.5s-5.5 14.833 -5.5 19.5s2.33301 9.5 7 14.5s10.5 9.5 17.5 13.5s14.167 7.33301 21.5 10s13.666 4 18.999 4c7.33301 0 12.666 -4.66699 15.999 -14s5 -19 5 -29c0 -18 -4 -35.833 -12 -53.5
s-19.167 -33.334 -33.5 -47.001s-31.333 -24.834 -51 -33.501s-40.834 -13 -63.501 -13c-19.333 0 -37.666 4 -54.999 12s-33.833 16.667 -49.5 26l-44.5 26c-14 8 -27.333 12 -40 12c-10 0 -19.333 -4.83301 -28 -14.5s-16 -22.167 -22 -37.5
c-10 0 -17.167 1.66699 -21.5 5s-6.5 7.66602 -6.5 12.999c0 13.333 4.83301 25.5 14.5 36.5s20.167 23.667 31.5 38s21.833 31.333 31.5 51s14.5 44.834 14.5 75.501c0 14 -0.833008 27.833 -2.5 41.5s-3.83398 27.5 -6.50098 41.5h-76v0z" />
    <glyph glyph-name="currency" unicode="&#xa4;" horiz-adv-x="575" 
d="M105 334c0 21.333 3.5 41.4951 10.5 60.4951s16.5 36.167 28.5 51.5l-54 54c14 18.667 24.667 28 32 28c4 0 7.66699 -1.66699 11 -5l45 -44c15.333 11.333 31.833 20.166 49.5 26.499s36.834 9.5 57.501 9.5c20 0 39.167 -3.16699 57.5 -9.5
s35.166 -15.166 50.499 -26.499l56 56c18 -14 27 -25 27 -33c0 -3.33301 -1.66699 -6.66602 -5 -9.99902l-45 -45c12.667 -15.333 22.5 -32.666 29.5 -51.999s10.5 -39.666 10.5 -60.999s-3.5 -41.166 -10.5 -59.499s-16.167 -35.166 -27.5 -50.499l56 -55
c-14 -18.667 -25.333 -28 -34 -28c-2.66699 0 -5.66699 1.66699 -9 5l-45 45c-15.333 -11.333 -32.5 -20.333 -51.5 -27s-38.833 -10 -59.5 -10c-42.667 0 -79.667 12.667 -111 38l-57 -57c-10 7.33301 -17 13.833 -21 19.5s-6 10.5 -6 14.5s1.33301 7.33301 4 10l47 47
c-24 31.333 -36 67.333 -36 108zM272 471.995c-12 0 -24.333 -2.49902 -37 -7.49902s-24.167 -12.667 -34.5 -23s-18.833 -23.333 -25.5 -39s-10 -33.834 -10 -54.501s3.16699 -40.167 9.5 -58.5s15 -34.5 26 -48.5s24.167 -25 39.5 -33s32 -12 50 -12
c34 0 61.833 11 83.5 33s32.5 52.667 32.5 92c0 20 -2.66699 39.167 -8 57.5s-13.5 34.5 -24.5 48.5s-25 25 -42 33s-36.833 12 -59.5 12z" />
    <glyph glyph-name="yen" unicode="&#xa5;" horiz-adv-x="526" 
d="M78 271c-0.666992 3.33301 -0.999023 6.5 -0.999023 9.5v7.5c0 9.33301 1.33301 15.5 4 18.5s6.66699 4.5 12 4.5h119l-138 252c-6 10 -13.833 17.333 -23.5 22s-23.167 8.66699 -40.5 12c-6.66699 0.666992 -10 6.33398 -10 17.001c0 3.33301 0.333008 6 1 8
c0 2 0.333008 4 1 6c6.66699 -0.666992 14.834 -1.33398 24.501 -2.00098s19.834 -1.16699 30.501 -1.5s21.667 -0.5 33 -0.5h33c15.333 0 33.666 0.333008 54.999 1s39 1.66699 53 3c0 -2 0.333008 -4 1 -6c0 -1.33301 0.166992 -2.83301 0.5 -4.5s0.5 -3.16699 0.5 -4.5
c0 -3.33301 -0.833008 -6.66602 -2.5 -9.99902s-3.83398 -5.33301 -6.50098 -6c-16.667 -1.33301 -28.5 -3.83301 -35.5 -7.5s-10.5 -9.16699 -10.5 -16.5c0 -4 1.5 -9.33301 4.5 -16s6.16699 -13 9.5 -19l95 -175l91 175c6.66699 13.333 10 23 10 29
c0 8 -4 14.167 -12 18.5s-21.333 8.16602 -40 11.499c-6 0.666992 -9 6 -9 16v4.5c0 1.66699 0.333008 3.16699 1 4.5c0 2 0.333008 4 1 6c14 -1.33301 29.667 -2.33301 47 -3s34 -1 50 -1c14.667 0 30.5 0.333008 47.5 1s33.833 1.66699 50.5 3c0 -2 0.333008 -4 1 -6
c0 -1.33301 0.166992 -2.83301 0.5 -4.5s0.5 -3.16699 0.5 -4.5c0 -10 -4 -15.333 -12 -16c-22.667 -3.33301 -39 -7.5 -49 -12.5s-18 -13.167 -24 -24.5l-130 -249h140c0.666992 -3.33301 1 -6.66602 1 -9.99902v-9c0 -8.66699 -1.33301 -14.334 -4 -17.001s-7 -4 -13 -4
h-126v-68h142c0.666992 -3.33301 1 -6.83301 1 -10.5v-8.5c0 -8.66699 -1.33301 -14.5 -4 -17.5s-7 -4.5 -13 -4.5h-126v-92c0 -13.333 5.33301 -22.666 16 -27.999s28.667 -10 54 -14c7.33301 -2.66699 11 -8 11 -16c0 -1.33301 -0.166992 -3 -0.5 -5
s-0.5 -3.66699 -0.5 -5c-0.666992 -2.66699 -1 -4.66699 -1 -6l-45 2l-41.5 2c-14.333 0.666992 -27.166 1 -38.499 1s-24 -0.333008 -38 -1s-27.333 -1.33398 -40 -2.00098l-44 -2c-0.666992 1.33301 -1.33398 3.33301 -2.00098 6c-0.666992 1.33301 -1 3 -1 5v5
c0 4 1.16699 7.33301 3.5 10s5.16602 4.66699 8.49902 6c24.667 4.66699 42.5 9.5 53.5 14.5s16.5 14.167 16.5 27.5v92h-142c-0.666992 3.33301 -1 6.5 -1 9.5v8.5c0 15.333 5.33301 23 16 23h127v68h-142v0z" />
    <glyph glyph-name="brokenbar" unicode="&#xa6;" horiz-adv-x="252" 
d="M152 343c-4.66699 -1.33301 -8.83301 -2.00098 -12.5 -2.00098h-10.5c-11.333 0 -19 1.66699 -23 5s-6 7.33301 -6 12v340c4.66699 0.666992 9 1.16699 13 1.5s7.66699 0.5 11 0.5c11.333 0 18.833 -1.66699 22.5 -5s5.5 -7.66602 5.5 -12.999v-339zM152.001 -239.001
c-4.66699 -0.666992 -8.83301 -1.16699 -12.5 -1.5s-7.16699 -0.5 -10.5 -0.5c-11.333 0 -19 1.66699 -23 5s-6 7.66602 -6 12.999v339c4.66699 0.666992 9 1.16699 13 1.5s7.66699 0.5 11 0.5c11.333 0 18.833 -1.66699 22.5 -5s5.5 -7.66602 5.5 -12.999v-339z" />
    <glyph glyph-name="section" unicode="&#xa7;" horiz-adv-x="478" 
d="M86 442c0 -20.667 3.83203 -40.833 11.499 -60.5s18 -39.667 31 -60s28.333 -41 46 -62l57.5 -67.5c31.333 -36.667 57.833 -72.5 79.5 -107.5s33.167 -70.833 34.5 -107.5c16.667 19.333 28.167 39.833 34.5 61.5s9.5 40.5 9.5 56.5c0 26 -6.5 52.167 -19.5 78.5
s-29.167 52.833 -48.5 79.5s-40.166 53 -62.499 79s-43 51.833 -62 77.5s-34.667 50.667 -47 75s-17.833 47.833 -16.5 70.5c-14 -14 -25.5 -31 -34.5 -51s-13.5 -40.667 -13.5 -62zM332.999 662.001c18 0 26.9951 -15.334 26.9951 -46.001c0 -10 -1.5 -17.5 -4.5 -22.5
s-8.83301 -7.5 -17.5 -7.5c-1.33301 0 -3.33301 0.166992 -6 0.5s-4.66699 1.16602 -6 2.49902l-24.5 12c-7 3.33301 -13.833 6 -20.5 8s-13.5 3.33301 -20.5 4s-15.5 1 -25.5 1c-15.333 0 -28.5 -4.66699 -39.5 -14s-16.5 -23.333 -16.5 -42
c0 -14.667 6.33301 -32.167 19 -52.5s28.334 -42.5 47.001 -66.5l61.5 -76c22.333 -26.667 42.833 -53.667 61.5 -81s34.334 -54.666 47.001 -81.999s19 -53.333 19 -78c0 -30 -5.66699 -60.167 -17 -90.5s-28.666 -58 -51.999 -83s-52.666 -45.5 -87.999 -61.5
s-77 -25 -125 -27c-8.66699 -1.33301 -16.667 -1 -24 1c-5.33301 1.33301 -9.83301 5.5 -13.5 12.5s-5.5 17.167 -5.5 30.5c0 9.33301 1.33301 17 4 23s8.66699 9 18 9c2 0 4 -0.333008 6 -1s3.66699 -1.33398 5 -2.00098c10 -5.33301 18.667 -9.66602 26 -12.999
s14.333 -6 21 -8s13.667 -3.33301 21 -4s15.666 -1 24.999 -1c7.33301 0 14.833 1.16699 22.5 3.5s14.834 6 21.501 11s12 11.333 16 19s6 16.834 6 27.501c0 32 -10.833 63.5 -32.5 94.5s-48.5 63.5 -80.5 97.5c-20 20 -38.667 40 -56 60s-32.5 40.167 -45.5 60.5
s-23.333 41 -31 62s-11.5 42.833 -11.5 65.5c0 32.667 6.66699 64.334 20 95.001s32.5 57.667 57.5 81s55.333 42.166 91 56.499s75.834 21.5 120.501 21.5z" />
    <glyph glyph-name="dieresis" unicode="&#xa8;" horiz-adv-x="500" 
d="M224 583c0 -15.333 -5.16699 -28.333 -15.5 -39s-22.833 -16 -37.5 -16c-15.333 0 -28.333 5.33301 -39 16s-16 23.667 -16 39s5.33301 28.5 16 39.5s23.667 16.5 39 16.5c14.667 0 27.167 -5.5 37.5 -16.5s15.5 -24.167 15.5 -39.5zM422 583
c0 -15.333 -5.16699 -28.333 -15.5 -39s-23.166 -16 -38.499 -16s-28.333 5.33301 -39 16s-16 23.667 -16 39s5.33301 28.5 16 39.5s23.667 16.5 39 16.5s28.166 -5.5 38.499 -16.5s15.5 -24.167 15.5 -39.5z" />
    <glyph glyph-name="copyright" unicode="&#xa9;" horiz-adv-x="690" 
d="M38 325c0 42.667 8 82.667 24 120s37.833 69.833 65.5 97.5s60.167 49.5 97.5 65.5s77.333 24 120 24c42 0 81.667 -8 119 -24s70 -37.833 98 -65.5s50 -60.167 66 -97.5s24 -77.333 24 -120c0 -42 -8 -81.667 -24 -119s-38 -70 -66 -98s-60.667 -50 -98 -66
s-77 -24 -119 -24c-42.667 0 -82.667 8 -120 24s-69.833 38 -97.5 66s-49.5 60.667 -65.5 98s-24 77 -24 119zM347 48c36.667 0 70.8301 7.33301 102.497 22s59.334 34.5 83.001 59.5s42.334 54.167 56.001 87.5s20.5 68.666 20.5 105.999c0 38.667 -7 74.834 -21 108.501
s-33.167 63.167 -57.5 88.5s-52.666 45.333 -84.999 60s-66.5 22 -102.5 22c-36.667 0 -71 -7.33301 -103 -22s-59.667 -34.5 -83 -59.5s-41.833 -54 -55.5 -87s-20.5 -68.167 -20.5 -105.5c0 -36 6.66699 -70.833 20 -104.5s31.666 -63.5 54.999 -89.5
s51.333 -46.833 84 -62.5s68.334 -23.5 107.001 -23.5zM347.996 148c-30.667 0 -57.498 4.49707 -80.498 13.4971s-42 21.5 -57 37.5s-26.333 35 -34 57s-11.5 45.667 -11.5 71c0 20.667 3.83301 41.667 11.5 63s19 40.5 34 57.5s34 31 57 42s49.833 16.5 80.5 16.5
c23.333 0 43.166 -1.16699 59.499 -3.5s33.166 -5.83301 50.499 -10.5c0.666992 -9.33301 2.16699 -21.166 4.5 -35.499s5.16602 -28.833 8.49902 -43.5c-0.666992 -0.666992 -2.66699 -1.5 -6 -2.5s-5.66602 -1.5 -6.99902 -1.5c-7.33301 0 -12 3 -14 9
c-7.33301 22.667 -18.666 37.834 -33.999 45.501s-32.666 11.5 -51.999 11.5c-38 0 -67.5 -11.667 -88.5 -35s-31.5 -57 -31.5 -101c0 -23.333 3.16699 -44.666 9.5 -63.999s15 -36 26 -50s24.167 -25 39.5 -33s31.666 -12 48.999 -12c25.333 0 44.666 4.33301 57.999 13
s24 23.334 32 44.001c2.66699 6.66699 7.66699 10 15 10c4 0 9.33301 -1.33301 16 -4c-4.66699 -13.333 -9.16699 -27.5 -13.5 -42.5s-8.16602 -29.5 -11.499 -43.5c-16.667 -2.66699 -33.834 -4.83398 -51.501 -6.50098s-37.167 -2.5 -58.5 -2.5z" />
    <glyph glyph-name="ordfeminine" unicode="&#xaa;" horiz-adv-x="374" 
d="M353 285c3.33301 0 5.66504 -1.16602 6.99805 -3.49902s2.33301 -7.5 3 -15.5c-7.33301 -4 -16 -7.16699 -26 -9.5s-19.667 -3.5 -29 -3.5c-23.333 0 -40.166 5.66699 -50.499 17s-16.833 23.666 -19.5 36.999c-12.667 -20.667 -27.5 -34.834 -44.5 -42.501
s-36.833 -11.5 -59.5 -11.5c-13.333 0 -26.166 1 -38.499 3s-23.333 5.66699 -33 11s-17.334 12.5 -23.001 21.5s-8.5 20.5 -8.5 34.5c0 16.667 3.83301 30.834 11.5 42.501s18 21.5 31 29.5s28.167 14.667 45.5 20s35.666 9.66602 54.999 12.999
c8 1.33301 14.833 2.83301 20.5 4.5s11.5 3.16699 17.5 4.5c7.33301 2 12 4.33301 14 7s3 7.66699 3 15c0 18.667 -4.5 34.334 -13.5 47.001s-23.5 19 -43.5 19c-14.667 0 -25.334 -3.33301 -32.001 -10s-13 -18.667 -19 -36c-1.33301 -4.66699 -5.5 -8 -12.5 -10
s-17.167 -4.66699 -30.5 -8c-11.333 -3.33301 -20.666 -5 -27.999 -5c-5.33301 0 -8 4.66699 -8 14c0 10.667 4.33301 21.167 13 31.5s19.5 19.5 32.5 27.5s27.5 14.333 43.5 19s31.667 7 47 7c18.667 0 35.834 -1.33301 51.501 -4s29 -7.5 40 -14.5
s19.5 -16.833 25.5 -29.5s9 -28.667 9 -48v-115c0 -14.667 0.666992 -25.5 2 -32.5s3.33301 -12.5 6 -16.5c4.66699 -8 11.667 -12 21 -12c5.33301 0 9.33301 0.333008 12 1s5.33398 1 8.00098 1zM228.999 413.001l-22.001 -4.00098c-28 -5.33301 -51 -13 -69 -23
s-27 -27.333 -27 -52c0 -14 4.33301 -24.833 13 -32.5s20.334 -11.5 35.001 -11.5c18 0 34.167 5.83301 48.5 17.5s21.5 28.834 21.5 51.501v54z" />
    <glyph glyph-name="guillemotleft" unicode="&#xab;" horiz-adv-x="415" 
d="M186 375c4 2.66699 7.33203 4.00195 9.99902 4.00195c6.66699 0 13.667 -5.33301 21 -16l-52 -71c-16 -22.667 -32.333 -47.334 -49 -74.001c25.333 -42.667 59.333 -93.334 102 -152.001c-4 -6.66699 -8.16699 -11.167 -12.5 -13.5s-8.16602 -3.5 -11.499 -3.5
s-6 1 -8 3l-160 156c-0.666992 0.666992 -1 2.66699 -1 6s2.33301 7.33301 7 12zM339.999 375.002c2.66699 2.66699 5.66602 4.00195 8.99902 4.00195c6.66699 0 14 -5.33301 22 -16c-19.333 -24.667 -37 -48.334 -53 -71.001s-32 -47.334 -48 -74.001
c12.667 -22 27.5 -45.333 44.5 -70l57.5 -82c-4 -6.66699 -8.16699 -11.167 -12.5 -13.5s-8.16602 -3.5 -11.499 -3.5s-6 1 -8 3l-160 156c0 0.666992 -0.166992 1.5 -0.5 2.5s-0.5 2.16699 -0.5 3.5c0 3.33301 2.33301 7.33301 7 12z" />
    <glyph glyph-name="logicalnot" unicode="&#xac;" horiz-adv-x="494" 
d="M39 292c-0.666992 5.33301 -1 9.83301 -1 13.5v10.5c0 19.333 5.33301 29 16 29h402v-236c-4 -0.666992 -7.83301 -1 -11.5 -1h-10.5c-10.667 0 -18 1.33301 -22 4s-6 6.66699 -6 12v168h-367z" />
    <glyph glyph-name="uni00AD" unicode="&#xad;" horiz-adv-x="314" 
d="M260 262c0.666992 -4 1 -7.83496 1 -11.502v-10.5c0 -11.333 -1.33301 -19.166 -4 -23.499s-6.66699 -6.5 -12 -6.5h-191c-2 8.66699 -3 16.334 -3 23.001c0 19.333 6 29 18 29h191z" />
    <glyph glyph-name="registered" unicode="&#xae;" horiz-adv-x="439" 
d="M35 479c0 25.333 4.33301 49.166 13 71.499s21 41.833 37 58.5s35.333 29.834 58 39.501s48 14.5 76 14.5c28.667 0 54.5 -4.83301 77.5 -14.5s42.5 -22.834 58.5 -39.501s28.167 -36.167 36.5 -58.5s12.5 -46.166 12.5 -71.499s-4.5 -49.333 -13.5 -72
s-21.5 -42.334 -37.5 -59.001s-35.333 -29.834 -58 -39.501s-48 -14.5 -76 -14.5s-53.333 4.83301 -76 14.5s-42 22.834 -58 39.501s-28.333 36.334 -37 59.001s-13 46.667 -13 72zM220 324c23.333 0 44.334 4.00098 63.001 12.001s34.5 18.833 47.5 32.5
s23 29.834 30 48.501s10.5 38.667 10.5 60c0 22 -3.66699 42.5 -11 61.5s-17.833 35.5 -31.5 49.5s-29.834 25 -48.501 33s-39.334 12 -62.001 12c-23.333 0 -44.166 -4 -62.499 -12s-34 -18.833 -47 -32.5s-23 -29.834 -30 -48.501s-10.5 -38.667 -10.5 -60
c0 -20.667 3.16699 -40.334 9.5 -59.001s15.833 -35.167 28.5 -49.5s28.5 -25.833 47.5 -34.5s41.167 -13 66.5 -13zM328.001 388.001c-1.33301 -2.66699 -3.83398 -6.33594 -7.50098 -11.0029s-6.5 -8 -8.5 -10h-8c-8 0 -15 2 -21 6s-11.333 9.33301 -16 16l-53 78h-16v-68
c0 -2.66699 1.16699 -5.16699 3.5 -7.5s7.83301 -4.16602 16.5 -5.49902c4 -1.33301 6 -3.33301 6 -6s-0.666992 -6 -2 -10c-6 0.666992 -13.167 1 -21.5 1h-23.5h-20.5c-8.33301 0 -15.833 -0.333008 -22.5 -1c-0.666992 1.33301 -1 3 -1 5v5
c0 3.33301 1.66699 5.33301 5 6c13.333 2 20 6.33301 20 13v166c0 3.33301 -1.33301 5.83301 -4 7.5s-7.66699 2.83398 -15 3.50098c-4.66699 0 -7 2 -7 6c0 2.66699 0.666992 6 2 10c6.66699 -0.666992 14.5 -1.16699 23.5 -1.5s16.833 -0.5 23.5 -0.5h38
c24 0 44.5 -4.5 61.5 -13.5s25.5 -24.167 25.5 -45.5c0 -13.333 -5.16699 -25.333 -15.5 -36s-22.166 -17.667 -35.499 -21l44 -65c4 -6 8.83301 -10.667 14.5 -14s10.5 -5.66602 14.5 -6.99902zM210 487.999c34 0 51 13.333 51 40c0 13.333 -3.83301 23.5 -11.5 30.5
s-21.167 10.5 -40.5 10.5h-11v-81h12z" />
    <glyph glyph-name="macron" unicode="&#xaf;" horiz-adv-x="500" 
d="M113 552l-3.5 17.499c-1 5 -1.5 9.5 -1.5 13.5c0 10 2.16699 16.167 6.5 18.5s9.83301 3.5 16.5 3.5h251c2.66699 -11.333 4 -21.666 4 -30.999c0 -10 -2 -16.167 -6 -18.5s-9.33301 -3.5 -16 -3.5h-251z" />
    <glyph glyph-name="degree" unicode="&#xb0;" horiz-adv-x="308" 
d="M20 523c0 19.333 3.66699 36.833 11 52.5s17.166 29 29.499 40s26.833 19.5 43.5 25.5s34 9 52 9c16.667 0 32.834 -2.83301 48.501 -8.5s29.667 -14 42 -25s22.333 -24.333 30 -40s11.5 -33.5 11.5 -53.5s-3.83301 -38.167 -11.5 -54.5s-17.667 -30 -30 -41
s-26.5 -19.5 -42.5 -25.5s-32.333 -9 -49 -9c-18 0 -35 2.83301 -51 8.5s-30.333 14 -43 25s-22.667 24.667 -30 41s-11 34.833 -11 55.5zM144 608c-14.667 0 -28.668 -6.49707 -42.001 -19.4971s-20 -32.167 -20 -57.5c0 -12.667 1.83301 -24.834 5.5 -36.501
s8.83398 -21.834 15.501 -30.501s14.5 -15.667 23.5 -21s18.833 -8 29.5 -8c21.333 0 38.333 7 51 21s19 32.667 19 56c0 25.333 -6.66699 47.666 -20 66.999s-34 29 -62 29z" />
    <glyph glyph-name="plusminus" unicode="&#xb1;" horiz-adv-x="494" 
d="M38 0c-0.666992 4 -1 7.83496 -1 11.502v10.5c0 11.333 1.33301 19.166 4 23.499s6.66699 6.5 12 6.5h402c0.666992 -4.66699 1.16699 -8.83398 1.5 -12.501s0.5 -7.16699 0.5 -10.5c0 -19.333 -5.66699 -29 -17 -29h-402zM38 297.002c-0.666992 4 -1 7.83496 -1 11.502
v10.5c0 11.333 1.33301 19.166 4 23.499s6.66699 6.5 12 6.5h163v178c4.66699 1.33301 8.83398 2 12.501 2h10.5c19.333 0 29 -5.66699 29 -17v-163h187c0.666992 -4.66699 1.16699 -8.83398 1.5 -12.501s0.5 -7.16699 0.5 -10.5c0 -19.333 -5.66699 -29 -17 -29h-172v-185
c-4.66699 -0.666992 -8.83398 -1.16699 -12.501 -1.5s-7.16699 -0.5 -10.5 -0.5c-19.333 0 -29 5.66699 -29 17v170h-178z" />
    <glyph glyph-name="twosuperior" unicode="&#xb2;" 
d="M69 660c-2.66699 -2.66699 -6.00098 -3.99805 -10.001 -3.99805c-4.66699 0 -11 5 -19 15c17.333 20.667 37.5 37.334 60.5 50.001s45.5 19 67.5 19c34 0 60.833 -8.5 80.5 -25.5s29.5 -38.5 29.5 -64.5c0 -12 -2.5 -25.333 -7.5 -40s-13.5 -31 -25.5 -49
s-28.5 -38.333 -49.5 -61s-47.5 -48.334 -79.5 -77.001h112c9.33301 0 16.833 2.83301 22.5 8.5s11.167 13.5 16.5 23.5c1.33301 5.33301 4.66602 8 9.99902 8s11.333 -1.33301 18 -4c-2 -5.33301 -4.16699 -11.833 -6.5 -19.5s-4.5 -15.834 -6.5 -24.501l-6 -25l-5 -20
c-1.33301 -4 -4.66602 -6 -9.99902 -6c-8 0 -18.167 0.333008 -30.5 1s-25.166 1 -38.499 1h-152v23c30 30.667 55 58.167 75 82.5s35.667 46.333 47 66s19.333 37.167 24 52.5s7 29 7 41c0 19.333 -5 33.666 -15 42.999s-22.667 14 -38 14c-12 0 -23 -1.83301 -33 -5.5
s-22.667 -11.167 -38 -22.5z" />
    <glyph glyph-name="threesuperior" unicode="&#xb3;" 
d="M150 400c22.667 0 40.1621 7.50098 52.4951 22.501s18.5 34.5 18.5 58.5c0 20.667 -5.33301 37.167 -16 49.5s-28.667 18.5 -54 18.5c-7.33301 0 -14.833 -0.666992 -22.5 -2s-16.167 -3.33301 -25.5 -6v24c20.667 8 37.5 16 50.5 24s23 15.833 30 23.5
s11.833 15 14.5 22s4 14.167 4 21.5c0 14 -4.16699 24.5 -12.5 31.5s-19.166 10.5 -32.499 10.5c-9.33301 0 -20.5 -2.5 -33.5 -7.5s-26.167 -12.167 -39.5 -21.5c-1.33301 -0.666992 -2.66602 -1.5 -3.99902 -2.5s-3 -1.5 -5 -1.5c-4 0 -7.5 1.5 -10.5 4.5
s-5.5 6.5 -7.5 10.5c23.333 24 45.333 40 66 48s40.667 12 60 12c9.33301 0 19.333 -1.16699 30 -3.5s20.334 -6 29.001 -11s15.834 -12 21.501 -21s8.5 -19.833 8.5 -32.5c0 -16 -5.66699 -31.5 -17 -46.5s-29.666 -27.833 -54.999 -38.5
c28.667 -3.33301 52.667 -11.833 72 -25.5s29 -33.834 29 -60.501c0 -19.333 -5.5 -37.666 -16.5 -54.999s-25 -32.333 -42 -45s-36.167 -22.667 -57.5 -30s-42.333 -11 -63 -11c-32 0 -57 6 -75 18c-2.66699 1.33301 -5 3.5 -7 6.5s-3 5.16699 -3 6.5
c0 3.33301 2.83301 7.66602 8.5 12.999l24.5 22c7.33301 7.33301 14.333 8.33301 21 3c11.333 -10.667 22 -18.167 32 -22.5s19 -6.5 27 -6.5z" />
    <glyph glyph-name="acute" unicode="&#xb4;" horiz-adv-x="500" 
d="M253 672c19.333 0 35 -5.33105 47 -15.998s18 -21.667 18 -33c0 -10.667 -4.66699 -18.667 -14 -24c-13.333 -8.66699 -25.333 -16.834 -36 -24.501s-21.167 -15.667 -31.5 -24l-32 -26.5l-35.5 -31c-11.333 5.33301 -17 11.666 -17 18.999
c0 3.33301 1.66699 7.33301 5 12z" />
    <glyph glyph-name="mu" unicode="&#xb5;" horiz-adv-x="543" 
d="M418 174c0 -15.333 0.837891 -30.498 2.50488 -45.498s4.33398 -28.833 8.00098 -41.5s8 -22.834 13 -30.501s11.167 -11.5 18.5 -11.5c6.66699 0 12.667 1.16699 18 3.5s12.666 5.16602 21.999 8.49902c6.66699 -9.33301 9 -19.333 7 -30
c-9.33301 -8 -21.666 -16.5 -36.999 -25.5s-29.333 -13.5 -42 -13.5c-43.333 0 -69 35.333 -77 106c-2 -2 -8 -8.66699 -18 -20s-22.667 -23.333 -38 -36s-33.166 -24.167 -53.499 -34.5s-41.833 -15.5 -64.5 -15.5c-7.33301 0 -14.5 1.66699 -21.5 5s-12.833 7 -17.5 11
c0 -41.333 2.5 -78.166 7.5 -110.499s10.833 -65.833 17.5 -100.5c2 -11.333 0.333008 -19.166 -5 -23.499s-18 -9.5 -38 -15.5c-6.66699 -2 -13.334 -3.83301 -20.001 -5.5s-13.334 -2.5 -20.001 -2.5c-8.66699 0 -13 7 -13 21v417c0 66 -0.833008 115.667 -2.5 149
s-2.83398 53.333 -3.50098 60c-0.666992 8.66699 2 14.834 8 18.501s19.667 8.5 41 14.5c18 5.33301 30.333 8 37 8s10 -5.66699 10 -17c0 -3.33301 -1 -13 -3 -29s-4 -35.833 -6 -59.5s-4 -49.5 -6 -77.5s-3 -55.333 -3 -82c0 -33.333 5.16699 -60.833 15.5 -82.5
s30.166 -32.5 59.499 -32.5c16.667 0 33 2.83301 49 8.5s30.167 14 42.5 25s22.166 24.5 29.499 40.5s11 34.667 11 56c0 44.667 -0.333008 80.167 -1 106.5s-1.33398 46.5 -2.00098 60.5s-1.33398 23.667 -2.00098 29s-1 9.66602 -1 12.999
c-0.666992 8.66699 2 14.834 8 18.501s19.667 8.5 41 14.5c18 5.33301 30.333 8 37 8s10 -5.66699 10 -17c0 -3.33301 -1 -12.833 -3 -28.5s-4 -34.834 -6 -57.501s-4 -47.834 -6 -75.501s-3 -54.834 -3 -81.501z" />
    <glyph glyph-name="paragraph" unicode="&#xb6;" horiz-adv-x="444" 
d="M267 588c10.667 0 22.1709 0.169922 34.5039 0.50293s23.833 1.16602 34.5 2.49902l37 4c0 -2 0.333008 -4 1 -6c0 -1.33301 0.166992 -2.83301 0.5 -4.5s0.5 -3.16699 0.5 -4.5c0 -6.66699 -2.66699 -10.667 -8 -12c-13.333 -2 -25.5 -5.66699 -36.5 -11
s-16.5 -13.333 -16.5 -24v-498c0 -44 -4.83301 -79.667 -14.5 -107s-22.5 -48.5 -38.5 -63.5s-34.833 -24.833 -56.5 -29.5s-44.5 -6.33398 -68.5 -5.00098c-6 0 -11 1.33301 -15 4s-6.66699 8.66699 -8 18c-0.666992 2 -1.33398 5.33301 -2.00098 10
s-0.833984 9.16699 -0.500977 13.5s1.16602 8.5 2.49902 12.5s4 6.66699 8 8c6 2 11.667 1.33301 17 -2l20.5 -10.5c5.66699 -3 10.667 -5.33301 15 -7s8.5 -2.83398 12.5 -3.50098s9 -1 15 -1c44 0 66 42.333 66 127v169c-70.667 0 -123.667 15.333 -159 46s-53 81 -53 151
c0 32 4.83301 61.667 14.5 89s23.5 51 41.5 71s40.167 35.5 66.5 46.5s56.166 16.5 89.499 16.5z" />
    <glyph glyph-name="periodcentered" unicode="&#xb7;" horiz-adv-x="212" 
d="M42 262c0 17.333 6.33301 32.5 19 45.5s28 19.5 46 19.5c17.333 0 32 -6.5 44 -19.5s18 -28.167 18 -45.5c0 -18.667 -6 -34.167 -18 -46.5s-26.667 -18.5 -44 -18.5c-18 0 -33.333 6.16699 -46 18.5s-19 27.833 -19 46.5z" />
    <glyph glyph-name="cedilla" unicode="&#xb8;" horiz-adv-x="503" 
d="M274 0l-13.501 -23c-5 -8.66699 -7.5 -16 -7.5 -22c0 -9.33301 7.66699 -21 23 -35c8 -8 14.667 -16.833 20 -26.5s8 -19.834 8 -30.501c0 -21.333 -9.33301 -40.833 -28 -58.5s-46 -31.834 -82 -42.501c-4 6.66699 -6 12.667 -6 18c0 6 2.33301 10 7 12
c16.667 8.66699 27.834 17.834 33.501 27.501s8.5 19.167 8.5 28.5c0 12.667 -7.33301 25.667 -22 39c-14.667 14.667 -22 26.334 -22 35.001c0 4.66699 0.5 9 1.5 13s3 8.66699 6 14s7.66699 12 14 20l25.5 31h34z" />
    <glyph glyph-name="onesuperior" unicode="&#xb9;" 
d="M88 364c-0.666992 1.33301 -1.00098 3.16895 -1.00098 5.50195v5.5c0 6 2 9 6 9c20 3.33301 32.833 6.83301 38.5 10.5s8.5 9.16699 8.5 16.5v237c0 13.333 -2.5 22.666 -7.5 27.999s-17.167 8 -36.5 8c-2.66699 0 -5.16699 0.833008 -7.5 2.5s-3.5 5.16699 -3.5 10.5
c0 1.33301 0.166992 3.66602 0.5 6.99902s0.833008 5.66602 1.5 6.99902c3.33301 0 8 0.5 14 1.5s12.5 2.16699 19.5 3.5s13.833 2.5 20.5 3.5s12.334 2.16699 17.001 3.5c11.333 3.33301 22 7 32 11s17.667 6 23 6c6.66699 0 10 -3.33301 10 -10
c0 -7.33301 -0.666992 -17 -2 -29s-2 -23.667 -2 -35v-256c0 -8 2.33301 -13.5 7 -16.5s15.334 -6.16699 32.001 -9.5c4 0 6 -3 6 -9v-5.5c0 -2.33301 -0.333008 -4.16602 -1 -5.49902c-12.667 0.666992 -26.834 1.16699 -42.501 1.5s-29.167 0.5 -40.5 0.5h-21
c-8 0 -16.167 -0.166992 -24.5 -0.5l-25 -1c-8.33301 -0.333008 -15.5 -0.5 -21.5 -0.5z" />
    <glyph glyph-name="ordmasculine" unicode="&#xba;" horiz-adv-x="379" 
d="M31 404c0 20.667 4 40.333 12 59s19 34.667 33 48s30.667 24 50 32s40.333 12 63 12c47.333 0 85.5 -13.833 114.5 -41.5s43.5 -64.167 43.5 -109.5c0 -20.667 -4 -40.167 -12 -58.5s-19 -34.333 -33 -48s-30.667 -24.5 -50 -32.5s-40.333 -12 -63 -12
c-47.333 0 -85.5 13.833 -114.5 41.5s-43.5 64.167 -43.5 109.5zM195 284.999c23.333 0 42.1699 8.33301 56.5029 25s21.5 36.667 21.5 60c0 15.333 -1.66699 32 -5 50s-8.5 34.667 -15.5 50s-16.333 28.166 -28 38.499s-25.834 15.5 -42.501 15.5
c-20.667 0 -38.667 -7.33301 -54 -22s-23 -38.667 -23 -72c0 -15.333 1.83301 -31.5 5.5 -48.5s9.16699 -32.667 16.5 -47s16.666 -26.166 27.999 -35.499s24.666 -14 39.999 -14z" />
    <glyph glyph-name="guillemotright" unicode="&#xbb;" horiz-adv-x="415" 
d="M228 54c-2 -2.66699 -4.99902 -4.00098 -8.99902 -4.00098c-6.66699 0 -14 5.33301 -22 16c19.333 24.667 37 48.5 53 71.5s32 47.833 48 74.5c-12.667 22 -27.334 45.167 -44.001 69.5l-58 81.5c4.66699 6 9 10.167 13 12.5s7.66699 3.5 11 3.5s6 -1 8 -3l160 -154
c0.666992 -1.33301 1 -3.66602 1 -6.99902c0 -4 -2.33301 -8.33301 -7 -13zM75.001 53.999c-2.66699 -2.66699 -5.99902 -4 -9.99902 -4c-6.66699 0 -13.667 5.33301 -21 16l52 71.5c16 23 32 47.833 48 74.5c-12.667 22 -27.334 45.167 -44.001 69.5l-57 81.5
c7.33301 10.667 15.333 16 24 16c3.33301 0 6 -1 8 -3l159 -154c1.33301 -4 2 -6.33301 2 -7c0 -4 -2.33301 -8.33301 -7 -13z" />
    <glyph glyph-name="onequarter" unicode="&#xbc;" horiz-adv-x="802" 
d="M78 257c-0.666992 1.33301 -1.00098 3.16895 -1.00098 5.50195v5.5c0 6 2 9 6 9c20 3.33301 32.833 6.83301 38.5 10.5s8.5 9.16699 8.5 16.5v237c0 13.333 -2.5 22.666 -7.5 27.999s-17.167 8 -36.5 8c-2.66699 0 -5.16699 0.833008 -7.5 2.5s-3.5 5.16699 -3.5 10.5
c0 1.33301 0.166992 3.66602 0.5 6.99902s0.833008 5.66602 1.5 6.99902c3.33301 0 8 0.5 14 1.5s12.5 2.16699 19.5 3.5s13.833 2.5 20.5 3.5s12.334 2.16699 17.001 3.5c11.333 3.33301 22 7 32 11s17.667 6 23 6c6.66699 0 10 -3.33301 10 -10
c0 -7.33301 -0.666992 -17 -2 -29s-2 -23.667 -2 -35v-256c0 -8 2.33301 -13.5 7 -16.5s15.334 -6.16699 32.001 -9.5c4 0 6 -3 6 -9v-5.5c0 -2.33301 -0.333008 -4.16602 -1 -5.49902c-12.667 0.666992 -26.834 1.16699 -42.501 1.5s-29.167 0.5 -40.5 0.5h-21
c-8 0 -16.167 -0.166992 -24.5 -0.5l-25 -1c-8.33301 -0.333008 -15.5 -0.5 -21.5 -0.5zM606.999 651.003c14.667 -5.33301 24.501 -10.5 29.501 -15.5s7.5 -9.83301 7.5 -14.5c0 -1.33301 -0.333008 -2.83301 -1 -4.5s-1.33398 -3.16699 -2.00098 -4.5l-409 -624
c-14 6 -23.5 11.5 -28.5 16.5s-7.5 9.5 -7.5 13.5s1 7 3 9zM622 279.003l-113 -144h113v144zM743 -1.99707c-6 0 -13.332 0.167969 -21.999 0.500977l-26.5 1c-9 0.333008 -17.667 0.5 -26 0.5h-21.5c-11.333 0 -24.5 -0.166992 -39.5 -0.5s-28.5 -0.833008 -40.5 -1.5
c-0.666992 1.33301 -1.16699 3.16602 -1.5 5.49902s-0.5 4.16602 -0.5 5.49902c0 6 2.33301 9 7 9c19.333 3.33301 32.5 6.83301 39.5 10.5s10.5 9.16699 10.5 16.5v41h-162c-1.33301 4 -2.16602 7.66699 -2.49902 11s-0.5 6.33301 -0.5 9
c-0.666992 4 -0.333984 7.33301 0.999023 10s3 5.66699 5 9l181 233c1.33301 1.33301 3 2.83301 5 4.5s4 2.5 6 2.5h41v-230h49v-49h-49v-42c0 -8 3.16699 -13.5 9.5 -16.5s17.166 -6.16699 32.499 -9.5c4 0 6 -3 6 -9v-5.5c0 -2.33301 -0.333008 -4.16602 -1 -5.49902z" />
    <glyph glyph-name="onehalf" unicode="&#xbd;" horiz-adv-x="802" 
d="M58 257c-0.666992 1.33301 -1.00098 3.16895 -1.00098 5.50195v5.5c0 6 2 9 6 9c20 3.33301 32.833 6.83301 38.5 10.5s8.5 9.16699 8.5 16.5v237c0 13.333 -2.5 22.666 -7.5 27.999s-17.167 8 -36.5 8c-2.66699 0 -5.16699 0.833008 -7.5 2.5s-3.5 5.16699 -3.5 10.5
c0 1.33301 0.166992 3.66602 0.5 6.99902s0.833008 5.66602 1.5 6.99902c3.33301 0 8 0.5 14 1.5s12.5 2.16699 19.5 3.5s13.833 2.5 20.5 3.5s12.334 2.16699 17.001 3.5c11.333 3.33301 22 7 32 11s17.667 6 23 6c6.66699 0 10 -3.33301 10 -10
c0 -7.33301 -0.666992 -17 -2 -29s-2 -23.667 -2 -35v-256c0 -8 2.33301 -13.5 7 -16.5s15.334 -6.16699 32.001 -9.5c4 0 6 -3 6 -9v-5.5c0 -2.33301 -0.333008 -4.16602 -1 -5.49902c-12.667 0.666992 -26.834 1.16699 -42.501 1.5s-29.167 0.5 -40.5 0.5h-21
c-8 0 -16.167 -0.166992 -24.5 -0.5l-25 -1c-8.33301 -0.333008 -15.5 -0.5 -21.5 -0.5zM567.999 651.003c14.667 -5.33301 24.501 -10.5 29.501 -15.5s7.5 -9.83301 7.5 -14.5c0 -1.33301 -0.333008 -2.83301 -1 -4.5s-1.33398 -3.16699 -2.00098 -4.5l-409 -624
c-14 6 -23.5 11.5 -28.5 16.5s-7.5 9.5 -7.5 13.5s1 7 3 9zM502 294.003c-2.66699 -2.66699 -6.00098 -3.99805 -10.001 -3.99805c-4.66699 0 -11 5 -19 15c17.333 20.667 37.5 37.334 60.5 50.001s45.5 19 67.5 19c34 0 60.833 -8.5 80.5 -25.5s29.5 -38.5 29.5 -64.5
c0 -12 -2.5 -25.333 -7.5 -40s-13.5 -31 -25.5 -49s-28.5 -38.333 -49.5 -61s-47.5 -48.334 -79.5 -77.001h112c9.33301 0 16.833 2.83301 22.5 8.5s11.167 13.5 16.5 23.5c1.33301 5.33301 4.66602 8 9.99902 8s11.333 -1.33301 18 -4
c-2 -5.33301 -4.16699 -11.833 -6.5 -19.5s-4.5 -15.834 -6.5 -24.501l-6 -25l-5 -20c-1.33301 -4 -4.66602 -6 -9.99902 -6c-8 0 -18.167 0.333008 -30.5 1s-25.166 1 -38.499 1h-152v23c30 30.667 55 58.167 75 82.5s35.667 46.333 47 66s19.333 37.167 24 52.5s7 29 7 41
c0 19.333 -5 33.666 -15 42.999s-22.667 14 -38 14c-12 0 -23 -1.83301 -33 -5.5s-22.667 -11.167 -38 -22.5z" />
    <glyph glyph-name="threequarters" unicode="&#xbe;" horiz-adv-x="802" 
d="M150 293c22.667 0 40.1631 7.50098 52.4961 22.501s18.5 34.5 18.5 58.5c0 20.667 -5.33301 37.167 -16 49.5s-28.667 18.5 -54 18.5c-7.33301 0 -14.833 -0.666992 -22.5 -2s-16.167 -3.33301 -25.5 -6v24c20.667 8 37.5 16 50.5 24s23 15.833 30 23.5
s11.833 15 14.5 22s4 14.167 4 21.5c0 28 -16.333 42 -49 42c-7.33301 0 -17.333 -2.5 -30 -7.5s-25.667 -12.167 -39 -21.5c-1.33301 -0.666992 -2.66602 -1.5 -3.99902 -2.5s-3 -1.5 -5 -1.5c-4 0 -7.5 1.5 -10.5 4.5s-5.5 6.5 -7.5 10.5c23.333 24 45.333 40 66 48
s40.667 12 60 12c9.33301 0 19.333 -1.16699 30 -3.5s20.334 -6 29.001 -11s15.834 -12 21.501 -21s8.5 -19.833 8.5 -32.5c0 -16 -5.66699 -31.5 -17 -46.5s-29.666 -27.833 -54.999 -38.5c28.667 -3.33301 52.667 -11.833 72 -25.5s29 -33.834 29 -60.501
c0 -19.333 -5.5 -37.666 -16.5 -54.999s-25 -32.333 -42 -45s-36.167 -22.667 -57.5 -30s-42.333 -11 -63 -11c-32 0 -57 6 -75 18c-2.66699 1.33301 -5 3.5 -7 6.5s-3 5.16699 -3 6.5c0 3.33301 2.83301 7.66602 8.5 12.999l24.5 22c7.33301 7.33301 14.333 8.33301 21 3
c11.333 -10.667 22 -18.167 32 -22.5s19 -6.5 27 -6.5zM613.996 651.001c14.667 -5.33301 24.501 -10.5 29.501 -15.5s7.5 -9.83301 7.5 -14.5c0 -1.33301 -0.333008 -2.83301 -1 -4.5s-1.33398 -3.16699 -2.00098 -4.5l-409 -624c-14 6 -23.5 11.5 -28.5 16.5
s-7.5 9.5 -7.5 13.5s1 7 3 9zM631.997 279.001l-113 -144h113v144zM752.997 -1.99902c-6 0 -13.332 0.167969 -21.999 0.500977l-26.5 1c-9 0.333008 -17.667 0.5 -26 0.5h-21.5c-11.333 0 -24.5 -0.166992 -39.5 -0.5s-28.5 -0.833008 -40.5 -1.5
c-0.666992 1.33301 -1.16699 3.16602 -1.5 5.49902s-0.5 4.16602 -0.5 5.49902c0 6 2.33301 9 7 9c19.333 3.33301 32.5 6.83301 39.5 10.5s10.5 9.16699 10.5 16.5v41h-162c-1.33301 4 -2.16602 7.66699 -2.49902 11s-0.5 6.33301 -0.5 9
c-0.666992 4 -0.333984 7.33301 0.999023 10s3 5.66699 5 9l181 233c1.33301 1.33301 3 2.83301 5 4.5s4 2.5 6 2.5h41v-230h49v-49h-49v-42c0 -8 3.16699 -13.5 9.5 -16.5s17.166 -6.16699 32.499 -9.5c4 0 6 -3 6 -9v-5.5c0 -2.33301 -0.333008 -4.16602 -1 -5.49902z" />
    <glyph glyph-name="questiondown" unicode="&#xbf;" horiz-adv-x="379" 
d="M43 -87c0 17.333 3.83398 33.001 11.501 47.001s17.167 27 28.5 39s23.833 23.167 37.5 33.5s26.167 20.666 37.5 30.999s20.833 21.166 28.5 32.499s11.5 23.666 11.5 36.999c0 9.33301 -2.5 23.5 -7.5 42.5s-11.167 37.5 -18.5 55.5c-1.33301 4 -2 6.66699 -2 8
c0 4 1.66699 8 5 12s9.66602 7.33301 18.999 10c28 -32.667 47.833 -61.5 59.5 -86.5s17.5 -46.833 17.5 -65.5c0 -25.333 -8 -47.166 -24 -65.499s-33.833 -35.5 -53.5 -51.5s-37.5 -32 -53.5 -48s-24 -34.667 -24 -56c0 -27.333 7.33301 -47 22 -59s31.667 -18 51 -18
c8 0 18.5 3.5 31.5 10.5s24.167 21.167 33.5 42.5c4 8.66699 11.333 13 22 13c2.66699 0 7.16699 -0.5 13.5 -1.5s13 -2.5 20 -4.5s13.167 -4.33301 18.5 -7s8 -5.66699 8 -9c0 -13.333 -3.66699 -25.666 -11 -36.999s-17.166 -21.166 -29.499 -29.499
s-26.5 -14.833 -42.5 -19.5s-32.333 -7 -49 -7c-26.667 0 -50 4.66699 -70 14s-36.833 21.166 -50.5 35.499s-23.834 30.5 -30.501 48.5s-10 35.667 -10 53zM254.001 369.001c0 -17.333 -6.16699 -32.166 -18.5 -44.499s-27.5 -18.5 -45.5 -18.5
c-17.333 0 -31.833 6.16699 -43.5 18.5s-17.5 27.166 -17.5 44.499c0 19.333 5.83301 35 17.5 47s26.167 18 43.5 18c18 0 33.167 -6 45.5 -18s18.5 -27.667 18.5 -47z" />
    <glyph glyph-name="Agrave" unicode="&#xc0;" horiz-adv-x="687" 
d="M429 238h-223.001l-64 -161c-3.33301 -8 -5 -14.667 -5 -20c0 -14 20.333 -24 61 -30c4.66699 -0.666992 7.83398 -2.5 9.50098 -5.5s2.5 -6.5 2.5 -10.5s-0.666992 -9.33301 -2 -16c-18 1.33301 -37 2.5 -57 3.5s-39.667 1.5 -59 1.5c-13.333 0 -27 -0.333008 -41 -1
s-28.667 -2 -44 -4c-1.33301 5.33301 -2 10.666 -2 15.999c0 4.66699 0.833008 8.66699 2.5 12s5.16699 5.33301 10.5 6c20.667 3.33301 36.167 7.5 46.5 12.5s17.833 12.833 22.5 23.5l241 580c4.66699 11.333 11 17 19 17c2.66699 0 6.66699 -0.666992 12 -2l242 -598
c4 -9.33301 13 -16.666 27 -21.999s27.667 -9 41 -11c4 -1.33301 7.16699 -3.16602 9.5 -5.49902s3.5 -6.5 3.5 -12.5c0 -4 -0.666992 -9.33301 -2 -16c-21.333 1.33301 -42.333 2.5 -63 3.5s-40 1.5 -58 1.5c-18.667 0 -40 -0.5 -64 -1.5s-45.667 -2.16699 -65 -3.5
c-1.33301 6.66699 -2 12 -2 16c0 6 1.16699 10.167 3.5 12.5s4.5 3.5 6.5 3.5c17.333 3.33301 31.333 7.16602 42 11.499s16 10.833 16 19.5c0 4 -1.33301 9 -4 15zM412.999 279l-93 245l-97 -245h190zM420.999 742c6 -3.33301 9.00098 -7.66699 9.00098 -13
c0 -6 -3.66699 -12.333 -11 -19l-43.5 17.5l-38 14c-12.333 4.33301 -24.833 8.5 -37.5 12.5s-26.667 8 -42 12s-23 13.667 -23 29c0 10 4.16699 20.5 12.5 31.5s20.166 19.167 35.499 24.5z" />
    <glyph glyph-name="Aacute" unicode="&#xc1;" horiz-adv-x="687" 
d="M429 238h-223.001l-64 -161c-3.33301 -8 -5 -14.667 -5 -20c0 -14 20.333 -24 61 -30c4.66699 -0.666992 7.83398 -2.5 9.50098 -5.5s2.5 -6.5 2.5 -10.5s-0.666992 -9.33301 -2 -16c-18 1.33301 -37 2.5 -57 3.5s-39.667 1.5 -59 1.5c-13.333 0 -27 -0.333008 -41 -1
s-28.667 -2 -44 -4c-1.33301 5.33301 -2 10.666 -2 15.999c0 4.66699 0.833008 8.66699 2.5 12s5.16699 5.33301 10.5 6c20.667 3.33301 36.167 7.5 46.5 12.5s17.833 12.833 22.5 23.5l241 580c4.66699 11.333 11 17 19 17c2.66699 0 6.66699 -0.666992 12 -2l242 -598
c4 -9.33301 13 -16.666 27 -21.999s27.667 -9 41 -11c4 -1.33301 7.16699 -3.16602 9.5 -5.49902s3.5 -6.5 3.5 -12.5c0 -4 -0.666992 -9.33301 -2 -16c-21.333 1.33301 -42.333 2.5 -63 3.5s-40 1.5 -58 1.5c-18.667 0 -40 -0.5 -64 -1.5s-45.667 -2.16699 -65 -3.5
c-1.33301 6.66699 -2 12 -2 16c0 6 1.16699 10.167 3.5 12.5s4.5 3.5 6.5 3.5c17.333 3.33301 31.333 7.16602 42 11.499s16 10.833 16 19.5c0 4 -1.33301 9 -4 15zM412.999 279l-93 245l-97 -245h190zM408.999 851c15.333 -5.33301 27 -13.5 35 -24.5s12 -21.5 12 -31.5
c0 -15.333 -7.33301 -25 -22 -29c-15.333 -4 -29.5 -8 -42.5 -12s-25.667 -8.16699 -38 -12.5l-38 -14l-43.5 -17.5c-6.66699 6.66699 -10 13 -10 19c0 4.66699 2.66699 9 8 13z" />
    <glyph glyph-name="Acircumflex" unicode="&#xc2;" horiz-adv-x="687" 
d="M429 238h-223.001l-64 -161c-3.33301 -8 -5 -14.667 -5 -20c0 -14 20.333 -24 61 -30c4.66699 -0.666992 7.83398 -2.5 9.50098 -5.5s2.5 -6.5 2.5 -10.5s-0.666992 -9.33301 -2 -16c-18 1.33301 -37 2.5 -57 3.5s-39.667 1.5 -59 1.5c-13.333 0 -27 -0.333008 -41 -1
s-28.667 -2 -44 -4c-1.33301 5.33301 -2 10.666 -2 15.999c0 4.66699 0.833008 8.66699 2.5 12s5.16699 5.33301 10.5 6c20.667 3.33301 36.167 7.5 46.5 12.5s17.833 12.833 22.5 23.5l241 580c4.66699 11.333 11 17 19 17c2.66699 0 6.66699 -0.666992 12 -2l242 -598
c4 -9.33301 13 -16.666 27 -21.999s27.667 -9 41 -11c4 -1.33301 7.16699 -3.16602 9.5 -5.49902s3.5 -6.5 3.5 -12.5c0 -4 -0.666992 -9.33301 -2 -16c-21.333 1.33301 -42.333 2.5 -63 3.5s-40 1.5 -58 1.5c-18.667 0 -40 -0.5 -64 -1.5s-45.667 -2.16699 -65 -3.5
c-1.33301 6.66699 -2 12 -2 16c0 6 1.16699 10.167 3.5 12.5s4.5 3.5 6.5 3.5c17.333 3.33301 31.333 7.16602 42 11.499s16 10.833 16 19.5c0 4 -1.33301 9 -4 15zM412.999 279l-93 245l-97 -245h190zM476.999 740c2.66699 -2.66699 4 -6.00195 4 -10.002
c0 -3.33301 -1.16699 -6.66602 -3.5 -9.99902s-6.5 -6.66602 -12.5 -9.99902l-57.5 33c-19 10.667 -40.167 21.667 -63.5 33c-19.333 -10 -37.333 -20 -54 -30l-59 -36c-11.333 5.33301 -17 11.666 -17 18.999c0 4 1.66699 7.66699 5 11l108 113
c15.333 0 26.5 -1.66699 33.5 -5s15.167 -9.66602 24.5 -18.999z" />
    <glyph glyph-name="Atilde" unicode="&#xc3;" horiz-adv-x="687" 
d="M429 238h-223.001l-64 -161c-3.33301 -8 -5 -14.667 -5 -20c0 -14 20.333 -24 61 -30c4.66699 -0.666992 7.83398 -2.5 9.50098 -5.5s2.5 -6.5 2.5 -10.5s-0.666992 -9.33301 -2 -16c-18 1.33301 -37 2.5 -57 3.5s-39.667 1.5 -59 1.5c-13.333 0 -27 -0.333008 -41 -1
s-28.667 -2 -44 -4c-1.33301 5.33301 -2 10.666 -2 15.999c0 4.66699 0.833008 8.66699 2.5 12s5.16699 5.33301 10.5 6c20.667 3.33301 36.167 7.5 46.5 12.5s17.833 12.833 22.5 23.5l241 580c4.66699 11.333 11 17 19 17c2.66699 0 6.66699 -0.666992 12 -2l242 -598
c4 -9.33301 13 -16.666 27 -21.999s27.667 -9 41 -11c4 -1.33301 7.16699 -3.16602 9.5 -5.49902s3.5 -6.5 3.5 -12.5c0 -4 -0.666992 -9.33301 -2 -16c-21.333 1.33301 -42.333 2.5 -63 3.5s-40 1.5 -58 1.5c-18.667 0 -40 -0.5 -64 -1.5s-45.667 -2.16699 -65 -3.5
c-1.33301 6.66699 -2 12 -2 16c0 6 1.16699 10.167 3.5 12.5s4.5 3.5 6.5 3.5c17.333 3.33301 31.333 7.16602 42 11.499s16 10.833 16 19.5c0 4 -1.33301 9 -4 15zM412.999 279l-93 245l-97 -245h190zM213.999 738c14 20 29.835 37.1719 47.502 51.5049
s34.5 21.5 50.5 21.5c7.33301 0 15.333 -1.33301 24 -4s19.667 -7.33398 33 -14.001c9.33301 -4.66699 17.5 -7.83398 24.5 -9.50098s14.167 -2.5 21.5 -2.5c15.333 0 28 2.16699 38 6.5s19.667 11.166 29 20.499c6 -3.33301 10 -6.5 12 -9.5s3 -6.16699 3 -9.5
c0 -2 -0.333008 -3.83301 -1 -5.5s-1.33398 -3.16699 -2.00098 -4.5c-14.667 -20.667 -29.834 -37.334 -45.501 -50.001s-31.834 -19 -48.501 -19c-10 0 -20.5 1.5 -31.5 4.5s-21.167 6.83301 -30.5 11.5c-12 6 -21.5 10.167 -28.5 12.5s-13.167 3.5 -18.5 3.5
c-11.333 0 -22.166 -2.5 -32.499 -7.5s-20.833 -13.167 -31.5 -24.5c-10.667 5.33301 -16 11.666 -16 18.999c0 2.66699 1 5.66699 3 9z" />
    <glyph glyph-name="Adieresis" unicode="&#xc4;" horiz-adv-x="687" 
d="M429 238h-223.001l-64 -161c-3.33301 -8 -5 -14.667 -5 -20c0 -14 20.333 -24 61 -30c4.66699 -0.666992 7.83398 -2.5 9.50098 -5.5s2.5 -6.5 2.5 -10.5s-0.666992 -9.33301 -2 -16c-18 1.33301 -37 2.5 -57 3.5s-39.667 1.5 -59 1.5c-13.333 0 -27 -0.333008 -41 -1
s-28.667 -2 -44 -4c-1.33301 5.33301 -2 10.666 -2 15.999c0 4.66699 0.833008 8.66699 2.5 12s5.16699 5.33301 10.5 6c20.667 3.33301 36.167 7.5 46.5 12.5s17.833 12.833 22.5 23.5l241 580c4.66699 11.333 11 17 19 17c2.66699 0 6.66699 -0.666992 12 -2l242 -598
c4 -9.33301 13 -16.666 27 -21.999s27.667 -9 41 -11c4 -1.33301 7.16699 -3.16602 9.5 -5.49902s3.5 -6.5 3.5 -12.5c0 -4 -0.666992 -9.33301 -2 -16c-21.333 1.33301 -42.333 2.5 -63 3.5s-40 1.5 -58 1.5c-18.667 0 -40 -0.5 -64 -1.5s-45.667 -2.16699 -65 -3.5
c-1.33301 6.66699 -2 12 -2 16c0 6 1.16699 10.167 3.5 12.5s4.5 3.5 6.5 3.5c17.333 3.33301 31.333 7.16602 42 11.499s16 10.833 16 19.5c0 4 -1.33301 9 -4 15zM412.999 279l-93 245l-97 -245h190zM250.999 710c-16 0 -29.5 5.5 -40.5 16.5s-16.5 24.5 -16.5 40.5
s5.5 29.667 16.5 41s24.5 17 40.5 17c15.333 0 28.333 -5.66699 39 -17s16 -25 16 -41s-5.33301 -29.5 -16 -40.5s-23.667 -16.5 -39 -16.5zM452.999 710c-15.333 0 -28.666 5.5 -39.999 16.5s-17 24.5 -17 40.5s5.66699 29.667 17 41s24.666 17 39.999 17
s28.333 -5.66699 39 -17s16 -25 16 -41s-5.33301 -29.5 -16 -40.5s-23.667 -16.5 -39 -16.5z" />
    <glyph glyph-name="Aring" unicode="&#xc5;" horiz-adv-x="687" 
d="M429 238h-223.001l-64 -161c-3.33301 -8 -5 -14.667 -5 -20c0 -14 20.333 -24 61 -30c4.66699 -0.666992 7.83398 -2.5 9.50098 -5.5s2.5 -6.5 2.5 -10.5s-0.666992 -9.33301 -2 -16c-18 1.33301 -37 2.5 -57 3.5s-39.667 1.5 -59 1.5c-13.333 0 -27 -0.333008 -41 -1
s-28.667 -2 -44 -4c-1.33301 5.33301 -2 10.666 -2 15.999c0 4.66699 0.833008 8.66699 2.5 12s5.16699 5.33301 10.5 6c20.667 3.33301 36.167 7.5 46.5 12.5s17.833 12.833 22.5 23.5l241 580c4.66699 11.333 11 17 19 17c2.66699 0 6.66699 -0.666992 12 -2l242 -598
c4 -9.33301 13 -16.666 27 -21.999s27.667 -9 41 -11c4 -1.33301 7.16699 -3.16602 9.5 -5.49902s3.5 -6.5 3.5 -12.5c0 -4 -0.666992 -9.33301 -2 -16c-21.333 1.33301 -42.333 2.5 -63 3.5s-40 1.5 -58 1.5c-18.667 0 -40 -0.5 -64 -1.5s-45.667 -2.16699 -65 -3.5
c-1.33301 6.66699 -2 12 -2 16c0 6 1.16699 10.167 3.5 12.5s4.5 3.5 6.5 3.5c17.333 3.33301 31.333 7.16602 42 11.499s16 10.833 16 19.5c0 4 -1.33301 9 -4 15zM412.999 279l-93 245l-97 -245h190zM254.999 794c0 27.333 9.33301 48.835 28 64.502s40.667 23.5 66 23.5
c10.667 0 21.5 -2 32.5 -6s20.667 -9.83301 29 -17.5s15.166 -16.834 20.499 -27.501s8 -23 8 -37s-2.66699 -26.333 -8 -37s-12.166 -19.834 -20.499 -27.501s-18 -13.5 -29 -17.5s-22.167 -6 -33.5 -6c-24 0 -45.5 7.66699 -64.5 23s-28.5 37 -28.5 65zM341.999 847.002
c-9.33301 0 -17.998 -4.00098 -25.998 -12.001s-12 -19.667 -12 -35s4.16699 -28.666 12.5 -39.999s19.166 -17 32.499 -17c12.667 0 22.667 4.16699 30 12.5s11 19.5 11 33.5c0 15.333 -3.83301 28.833 -11.5 40.5s-19.834 17.5 -36.501 17.5z" />
    <glyph glyph-name="AE" unicode="&#xc6;" horiz-adv-x="910" 
d="M432 333v258.999c0 4.66699 -1.5 8.33398 -4.5 11.001s-6.16699 4 -9.5 4c-7.33301 0 -13 -4 -17 -12l-130 -262h161zM432 290.999l-178.996 0.00390625l-102 -214c-3.33301 -8 -5 -14.667 -5 -20c0 -14 20.333 -24 61 -30c5.33301 -0.666992 8.66602 -2.5 9.99902 -5.5
s2 -6.5 2 -10.5s-0.666992 -9.33301 -2 -16c-18 1.33301 -38.5 2.5 -61.5 3.5s-44.167 1.5 -63.5 1.5c-13.333 0 -27 -0.333008 -41 -1s-28.667 -2 -44 -4c-1.33301 5.33301 -2 10.666 -2 15.999c0 4.66699 0.833008 8.66699 2.5 12s5.16699 5.33301 10.5 6
c20.667 3.33301 36 7.66602 46 12.999s17.667 13 23 23l254 514c4 6.66699 6 12.667 6 18s-3.66699 10 -11 14s-22.666 7.66699 -45.999 11c-6.66699 0.666992 -10 6.33398 -10 17.001c0 3.33301 0.166992 6.16602 0.5 8.49902s0.833008 4.83301 1.5 7.5
c28.667 -2 52 -3.33301 70 -4s34.667 -1 50 -1h272c30 0 56 1 78 3s36.667 3 44 3c8.66699 0 14.667 -5.5 18 -16.5s6 -24.167 8 -39.5l6.5 -49c2.33301 -17.333 7.16602 -32 14.499 -44c-4 -4 -10 -6 -18 -6c-3.33301 0 -6.5 0.666992 -9.5 2
s-5.16699 3.66602 -6.5 6.99902c-8 17.333 -15.667 32.166 -23 44.499s-16 22.5 -26 30.5s-21.833 14 -35.5 18s-30.5 6 -50.5 6h-148v-276h157c13.333 0 22.666 6.33301 27.999 19s9.66602 28.334 12.999 47.001c2 8.66699 8.33301 13 19 13
c4.66699 0 9.66699 -0.666992 15 -2c-1.33301 -14.667 -2.5 -31.5 -3.5 -50.5s-1.5 -35.5 -1.5 -49.5c0 -11.333 0.333008 -25 1 -41s2 -34.333 4 -55c-1.33301 -0.666992 -3.66602 -1.16699 -6.99902 -1.5s-6 -0.5 -8 -0.5c-10.667 0 -17 4.33301 -19 13
c-2.66699 18 -6.83398 33.5 -12.501 46.5s-15.167 19.5 -28.5 19.5h-157v-215c0 -14 9 -23.333 27 -28s47.667 -7 89 -7h55c19.333 0 36.166 2.83301 50.499 8.5s27 13.334 38 23.001s20.833 21.167 29.5 34.5s17 28 25 44c2.66699 4.66699 7.66699 7 15 7
c3.33301 0 6.83301 -1 10.5 -3l10.5 -6c-5.33301 -9.33301 -10 -22.5 -14 -39.5l-12 -51c-4 -17 -8.5 -31.833 -13.5 -44.5s-10.833 -19 -17.5 -19c-5.33301 0 -13 0.333008 -23 1s-20.833 1.16699 -32.5 1.5s-23.5 0.833008 -35.5 1.5s-22.333 1 -31 1h-219
c-19.333 0 -40 -0.5 -62 -1.5s-43 -2.16699 -63 -3.5c-1.33301 6.66699 -2 12 -2 16c0 9.33301 3.33301 14.666 10 15.999c25.333 4.66699 43.5 9.66699 54.5 15s16.5 14.666 16.5 27.999v221z" />
    <glyph glyph-name="Ccedilla" unicode="&#xc7;" horiz-adv-x="669" 
d="M591 5c-28.667 -4.66699 -57.8398 -8.33691 -87.5068 -11.0039s-61.5 -4.66699 -95.5 -6c-3.33301 -5.33301 -6.33301 -11 -9 -17s-4 -11.333 -4 -16c0 -9.33301 7.66699 -21 23 -35c8 -8 14.667 -16.833 20 -26.5s8 -19.834 8 -30.501
c0 -21.333 -9.33301 -40.833 -28 -58.5s-46 -31.834 -82 -42.501c-4 6.66699 -6 12.667 -6 18c0 6 2.33301 10 7 12c16.667 8.66699 27.834 17.834 33.501 27.501s8.5 19.167 8.5 28.5c0 12.667 -7.33301 25.667 -22 39c-14.667 14.667 -22 26.334 -22 35.001
c0 4.66699 0.333008 8.83398 1 12.501s2.16699 7.83398 4.5 12.501s6 10.167 11 16.5s11.833 14.5 20.5 24.5c-55.333 0.666992 -103.333 9.83398 -144 27.501s-74.667 41.667 -102 72s-47.666 65.833 -60.999 106.5s-20 84.334 -20 131.001c0 39.333 6.83301 79 20.5 119
s34.334 76.167 62.001 108.5s62.5 58.666 104.5 78.999s91 30.5 147 30.5c22 0 42.167 -0.5 60.5 -1.5s35.833 -2.66699 52.5 -5s33 -5.33301 49 -9s32.667 -7.83398 50 -12.501c0.666992 -18 3 -40 7 -66s9.33301 -52.333 16 -79c-5.33301 -2.66699 -10.666 -4 -15.999 -4
s-10.166 0.666992 -14.499 2s-7.16602 5 -8.49902 11c-12 44 -31 75.333 -57 94s-63.667 28 -113 28c-41.333 0 -77.833 -6.66699 -109.5 -20s-58.334 -32 -80.001 -56s-38 -52.833 -49 -86.5s-16.5 -71.167 -16.5 -112.5c0 -46 7 -88.333 21 -127s32.833 -72 56.5 -100
s51.334 -49.667 83.001 -65s65.5 -23 101.5 -23c28.667 0 52.834 2.83301 72.501 8.5s36 13.834 49 24.501s24 23.834 33 39.501s17.5 33.5 25.5 53.5c4.66699 10 12.667 15 24 15c3.33301 0 6.83301 -0.5 10.5 -1.5s6.5 -2.16699 8.5 -3.5c-8 -23.333 -16 -49 -24 -77
s-14.667 -56 -20 -84z" />
    <glyph glyph-name="Egrave" unicode="&#xc8;" horiz-adv-x="605" 
d="M221 609l0.00390625 -255.996h156c13.333 0 22.833 6.5 28.5 19.5s10.167 28.833 13.5 47.5c2 8.66699 8 13 18 13c2 0 4.66699 -0.333008 8 -1s6 -1.33398 8 -2.00098c-1.33301 -14.667 -2.5 -31.334 -3.5 -50.001s-1.5 -35 -1.5 -49
c0 -11.333 0.333008 -25.166 1 -41.499s2 -34.833 4 -55.5c-5.33301 -1.33301 -10.333 -2 -15 -2c-10.667 0 -17 4.33301 -19 13c-3.33301 18.667 -7.83301 34.5 -13.5 47.5s-15.167 19.5 -28.5 19.5h-156v-236c0 -14 9 -23.333 27 -28s47.667 -7 89 -7h55
c19.333 0 36.166 2.83301 50.499 8.5s27 13.334 38 23.001s20.833 21.167 29.5 34.5s17 28 25 44c2 4.66699 7 7 15 7c3.33301 0 6.83301 -1 10.5 -3l10.5 -6c-6 -12.667 -11.167 -27.834 -15.5 -45.501l-12.5 -50.5c-4 -16 -8.16699 -29.667 -12.5 -41
s-9.83301 -17 -16.5 -17c-5.33301 0 -13 0.333008 -23 1s-20.833 1.16699 -32.5 1.5s-23.5 0.833008 -35.5 1.5s-22.333 1 -31 1h-219c-19.333 0 -40 -0.5 -62 -1.5s-43 -2.16699 -63 -3.5c-1.33301 6.66699 -2 12 -2 16c0 9.33301 3.33301 14.666 10 15.999
c25.333 4.66699 43.5 9.66699 54.5 15s16.5 14.666 16.5 27.999v509c0 13.333 -4.83301 22.5 -14.5 27.5s-28.5 10.167 -56.5 15.5c-6.66699 1.33301 -10 7 -10 17c0 3.33301 0.166992 6.16602 0.5 8.49902s0.833008 4.83301 1.5 7.5c28.667 -2 52.667 -3.33301 72 -4
s36.666 -1 51.999 -1h197c30 0 56 1 78 3s36.667 3 44 3c8.66699 0 14.5 -5.5 17.5 -16.5s5.5 -24.167 7.5 -39.5s4.33301 -31.666 7 -48.999s7.66699 -32 15 -44c-5.33301 -4 -11.333 -6 -18 -6c-8.66699 0 -14.334 3 -17.001 9c-8 17.333 -15.667 32.166 -23 44.499
s-15.833 22.5 -25.5 30.5s-21.334 14 -35.001 18s-30.5 6 -50.5 6h-148zM381.004 742.004c6 -3.33301 9.00098 -7.66699 9.00098 -13c0 -6 -3.66699 -12.333 -11 -19l-43.5 17.5l-38 14c-12.333 4.33301 -24.833 8.5 -37.5 12.5s-26.667 8 -42 12s-23 13.667 -23 29
c0 10 4.16699 20.5 12.5 31.5s20.166 19.167 35.499 24.5z" />
    <glyph glyph-name="Eacute" unicode="&#xc9;" horiz-adv-x="605" 
d="M221 609l0.00390625 -255.996h156c13.333 0 22.833 6.5 28.5 19.5s10.167 28.833 13.5 47.5c2 8.66699 8 13 18 13c2 0 4.66699 -0.333008 8 -1s6 -1.33398 8 -2.00098c-1.33301 -14.667 -2.5 -31.334 -3.5 -50.001s-1.5 -35 -1.5 -49
c0 -11.333 0.333008 -25.166 1 -41.499s2 -34.833 4 -55.5c-5.33301 -1.33301 -10.333 -2 -15 -2c-10.667 0 -17 4.33301 -19 13c-3.33301 18.667 -7.83301 34.5 -13.5 47.5s-15.167 19.5 -28.5 19.5h-156v-236c0 -14 9 -23.333 27 -28s47.667 -7 89 -7h55
c19.333 0 36.166 2.83301 50.499 8.5s27 13.334 38 23.001s20.833 21.167 29.5 34.5s17 28 25 44c2 4.66699 7 7 15 7c3.33301 0 6.83301 -1 10.5 -3l10.5 -6c-6 -12.667 -11.167 -27.834 -15.5 -45.501l-12.5 -50.5c-4 -16 -8.16699 -29.667 -12.5 -41
s-9.83301 -17 -16.5 -17c-5.33301 0 -13 0.333008 -23 1s-20.833 1.16699 -32.5 1.5s-23.5 0.833008 -35.5 1.5s-22.333 1 -31 1h-219c-19.333 0 -40 -0.5 -62 -1.5s-43 -2.16699 -63 -3.5c-1.33301 6.66699 -2 12 -2 16c0 9.33301 3.33301 14.666 10 15.999
c25.333 4.66699 43.5 9.66699 54.5 15s16.5 14.666 16.5 27.999v509c0 13.333 -4.83301 22.5 -14.5 27.5s-28.5 10.167 -56.5 15.5c-6.66699 1.33301 -10 7 -10 17c0 3.33301 0.166992 6.16602 0.5 8.49902s0.833008 4.83301 1.5 7.5c28.667 -2 52.667 -3.33301 72 -4
s36.666 -1 51.999 -1h197c30 0 56 1 78 3s36.667 3 44 3c8.66699 0 14.5 -5.5 17.5 -16.5s5.5 -24.167 7.5 -39.5s4.33301 -31.666 7 -48.999s7.66699 -32 15 -44c-5.33301 -4 -11.333 -6 -18 -6c-8.66699 0 -14.334 3 -17.001 9c-8 17.333 -15.667 32.166 -23 44.499
s-15.833 22.5 -25.5 30.5s-21.334 14 -35.001 18s-30.5 6 -50.5 6h-148zM360.004 851.004c15.333 -5.33301 27 -13.5 35 -24.5s12 -21.5 12 -31.5c0 -15.333 -7.33301 -25 -22 -29c-15.333 -4 -29.5 -8 -42.5 -12s-25.667 -8.16699 -38 -12.5l-38 -14l-43.5 -17.5
c-6.66699 6.66699 -10 13 -10 19c0 4.66699 2.66699 9 8 13z" />
    <glyph glyph-name="Ecircumflex" unicode="&#xca;" horiz-adv-x="605" 
d="M221 609l0.00390625 -255.996h156c13.333 0 22.833 6.5 28.5 19.5s10.167 28.833 13.5 47.5c2 8.66699 8 13 18 13c2 0 4.66699 -0.333008 8 -1s6 -1.33398 8 -2.00098c-1.33301 -14.667 -2.5 -31.334 -3.5 -50.001s-1.5 -35 -1.5 -49
c0 -11.333 0.333008 -25.166 1 -41.499s2 -34.833 4 -55.5c-5.33301 -1.33301 -10.333 -2 -15 -2c-10.667 0 -17 4.33301 -19 13c-3.33301 18.667 -7.83301 34.5 -13.5 47.5s-15.167 19.5 -28.5 19.5h-156v-236c0 -14 9 -23.333 27 -28s47.667 -7 89 -7h55
c19.333 0 36.166 2.83301 50.499 8.5s27 13.334 38 23.001s20.833 21.167 29.5 34.5s17 28 25 44c2 4.66699 7 7 15 7c3.33301 0 6.83301 -1 10.5 -3l10.5 -6c-6 -12.667 -11.167 -27.834 -15.5 -45.501l-12.5 -50.5c-4 -16 -8.16699 -29.667 -12.5 -41
s-9.83301 -17 -16.5 -17c-5.33301 0 -13 0.333008 -23 1s-20.833 1.16699 -32.5 1.5s-23.5 0.833008 -35.5 1.5s-22.333 1 -31 1h-219c-19.333 0 -40 -0.5 -62 -1.5s-43 -2.16699 -63 -3.5c-1.33301 6.66699 -2 12 -2 16c0 9.33301 3.33301 14.666 10 15.999
c25.333 4.66699 43.5 9.66699 54.5 15s16.5 14.666 16.5 27.999v509c0 13.333 -4.83301 22.5 -14.5 27.5s-28.5 10.167 -56.5 15.5c-6.66699 1.33301 -10 7 -10 17c0 3.33301 0.166992 6.16602 0.5 8.49902s0.833008 4.83301 1.5 7.5c28.667 -2 52.667 -3.33301 72 -4
s36.666 -1 51.999 -1h197c30 0 56 1 78 3s36.667 3 44 3c8.66699 0 14.5 -5.5 17.5 -16.5s5.5 -24.167 7.5 -39.5s4.33301 -31.666 7 -48.999s7.66699 -32 15 -44c-5.33301 -4 -11.333 -6 -18 -6c-8.66699 0 -14.334 3 -17.001 9c-8 17.333 -15.667 32.166 -23 44.499
s-15.833 22.5 -25.5 30.5s-21.334 14 -35.001 18s-30.5 6 -50.5 6h-148zM429.004 740.004c2.66699 -2.66699 4 -6.00195 4 -10.002c0 -3.33301 -1.16699 -6.66602 -3.5 -9.99902s-6.5 -6.66602 -12.5 -9.99902l-57.5 33c-19 10.667 -40.167 21.667 -63.5 33
c-19.333 -10 -37.333 -20 -54 -30l-59 -36c-11.333 5.33301 -17 11.666 -17 18.999c0 4 1.66699 7.66699 5 11l108 113c15.333 0 26.5 -1.66699 33.5 -5s15.167 -9.66602 24.5 -18.999z" />
    <glyph glyph-name="Edieresis" unicode="&#xcb;" horiz-adv-x="605" 
d="M221 609l0.00390625 -255.996h156c13.333 0 22.833 6.5 28.5 19.5s10.167 28.833 13.5 47.5c2 8.66699 8 13 18 13c2 0 4.66699 -0.333008 8 -1s6 -1.33398 8 -2.00098c-1.33301 -14.667 -2.5 -31.334 -3.5 -50.001s-1.5 -35 -1.5 -49
c0 -11.333 0.333008 -25.166 1 -41.499s2 -34.833 4 -55.5c-5.33301 -1.33301 -10.333 -2 -15 -2c-10.667 0 -17 4.33301 -19 13c-3.33301 18.667 -7.83301 34.5 -13.5 47.5s-15.167 19.5 -28.5 19.5h-156v-236c0 -14 9 -23.333 27 -28s47.667 -7 89 -7h55
c19.333 0 36.166 2.83301 50.499 8.5s27 13.334 38 23.001s20.833 21.167 29.5 34.5s17 28 25 44c2 4.66699 7 7 15 7c3.33301 0 6.83301 -1 10.5 -3l10.5 -6c-6 -12.667 -11.167 -27.834 -15.5 -45.501l-12.5 -50.5c-4 -16 -8.16699 -29.667 -12.5 -41
s-9.83301 -17 -16.5 -17c-5.33301 0 -13 0.333008 -23 1s-20.833 1.16699 -32.5 1.5s-23.5 0.833008 -35.5 1.5s-22.333 1 -31 1h-219c-19.333 0 -40 -0.5 -62 -1.5s-43 -2.16699 -63 -3.5c-1.33301 6.66699 -2 12 -2 16c0 9.33301 3.33301 14.666 10 15.999
c25.333 4.66699 43.5 9.66699 54.5 15s16.5 14.666 16.5 27.999v509c0 13.333 -4.83301 22.5 -14.5 27.5s-28.5 10.167 -56.5 15.5c-6.66699 1.33301 -10 7 -10 17c0 3.33301 0.166992 6.16602 0.5 8.49902s0.833008 4.83301 1.5 7.5c28.667 -2 52.667 -3.33301 72 -4
s36.666 -1 51.999 -1h197c30 0 56 1 78 3s36.667 3 44 3c8.66699 0 14.5 -5.5 17.5 -16.5s5.5 -24.167 7.5 -39.5s4.33301 -31.666 7 -48.999s7.66699 -32 15 -44c-5.33301 -4 -11.333 -6 -18 -6c-8.66699 0 -14.334 3 -17.001 9c-8 17.333 -15.667 32.166 -23 44.499
s-15.833 22.5 -25.5 30.5s-21.334 14 -35.001 18s-30.5 6 -50.5 6h-148zM201.004 710.004c-16 0 -29.5 5.5 -40.5 16.5s-16.5 24.5 -16.5 40.5s5.5 29.667 16.5 41s24.5 17 40.5 17c15.333 0 28.333 -5.66699 39 -17s16 -25 16 -41s-5.33301 -29.5 -16 -40.5
s-23.667 -16.5 -39 -16.5zM403.004 710.004c-15.333 0 -28.666 5.5 -39.999 16.5s-17 24.5 -17 40.5s5.66699 29.667 17 41s24.666 17 39.999 17s28.333 -5.66699 39 -17s16 -25 16 -41s-5.33301 -29.5 -16 -40.5s-23.667 -16.5 -39 -16.5z" />
    <glyph glyph-name="Igrave" unicode="&#xcc;" 
d="M216 70c0 -13.333 4.66699 -22.499 14 -27.499s26.666 -10.167 51.999 -15.5c6.66699 -1.33301 10 -6.66602 10 -15.999c0 -4 -0.666992 -9.33301 -2 -16c-20.667 1.33301 -41.334 2.5 -62.001 3.5s-40.334 1.5 -59.001 1.5c-18 0 -37.833 -0.5 -59.5 -1.5
s-42.167 -2.16699 -61.5 -3.5c-1.33301 6.66699 -2 12 -2 16c0 9.33301 3.33301 14.666 10 15.999c25.333 4.66699 42.666 9.66699 51.999 15s14 14.666 14 27.999v509c0 13.333 -4.66699 22.833 -14 28.5s-26.666 10.5 -51.999 14.5c-4 0.666992 -6.66699 2.66699 -8 6
s-2 7 -2 11s0.666992 9.33301 2 16c20 -1.33301 40.833 -2.5 62.5 -3.5s41.167 -1.5 58.5 -1.5c16.667 0 35.834 0.5 57.501 1.5s42.834 2.16699 63.501 3.5c1.33301 -6.66699 2 -12 2 -16c0 -10 -3.33301 -15.667 -10 -17c-25.333 -4 -42.666 -8.83301 -51.999 -14.5
s-14 -15.167 -14 -28.5v-509zM258 742.001c6 -3.33301 9.00098 -7.66699 9.00098 -13c0 -6 -3.66699 -12.333 -11 -19l-43.5 17.5l-38 14c-12.333 4.33301 -24.833 8.5 -37.5 12.5s-26.667 8 -42 12s-23 13.667 -23 29c0 10 4.16699 20.5 12.5 31.5
s20.166 19.167 35.499 24.5z" />
    <glyph glyph-name="Iacute" unicode="&#xcd;" 
d="M216 70c0 -13.333 4.66699 -22.499 14 -27.499s26.666 -10.167 51.999 -15.5c6.66699 -1.33301 10 -6.66602 10 -15.999c0 -4 -0.666992 -9.33301 -2 -16c-20.667 1.33301 -41.334 2.5 -62.001 3.5s-40.334 1.5 -59.001 1.5c-18 0 -37.833 -0.5 -59.5 -1.5
s-42.167 -2.16699 -61.5 -3.5c-1.33301 6.66699 -2 12 -2 16c0 9.33301 3.33301 14.666 10 15.999c25.333 4.66699 42.666 9.66699 51.999 15s14 14.666 14 27.999v509c0 13.333 -4.66699 22.833 -14 28.5s-26.666 10.5 -51.999 14.5c-4 0.666992 -6.66699 2.66699 -8 6
s-2 7 -2 11s0.666992 9.33301 2 16c20 -1.33301 40.833 -2.5 62.5 -3.5s41.167 -1.5 58.5 -1.5c16.667 0 35.834 0.5 57.501 1.5s42.834 2.16699 63.501 3.5c1.33301 -6.66699 2 -12 2 -16c0 -10 -3.33301 -15.667 -10 -17c-25.333 -4 -42.666 -8.83301 -51.999 -14.5
s-14 -15.167 -14 -28.5v-509zM222 851.001c15.333 -5.33301 27 -13.5 35 -24.5s12 -21.5 12 -31.5c0 -15.333 -7.33301 -25 -22 -29c-15.333 -4 -29.5 -8 -42.5 -12s-25.667 -8.16699 -38 -12.5l-38 -14l-43.5 -17.5c-6.66699 6.66699 -10 13 -10 19
c0 4.66699 2.66699 9 8 13z" />
    <glyph glyph-name="Icircumflex" unicode="&#xce;" 
d="M216 70c0 -13.333 4.66699 -22.499 14 -27.499s26.666 -10.167 51.999 -15.5c6.66699 -1.33301 10 -6.66602 10 -15.999c0 -4 -0.666992 -9.33301 -2 -16c-20.667 1.33301 -41.334 2.5 -62.001 3.5s-40.334 1.5 -59.001 1.5c-18 0 -37.833 -0.5 -59.5 -1.5
s-42.167 -2.16699 -61.5 -3.5c-1.33301 6.66699 -2 12 -2 16c0 9.33301 3.33301 14.666 10 15.999c25.333 4.66699 42.666 9.66699 51.999 15s14 14.666 14 27.999v509c0 13.333 -4.66699 22.833 -14 28.5s-26.666 10.5 -51.999 14.5c-4 0.666992 -6.66699 2.66699 -8 6
s-2 7 -2 11s0.666992 9.33301 2 16c20 -1.33301 40.833 -2.5 62.5 -3.5s41.167 -1.5 58.5 -1.5c16.667 0 35.834 0.5 57.501 1.5s42.834 2.16699 63.501 3.5c1.33301 -6.66699 2 -12 2 -16c0 -10 -3.33301 -15.667 -10 -17c-25.333 -4 -42.666 -8.83301 -51.999 -14.5
s-14 -15.167 -14 -28.5v-509zM299 740.001c2.66699 -2.66699 4 -6.00195 4 -10.002c0 -3.33301 -1.16699 -6.66602 -3.5 -9.99902s-6.5 -6.66602 -12.5 -9.99902l-57.5 33c-19 10.667 -40.167 21.667 -63.5 33c-19.333 -10 -37.333 -20 -54 -30l-59 -36
c-11.333 5.33301 -17 11.666 -17 18.999c0 4 1.66699 7.66699 5 11l108 113c15.333 0 26.5 -1.66699 33.5 -5s15.167 -9.66602 24.5 -18.999z" />
    <glyph glyph-name="Idieresis" unicode="&#xcf;" 
d="M216 70c0 -13.333 4.66699 -22.499 14 -27.499s26.666 -10.167 51.999 -15.5c6.66699 -1.33301 10 -6.66602 10 -15.999c0 -4 -0.666992 -9.33301 -2 -16c-20.667 1.33301 -41.334 2.5 -62.001 3.5s-40.334 1.5 -59.001 1.5c-18 0 -37.833 -0.5 -59.5 -1.5
s-42.167 -2.16699 -61.5 -3.5c-1.33301 6.66699 -2 12 -2 16c0 9.33301 3.33301 14.666 10 15.999c25.333 4.66699 42.666 9.66699 51.999 15s14 14.666 14 27.999v509c0 13.333 -4.66699 22.833 -14 28.5s-26.666 10.5 -51.999 14.5c-4 0.666992 -6.66699 2.66699 -8 6
s-2 7 -2 11s0.666992 9.33301 2 16c20 -1.33301 40.833 -2.5 62.5 -3.5s41.167 -1.5 58.5 -1.5c16.667 0 35.834 0.5 57.501 1.5s42.834 2.16699 63.501 3.5c1.33301 -6.66699 2 -12 2 -16c0 -10 -3.33301 -15.667 -10 -17c-25.333 -4 -42.666 -8.83301 -51.999 -14.5
s-14 -15.167 -14 -28.5v-509zM70 710.001c-16 0 -29.5 5.5 -40.5 16.5s-16.5 24.5 -16.5 40.5s5.5 29.667 16.5 41s24.5 17 40.5 17c15.333 0 28.333 -5.66699 39 -17s16 -25 16 -41s-5.33301 -29.5 -16 -40.5s-23.667 -16.5 -39 -16.5zM272 710.001
c-15.333 0 -28.666 5.5 -39.999 16.5s-17 24.5 -17 40.5s5.66699 29.667 17 41s24.666 17 39.999 17s28.333 -5.66699 39 -17s16 -25 16 -41s-5.33301 -29.5 -16 -40.5s-23.667 -16.5 -39 -16.5z" />
    <glyph glyph-name="Eth" unicode="&#xd0;" horiz-adv-x="772" 
d="M727 325c0 -39.333 -6.8291 -78.334 -20.4961 -117.001s-34.334 -73.5 -62.001 -104.5s-62.667 -56 -105 -75s-91.833 -28.5 -148.5 -28.5h-205c-17.333 0 -36.833 -0.5 -58.5 -1.5s-42.834 -2.16699 -63.501 -3.5c-1.33301 6.66699 -2 12 -2 16
c0 9.33301 3.33301 14.666 10 15.999c25.333 6 43.166 11.667 53.499 17s15.5 14 15.5 26v242h-104c-0.666992 4 -1 7.5 -1 10.5v8.5c0 10 1.33301 16.833 4 20.5s6.66699 5.5 12 5.5h89v222c0 13.333 -4.83301 22.666 -14.5 27.999s-27.834 10.333 -54.501 15
c-3.33301 0.666992 -5.83301 2.66699 -7.5 6s-2.5 7 -2.5 11s0.666992 9.33301 2 16c14 -1.33301 26.167 -2.16602 36.5 -2.49902s20 -0.833008 29 -1.5s18 -1 27 -1h28.5h205c56 0 105.167 -8.66699 147.5 -26s77.5 -40.666 105.5 -69.999s49 -63.666 63 -102.999
s21 -81.333 21 -126zM623.004 305.999c0 102.667 -25.5 178.833 -76.5 228.5s-125.833 74.5 -224.5 74.5h-86v-252h195c0.666992 -3.33301 1 -6.66602 1 -9.99902v-9c0 -17.333 -5.33301 -26 -16 -26h-180v-235c0 -6.66699 1.66699 -12.334 5 -17.001s9 -8.33398 17 -11.001
s18.833 -4.66699 32.5 -6s31.167 -2 52.5 -2c51.333 0 94.833 6.16699 130.5 18.5s64.5 30 86.5 53s38 50.833 48 83.5s15 69.334 15 110.001z" />
    <glyph glyph-name="Ntilde" unicode="&#xd1;" horiz-adv-x="721" 
d="M563 159l0.000976562 417.999c0 14.667 -5.33301 25 -16 31s-28.667 10.667 -54 14c-7.33301 0.666992 -11 6.33398 -11 17.001c0 4 0.666992 9.33301 2 16c16.667 -1.33301 33.667 -2.5 51 -3.5s33.666 -1.5 48.999 -1.5c14.667 0 30 0.5 46 1.5s31.667 2.16699 47 3.5
c1.33301 -6.66699 2 -12 2 -16c0 -10.667 -3.33301 -16.334 -10 -17.001c-22.667 -3.33301 -38.167 -8 -46.5 -14s-12.5 -15.667 -12.5 -29v-589c-1.33301 -0.666992 -3.66602 -1.16699 -6.99902 -1.5s-6 -0.5 -8 -0.5c-4.66699 0 -9 1.16699 -13 3.5
s-8.66699 7.16602 -14 14.499l-406 535v-471c0 -13.333 4.66699 -22.666 14 -27.999s27.333 -10.333 54 -15c6.66699 -1.33301 10 -6.66602 10 -15.999c0 -4 -0.666992 -9.33301 -2 -16c-16.667 1.33301 -33.5 2.5 -50.5 3.5s-32.833 1.5 -47.5 1.5
c-13.333 0 -29 -0.5 -47 -1.5s-34.333 -2.16699 -49 -3.5c-1.33301 6.66699 -2 12 -2 16c0 9.33301 3.66699 14.666 11 15.999c24 4.66699 40.167 9.66699 48.5 15s12.5 14.666 12.5 27.999v514c0 10.667 -3.83301 18.834 -11.5 24.501s-23.5 10.167 -47.5 13.5
c-7.33301 1.33301 -11 7 -11 17c0 3.33301 0.333008 6.33301 1 9c0 2 0.333008 4.33301 1 7c13.333 -1.33301 26 -2.33301 38 -3c10.667 -0.666992 22 -1.16699 34 -1.5s22.667 -0.5 32 -0.5c19.333 0 32.166 -0.666992 38.499 -2s11.5 -4.66602 15.5 -9.99902z
M227.001 737.999c14 20 29.835 37.1719 47.502 51.5049s34.5 21.5 50.5 21.5c7.33301 0 15.333 -1.33301 24 -4s19.667 -7.33398 33 -14.001c9.33301 -4.66699 17.5 -7.83398 24.5 -9.50098s14.167 -2.5 21.5 -2.5c15.333 0 28 2.16699 38 6.5s19.667 11.166 29 20.499
c6 -3.33301 10 -6.5 12 -9.5s3 -6.16699 3 -9.5c0 -2 -0.333008 -3.83301 -1 -5.5s-1.33398 -3.16699 -2.00098 -4.5c-14.667 -20.667 -29.834 -37.334 -45.501 -50.001s-31.834 -19 -48.501 -19c-10 0 -20.5 1.5 -31.5 4.5s-21.167 6.83301 -30.5 11.5
c-12 6 -21.5 10.167 -28.5 12.5s-13.167 3.5 -18.5 3.5c-11.333 0 -22.166 -2.5 -32.499 -7.5s-20.833 -13.167 -31.5 -24.5c-10.667 5.33301 -16 11.666 -16 18.999c0 2.66699 1 5.66699 3 9z" />
    <glyph glyph-name="Ograve" unicode="&#xd2;" horiz-adv-x="749" 
d="M45 325c0 46 8.33008 89.334 24.9971 130.001s39.334 76.334 68.001 107.001s62 55 100 73s78 27 120 27c58 0 108.667 -9.16699 152 -27.5s79.166 -43 107.499 -74s49.5 -66.833 63.5 -107.5s21 -83.334 21 -128.001c0 -52.667 -8.66699 -99.834 -26 -141.501
s-41.166 -77 -71.499 -106s-66 -51.167 -107 -66.5s-84.833 -23 -131.5 -23c-47.333 0 -90.666 8 -129.999 24s-73.166 38.833 -101.499 68.5s-50.333 65.167 -66 106.5s-23.5 87.333 -23.5 138zM388.997 36.001c31.333 0 60 6.00195 86 18.002s48.333 28.667 67 50
s33.167 46.666 43.5 75.999s15.5 61.333 15.5 96c0 48 -5 92.5 -15 133.5s-25.167 76.667 -45.5 107s-46 54.166 -77 71.499s-67.167 26 -108.5 26c-27.333 0 -53.5 -5.16699 -78.5 -15.5s-47 -25.333 -66 -45s-34.167 -43.834 -45.5 -72.501s-17 -61.667 -17 -99
c0 -49.333 5.33301 -95.166 16 -137.499s26.167 -79 46.5 -110s45.5 -55.167 75.5 -72.5s64.333 -26 103 -26zM461.997 742.003c6 -3.33301 9.00098 -7.66699 9.00098 -13c0 -6 -3.66699 -12.333 -11 -19l-43.5 17.5l-38 14c-12.333 4.33301 -24.833 8.5 -37.5 12.5
s-26.667 8 -42 12s-23 13.667 -23 29c0 10 4.16699 20.5 12.5 31.5s20.166 19.167 35.499 24.5z" />
    <glyph glyph-name="Oacute" unicode="&#xd3;" horiz-adv-x="749" 
d="M45 325c0 46 8.33008 89.334 24.9971 130.001s39.334 76.334 68.001 107.001s62 55 100 73s78 27 120 27c58 0 108.667 -9.16699 152 -27.5s79.166 -43 107.499 -74s49.5 -66.833 63.5 -107.5s21 -83.334 21 -128.001c0 -52.667 -8.66699 -99.834 -26 -141.501
s-41.166 -77 -71.499 -106s-66 -51.167 -107 -66.5s-84.833 -23 -131.5 -23c-47.333 0 -90.666 8 -129.999 24s-73.166 38.833 -101.499 68.5s-50.333 65.167 -66 106.5s-23.5 87.333 -23.5 138zM388.997 36.001c31.333 0 60 6.00195 86 18.002s48.333 28.667 67 50
s33.167 46.666 43.5 75.999s15.5 61.333 15.5 96c0 48 -5 92.5 -15 133.5s-25.167 76.667 -45.5 107s-46 54.166 -77 71.499s-67.167 26 -108.5 26c-27.333 0 -53.5 -5.16699 -78.5 -15.5s-47 -25.333 -66 -45s-34.167 -43.834 -45.5 -72.501s-17 -61.667 -17 -99
c0 -49.333 5.33301 -95.166 16 -137.499s26.167 -79 46.5 -110s45.5 -55.167 75.5 -72.5s64.333 -26 103 -26zM432.997 851.003c15.333 -5.33301 27 -13.5 35 -24.5s12 -21.5 12 -31.5c0 -15.333 -7.33301 -25 -22 -29c-15.333 -4 -29.5 -8 -42.5 -12
s-25.667 -8.16699 -38 -12.5l-38 -14l-43.5 -17.5c-6.66699 6.66699 -10 13 -10 19c0 4.66699 2.66699 9 8 13z" />
    <glyph glyph-name="Ocircumflex" unicode="&#xd4;" horiz-adv-x="749" 
d="M45 325c0 46 8.33008 89.334 24.9971 130.001s39.334 76.334 68.001 107.001s62 55 100 73s78 27 120 27c58 0 108.667 -9.16699 152 -27.5s79.166 -43 107.499 -74s49.5 -66.833 63.5 -107.5s21 -83.334 21 -128.001c0 -52.667 -8.66699 -99.834 -26 -141.501
s-41.166 -77 -71.499 -106s-66 -51.167 -107 -66.5s-84.833 -23 -131.5 -23c-47.333 0 -90.666 8 -129.999 24s-73.166 38.833 -101.499 68.5s-50.333 65.167 -66 106.5s-23.5 87.333 -23.5 138zM388.997 36.001c31.333 0 60 6.00195 86 18.002s48.333 28.667 67 50
s33.167 46.666 43.5 75.999s15.5 61.333 15.5 96c0 48 -5 92.5 -15 133.5s-25.167 76.667 -45.5 107s-46 54.166 -77 71.499s-67.167 26 -108.5 26c-27.333 0 -53.5 -5.16699 -78.5 -15.5s-47 -25.333 -66 -45s-34.167 -43.834 -45.5 -72.501s-17 -61.667 -17 -99
c0 -49.333 5.33301 -95.166 16 -137.499s26.167 -79 46.5 -110s45.5 -55.167 75.5 -72.5s64.333 -26 103 -26zM503.997 740.003c2.66699 -2.66699 4 -6.00195 4 -10.002c0 -3.33301 -1.16699 -6.66602 -3.5 -9.99902s-6.5 -6.66602 -12.5 -9.99902l-57.5 33
c-19 10.667 -40.167 21.667 -63.5 33c-19.333 -10 -37.333 -20 -54 -30l-59 -36c-11.333 5.33301 -17 11.666 -17 18.999c0 4 1.66699 7.66699 5 11l108 113c15.333 0 26.5 -1.66699 33.5 -5s15.167 -9.66602 24.5 -18.999z" />
    <glyph glyph-name="Otilde" unicode="&#xd5;" horiz-adv-x="749" 
d="M45 325c0 46 8.33008 89.334 24.9971 130.001s39.334 76.334 68.001 107.001s62 55 100 73s78 27 120 27c58 0 108.667 -9.16699 152 -27.5s79.166 -43 107.499 -74s49.5 -66.833 63.5 -107.5s21 -83.334 21 -128.001c0 -52.667 -8.66699 -99.834 -26 -141.501
s-41.166 -77 -71.499 -106s-66 -51.167 -107 -66.5s-84.833 -23 -131.5 -23c-47.333 0 -90.666 8 -129.999 24s-73.166 38.833 -101.499 68.5s-50.333 65.167 -66 106.5s-23.5 87.333 -23.5 138zM388.997 36.001c31.333 0 60 6.00195 86 18.002s48.333 28.667 67 50
s33.167 46.666 43.5 75.999s15.5 61.333 15.5 96c0 48 -5 92.5 -15 133.5s-25.167 76.667 -45.5 107s-46 54.166 -77 71.499s-67.167 26 -108.5 26c-27.333 0 -53.5 -5.16699 -78.5 -15.5s-47 -25.333 -66 -45s-34.167 -43.834 -45.5 -72.501s-17 -61.667 -17 -99
c0 -49.333 5.33301 -95.166 16 -137.499s26.167 -79 46.5 -110s45.5 -55.167 75.5 -72.5s64.333 -26 103 -26zM239.997 738.003c14 20 29.835 37.1719 47.502 51.5049s34.5 21.5 50.5 21.5c7.33301 0 15.333 -1.33301 24 -4s19.667 -7.33398 33 -14.001
c9.33301 -4.66699 17.5 -7.83398 24.5 -9.50098s14.167 -2.5 21.5 -2.5c15.333 0 28 2.16699 38 6.5s19.667 11.166 29 20.499c6 -3.33301 10 -6.5 12 -9.5s3 -6.16699 3 -9.5c0 -2 -0.333008 -3.83301 -1 -5.5s-1.33398 -3.16699 -2.00098 -4.5
c-14.667 -20.667 -29.834 -37.334 -45.501 -50.001s-31.834 -19 -48.501 -19c-10 0 -20.5 1.5 -31.5 4.5s-21.167 6.83301 -30.5 11.5c-12 6 -21.5 10.167 -28.5 12.5s-13.167 3.5 -18.5 3.5c-11.333 0 -22.166 -2.5 -32.499 -7.5s-20.833 -13.167 -31.5 -24.5
c-10.667 5.33301 -16 11.666 -16 18.999c0 2.66699 1 5.66699 3 9z" />
    <glyph glyph-name="Odieresis" unicode="&#xd6;" horiz-adv-x="749" 
d="M45 325c0 46 8.33008 89.334 24.9971 130.001s39.334 76.334 68.001 107.001s62 55 100 73s78 27 120 27c58 0 108.667 -9.16699 152 -27.5s79.166 -43 107.499 -74s49.5 -66.833 63.5 -107.5s21 -83.334 21 -128.001c0 -52.667 -8.66699 -99.834 -26 -141.501
s-41.166 -77 -71.499 -106s-66 -51.167 -107 -66.5s-84.833 -23 -131.5 -23c-47.333 0 -90.666 8 -129.999 24s-73.166 38.833 -101.499 68.5s-50.333 65.167 -66 106.5s-23.5 87.333 -23.5 138zM388.997 36.001c31.333 0 60 6.00195 86 18.002s48.333 28.667 67 50
s33.167 46.666 43.5 75.999s15.5 61.333 15.5 96c0 48 -5 92.5 -15 133.5s-25.167 76.667 -45.5 107s-46 54.166 -77 71.499s-67.167 26 -108.5 26c-27.333 0 -53.5 -5.16699 -78.5 -15.5s-47 -25.333 -66 -45s-34.167 -43.834 -45.5 -72.501s-17 -61.667 -17 -99
c0 -49.333 5.33301 -95.166 16 -137.499s26.167 -79 46.5 -110s45.5 -55.167 75.5 -72.5s64.333 -26 103 -26zM273.997 710.003c-16 0 -29.5 5.5 -40.5 16.5s-16.5 24.5 -16.5 40.5s5.5 29.667 16.5 41s24.5 17 40.5 17c15.333 0 28.333 -5.66699 39 -17s16 -25 16 -41
s-5.33301 -29.5 -16 -40.5s-23.667 -16.5 -39 -16.5zM475.997 710.003c-15.333 0 -28.666 5.5 -39.999 16.5s-17 24.5 -17 40.5s5.66699 29.667 17 41s24.666 17 39.999 17s28.333 -5.66699 39 -17s16 -25 16 -41s-5.33301 -29.5 -16 -40.5s-23.667 -16.5 -39 -16.5z" />
    <glyph glyph-name="multiply" unicode="&#xd7;" horiz-adv-x="494" 
d="M52 366c15.333 20.667 28.001 31 38.001 31c3.33301 0 6.66602 -1.66699 9.99902 -5l143 -142l154 155c11.333 -8 19.333 -15.333 24 -22s7 -12 7 -16s-1.33301 -7 -4 -9l-144 -145l162 -160c-16 -20.667 -29 -31 -39 -31c-4 0 -7.33301 1.33301 -10 4l-150 151
l-159 -162c-21.333 16.667 -32 29.667 -32 39c0 2 1.33301 5 4 9l151 151z" />
    <glyph glyph-name="Oslash" unicode="&#xd8;" horiz-adv-x="749" 
d="M45 325c0 46 8.33105 89.332 24.998 129.999s39.334 76.334 68.001 107.001s62 55 100 73s78 27 120 27c38 0 73 -4 105 -12s60.667 -19.667 86 -35l46 71c12 -4.66699 20.167 -9 24.5 -13s6.5 -7.66699 6.5 -11s-1.66699 -7.33301 -5 -12l-38 -58
c40 -32 69.833 -71.333 89.5 -118s29.5 -96.334 29.5 -149.001s-8.66699 -99.834 -26 -141.501s-41.166 -77 -71.499 -106s-66 -51.167 -107 -66.5s-84.833 -23 -131.5 -23c-58 0 -109.667 11.667 -155 35l-43 -66c-12.667 4.66699 -21 9 -25 13s-6 7.66699 -6 11
c0 2 0.5 4 1.5 6s2.16699 4 3.5 6l34 52c-41.333 28.667 -73.5 66.834 -96.5 114.501s-34.5 102.834 -34.5 165.501zM147.998 381.999c0 -54.667 6.33203 -104.666 18.999 -149.999s31.334 -83.666 56.001 -114.999l286 437c-19.333 19.333 -41.833 34.166 -67.5 44.499
s-54.5 15.5 -86.5 15.5c-27.333 0 -53.5 -5.16699 -78.5 -15.5s-47 -25.333 -66 -45s-34.167 -43.834 -45.5 -72.501s-17 -61.667 -17 -99zM388.997 36c31.333 0 60 6.00098 86 18.001s48.333 28.667 67 50s33.167 46.666 43.5 75.999s15.5 61.333 15.5 96
c0 48.667 -5.33301 94 -16 136s-27 78 -49 108l-284 -434c18.667 -16 39.167 -28.333 61.5 -37s47.5 -13 75.5 -13z" />
    <glyph glyph-name="Ugrave" unicode="&#xd9;" horiz-adv-x="761" 
d="M649 243c0 -38 -4.33105 -72.498 -12.998 -103.498s-23.167 -57.833 -43.5 -80.5s-47.166 -40.167 -80.499 -52.5s-75 -18.5 -125 -18.5c-57.333 0 -103.666 7.16699 -138.999 21.5s-62.5 33.166 -81.5 56.499s-31.667 50.166 -38 80.499s-9.5 61.166 -9.5 92.499v340
c0 13.333 -4.66699 23 -14 29s-27 10.667 -53 14c-6.66699 0.666992 -10 6.33398 -10 17.001c0 4 0.666992 9.33301 2 16c20 -1.33301 40.5 -2.5 61.5 -3.5s41.167 -1.5 60.5 -1.5c17.333 0 37.666 0.5 60.999 1.5s45 2.16699 65 3.5c1.33301 -6.66699 2 -12 2 -16
c0 -10.667 -3.33301 -16.334 -10 -17.001c-25.333 -3.33301 -43.5 -8 -54.5 -14s-16.5 -15.667 -16.5 -29v-318c0 -69.333 13.833 -122.5 41.5 -159.5s74.5 -55.5 140.5 -55.5c37.333 0 69 4.16699 95 12.5s47.333 21.166 64 38.499s28.667 39.833 36 67.5
s11 60.834 11 99.501v315c0 13.333 -5 23 -15 29s-28 10.667 -54 14c-7.33301 0.666992 -11 6.33398 -11 17.001c0 4 0.666992 9.33301 2 16c19.333 -1.33301 38.166 -2.5 56.499 -3.5s34.166 -1.5 47.499 -1.5c16 0 32.167 0.5 48.5 1.5s32.5 2.16699 48.5 3.5
c1.33301 -6.66699 2 -12 2 -16c0 -3.33301 -1 -6.83301 -3 -10.5s-4.66699 -5.83398 -8 -6.50098c-24.667 -2.66699 -41.834 -7.16699 -51.501 -13.5s-14.5 -16.166 -14.5 -29.499v-336zM474.002 742.002c6 -3.33301 9.00098 -7.66699 9.00098 -13
c0 -6 -3.66699 -12.333 -11 -19l-43.5 17.5l-38 14c-12.333 4.33301 -24.833 8.5 -37.5 12.5s-26.667 8 -42 12s-23 13.667 -23 29c0 10 4.16699 20.5 12.5 31.5s20.166 19.167 35.499 24.5z" />
    <glyph glyph-name="Uacute" unicode="&#xda;" horiz-adv-x="761" 
d="M649 243c0 -38 -4.33105 -72.498 -12.998 -103.498s-23.167 -57.833 -43.5 -80.5s-47.166 -40.167 -80.499 -52.5s-75 -18.5 -125 -18.5c-57.333 0 -103.666 7.16699 -138.999 21.5s-62.5 33.166 -81.5 56.499s-31.667 50.166 -38 80.499s-9.5 61.166 -9.5 92.499v340
c0 13.333 -4.66699 23 -14 29s-27 10.667 -53 14c-6.66699 0.666992 -10 6.33398 -10 17.001c0 4 0.666992 9.33301 2 16c20 -1.33301 40.5 -2.5 61.5 -3.5s41.167 -1.5 60.5 -1.5c17.333 0 37.666 0.5 60.999 1.5s45 2.16699 65 3.5c1.33301 -6.66699 2 -12 2 -16
c0 -10.667 -3.33301 -16.334 -10 -17.001c-25.333 -3.33301 -43.5 -8 -54.5 -14s-16.5 -15.667 -16.5 -29v-318c0 -69.333 13.833 -122.5 41.5 -159.5s74.5 -55.5 140.5 -55.5c37.333 0 69 4.16699 95 12.5s47.333 21.166 64 38.499s28.667 39.833 36 67.5
s11 60.834 11 99.501v315c0 13.333 -5 23 -15 29s-28 10.667 -54 14c-7.33301 0.666992 -11 6.33398 -11 17.001c0 4 0.666992 9.33301 2 16c19.333 -1.33301 38.166 -2.5 56.499 -3.5s34.166 -1.5 47.499 -1.5c16 0 32.167 0.5 48.5 1.5s32.5 2.16699 48.5 3.5
c1.33301 -6.66699 2 -12 2 -16c0 -3.33301 -1 -6.83301 -3 -10.5s-4.66699 -5.83398 -8 -6.50098c-24.667 -2.66699 -41.834 -7.16699 -51.501 -13.5s-14.5 -16.166 -14.5 -29.499v-336zM474.002 851.002c15.333 -5.33301 27 -13.5 35 -24.5s12 -21.5 12 -31.5
c0 -15.333 -7.33301 -25 -22 -29c-15.333 -4 -29.5 -8 -42.5 -12s-25.667 -8.16699 -38 -12.5l-38 -14l-43.5 -17.5c-6.66699 6.66699 -10 13 -10 19c0 4.66699 2.66699 9 8 13z" />
    <glyph glyph-name="Ucircumflex" unicode="&#xdb;" horiz-adv-x="761" 
d="M649 243c0 -38 -4.33105 -72.498 -12.998 -103.498s-23.167 -57.833 -43.5 -80.5s-47.166 -40.167 -80.499 -52.5s-75 -18.5 -125 -18.5c-57.333 0 -103.666 7.16699 -138.999 21.5s-62.5 33.166 -81.5 56.499s-31.667 50.166 -38 80.499s-9.5 61.166 -9.5 92.499v340
c0 13.333 -4.66699 23 -14 29s-27 10.667 -53 14c-6.66699 0.666992 -10 6.33398 -10 17.001c0 4 0.666992 9.33301 2 16c20 -1.33301 40.5 -2.5 61.5 -3.5s41.167 -1.5 60.5 -1.5c17.333 0 37.666 0.5 60.999 1.5s45 2.16699 65 3.5c1.33301 -6.66699 2 -12 2 -16
c0 -10.667 -3.33301 -16.334 -10 -17.001c-25.333 -3.33301 -43.5 -8 -54.5 -14s-16.5 -15.667 -16.5 -29v-318c0 -69.333 13.833 -122.5 41.5 -159.5s74.5 -55.5 140.5 -55.5c37.333 0 69 4.16699 95 12.5s47.333 21.166 64 38.499s28.667 39.833 36 67.5
s11 60.834 11 99.501v315c0 13.333 -5 23 -15 29s-28 10.667 -54 14c-7.33301 0.666992 -11 6.33398 -11 17.001c0 4 0.666992 9.33301 2 16c19.333 -1.33301 38.166 -2.5 56.499 -3.5s34.166 -1.5 47.499 -1.5c16 0 32.167 0.5 48.5 1.5s32.5 2.16699 48.5 3.5
c1.33301 -6.66699 2 -12 2 -16c0 -3.33301 -1 -6.83301 -3 -10.5s-4.66699 -5.83398 -8 -6.50098c-24.667 -2.66699 -41.834 -7.16699 -51.501 -13.5s-14.5 -16.166 -14.5 -29.499v-336zM537.002 740.002c2.66699 -2.66699 4 -6.00195 4 -10.002
c0 -3.33301 -1.16699 -6.66602 -3.5 -9.99902s-6.5 -6.66602 -12.5 -9.99902l-57.5 33c-19 10.667 -40.167 21.667 -63.5 33c-19.333 -10 -37.333 -20 -54 -30l-59 -36c-11.333 5.33301 -17 11.666 -17 18.999c0 4 1.66699 7.66699 5 11l108 113
c15.333 0 26.5 -1.66699 33.5 -5s15.167 -9.66602 24.5 -18.999z" />
    <glyph glyph-name="Udieresis" unicode="&#xdc;" horiz-adv-x="761" 
d="M649 243c0 -38 -4.33105 -72.498 -12.998 -103.498s-23.167 -57.833 -43.5 -80.5s-47.166 -40.167 -80.499 -52.5s-75 -18.5 -125 -18.5c-57.333 0 -103.666 7.16699 -138.999 21.5s-62.5 33.166 -81.5 56.499s-31.667 50.166 -38 80.499s-9.5 61.166 -9.5 92.499v340
c0 13.333 -4.66699 23 -14 29s-27 10.667 -53 14c-6.66699 0.666992 -10 6.33398 -10 17.001c0 4 0.666992 9.33301 2 16c20 -1.33301 40.5 -2.5 61.5 -3.5s41.167 -1.5 60.5 -1.5c17.333 0 37.666 0.5 60.999 1.5s45 2.16699 65 3.5c1.33301 -6.66699 2 -12 2 -16
c0 -10.667 -3.33301 -16.334 -10 -17.001c-25.333 -3.33301 -43.5 -8 -54.5 -14s-16.5 -15.667 -16.5 -29v-318c0 -69.333 13.833 -122.5 41.5 -159.5s74.5 -55.5 140.5 -55.5c37.333 0 69 4.16699 95 12.5s47.333 21.166 64 38.499s28.667 39.833 36 67.5
s11 60.834 11 99.501v315c0 13.333 -5 23 -15 29s-28 10.667 -54 14c-7.33301 0.666992 -11 6.33398 -11 17.001c0 4 0.666992 9.33301 2 16c19.333 -1.33301 38.166 -2.5 56.499 -3.5s34.166 -1.5 47.499 -1.5c16 0 32.167 0.5 48.5 1.5s32.5 2.16699 48.5 3.5
c1.33301 -6.66699 2 -12 2 -16c0 -3.33301 -1 -6.83301 -3 -10.5s-4.66699 -5.83398 -8 -6.50098c-24.667 -2.66699 -41.834 -7.16699 -51.501 -13.5s-14.5 -16.166 -14.5 -29.499v-336zM300.002 710.002c-16 0 -29.5 5.5 -40.5 16.5s-16.5 24.5 -16.5 40.5
s5.5 29.667 16.5 41s24.5 17 40.5 17c15.333 0 28.333 -5.66699 39 -17s16 -25 16 -41s-5.33301 -29.5 -16 -40.5s-23.667 -16.5 -39 -16.5zM502.002 710.002c-15.333 0 -28.666 5.5 -39.999 16.5s-17 24.5 -17 40.5s5.66699 29.667 17 41s24.666 17 39.999 17
s28.333 -5.66699 39 -17s16 -25 16 -41s-5.33301 -29.5 -16 -40.5s-23.667 -16.5 -39 -16.5z" />
    <glyph glyph-name="Yacute" unicode="&#xdd;" horiz-adv-x="594" 
d="M248 288l-167 299.996c-6.66699 10 -15 17.5 -25 22.5s-23.667 8.83301 -41 11.5c-3.33301 0.666992 -5.83301 2.66699 -7.5 6s-2.5 7.33301 -2.5 12v4.5c0 1.66699 0.333008 3.16699 1 4.5c0 2 0.333008 4 1 6c14.667 -1.33301 33.334 -2.5 56.001 -3.5
s44.667 -1.5 66 -1.5c8 0 17.333 0.166992 28 0.5l33 1c11.333 0.333008 22.166 0.833008 32.499 1.5s19.166 1.33398 26.499 2.00098c0 -2.66699 0.333008 -5 1 -7c0 -2 0.166992 -3.66699 0.5 -5s0.5 -2.66602 0.5 -3.99902c0 -4 -0.833008 -7.66699 -2.5 -11
s-4.16699 -5.33301 -7.5 -6c-19.333 -2.66699 -32.833 -5.83398 -40.5 -9.50098s-11.5 -8.83398 -11.5 -15.501c0 -5.33301 2.33301 -11.666 7 -18.999l124 -224l117 208c6.66699 12 10 21.333 10 28c0 8.66699 -4.5 15.334 -13.5 20.001s-23.167 8.66699 -42.5 12
c-7.33301 0.666992 -11 6.33398 -11 17.001c0 3.33301 0.333008 6.33301 1 9c0 2 0.333008 4.33301 1 7c14.667 -1.33301 31.834 -2.5 51.501 -3.5s37.834 -1.5 54.501 -1.5c15.333 0 31.5 0.5 48.5 1.5s33.833 2.16699 50.5 3.5c0 -2.66699 0.333008 -5 1 -7
c0 -2 0.166992 -3.66699 0.5 -5s0.5 -2.66602 0.5 -3.99902c0 -9.33301 -3.66699 -15 -11 -17c-23.333 -3.33301 -39.833 -7.5 -49.5 -12.5s-17.834 -13.5 -24.501 -25.5l-162 -287v-224c0 -14.667 5.5 -24.834 16.5 -30.501s29.5 -10.5 55.5 -14.5
c7.33301 -1.33301 11 -6.66602 11 -15.999c0 -1.33301 -0.166992 -3 -0.5 -5s-0.5 -3.66699 -0.5 -5c-0.666992 -2.66699 -1 -4.66699 -1 -6l-47 2c-13.333 0.666992 -27.5 1.33398 -42.5 2.00098s-28.167 1 -39.5 1s-24.333 -0.333008 -39 -1l-42 -2l-46 -2
c-0.666992 1.33301 -1 3.33301 -1 6c-0.666992 1.33301 -1 3 -1 5v5c0 9.33301 3.33301 14.666 10 15.999c26 5.33301 44.667 10.5 56 15.5s17 14.833 17 29.5v215zM376 850.996c15.333 -5.33301 27 -13.5 35 -24.5s12 -21.5 12 -31.5c0 -15.333 -7.33301 -25 -22 -29
c-15.333 -4 -29.5 -8 -42.5 -12s-25.667 -8.16699 -38 -12.5l-38 -14l-43.5 -17.5c-6.66699 6.66699 -10 13 -10 19c0 4.66699 2.66699 9 8 13z" />
    <glyph glyph-name="Thorn" unicode="&#xde;" horiz-adv-x="563" 
d="M217 70c0 -13.333 4.50195 -22.5 13.502 -27.5s26.167 -10.167 51.5 -15.5c6.66699 -1.33301 10 -6.66602 10 -15.999c0 -4 -0.666992 -9.33301 -2 -16c-20 1.33301 -40.333 2.5 -61 3.5s-40.334 1.5 -59.001 1.5s-38.834 -0.5 -60.501 -1.5s-42.167 -2.16699 -61.5 -3.5
c-1.33301 6.66699 -2 12 -2 16c0 9.33301 3.33301 14.666 10 15.999c25.333 4.66699 42.666 9.66699 51.999 15s14 14.666 14 27.999v509c0 13.333 -4.66699 22.833 -14 28.5s-26.666 10.5 -51.999 14.5c-4 0.666992 -6.66699 2.66699 -8 6s-2 7 -2 11
s0.666992 9.33301 2 16c20 -1.33301 40.833 -2.5 62.5 -3.5s41.167 -1.5 58.5 -1.5c16.667 0 36 0.5 58 1.5s43 2.16699 63 3.5c1.33301 -6.66699 2 -12 2 -16c0 -10 -3.33301 -15.667 -10 -17c-25.333 -4 -42.5 -8.83301 -51.5 -14.5s-13.5 -15.167 -13.5 -28.5v-66h88
c72 0 126 -16.833 162 -50.5s54 -77.5 54 -131.5c0 -21.333 -4.83301 -42.666 -14.5 -63.999s-23.667 -40.833 -42 -58.5s-41 -32 -68 -43s-57.5 -16.5 -91.5 -16.5h-88v-79zM217.002 190h53c46.667 0 82.667 9.83301 108 29.5s38 54.167 38 103.5
c0 20.667 -2.33301 40 -7 58s-12.667 33.667 -24 47s-26.333 24 -45 32s-42 12 -70 12h-53v-282z" />
    <glyph glyph-name="germandbls" unicode="&#xdf;" horiz-adv-x="537" 
d="M292 663c-23.333 0 -45.3359 -6.83301 -66.0029 -20.5s-35 -37.834 -43 -72.501c-4 -16 -6 -33.333 -6 -52v-461c0 -8 1.66699 -14.167 5 -18.5s7 -7.83301 11 -10.5l11 -7.5c3.33301 -2.33301 5 -5.5 5 -9.5c0 -2 -0.333008 -5 -1 -9s-1 -6.33301 -1 -7
c-12.667 1.33301 -25.834 2.5 -39.501 3.5s-25.167 1.5 -34.5 1.5c-8 0 -17.167 -0.166992 -27.5 -0.5s-20.333 -0.833008 -30 -1.5s-18.167 -1.33398 -25.5 -2.00098s-12 -1 -14 -1c0 0.666992 -0.333008 3 -1 7s-1 7 -1 9c0 6.66699 3 10.667 9 12
c15.333 2.66699 27.666 6.5 36.999 11.5s14 12.833 14 23.5v434c0 30.667 5.33301 58.667 16 84s25.5 47.166 44.5 65.499s41.667 32.666 68 42.999s55.5 15.5 87.5 15.5c50 0 90.167 -9.66699 120.5 -29s45.5 -48 45.5 -86c0 -25.333 -7.16699 -47.5 -21.5 -66.5
s-30.166 -38.167 -47.499 -57.5c-12.667 -13.333 -22.334 -25.666 -29.001 -36.999s-10 -22.666 -10 -33.999c0 -16.667 4.83301 -32.834 14.5 -48.501s22.834 -32.5 39.501 -50.5c21.333 -22.667 40.166 -44.334 56.499 -65.001s24.5 -44 24.5 -70
c0 -23.333 -5.16699 -45.166 -15.5 -65.499s-24.166 -38.166 -41.499 -53.499s-37.666 -27.333 -60.999 -36s-48.333 -13 -75 -13c-5.33301 0 -11.666 0.333008 -18.999 1s-14.5 1.83398 -21.5 3.50098s-13 4 -18 7s-7.5 6.83301 -7.5 11.5c0 14.667 3 28 9 40s13 18 21 18
c2 0 3.83301 -0.333008 5.5 -1s3.5 -1.66699 5.5 -3c10.667 -7.33301 22 -14 34 -20s23.333 -9 34 -9c8.66699 0 17.334 1.66699 26.001 5s16.5 8.33301 23.5 15s12.667 15.334 17 26.001s6.5 23.334 6.5 38.001c0 12 -2.33301 23.333 -7 34s-11 21.167 -19 31.5
s-17 20.5 -27 30.5s-20 20.667 -30 32c-16.667 18 -30.167 35.167 -40.5 51.5s-15.5 33.833 -15.5 52.5c0 20 5.5 37.5 16.5 52.5s24.167 31.167 39.5 48.5c14.667 15.333 26.834 32.166 36.501 50.499s14.5 38.833 14.5 61.5c0 19.333 -3.16699 35.333 -9.5 48
s-14.5 22.667 -24.5 30s-21 12.5 -33 15.5s-23.667 4.5 -35 4.5z" />
    <glyph glyph-name="agrave" unicode="&#xe0;" horiz-adv-x="473" 
d="M452 27c7.33301 0 11.332 -7 11.999 -21c-17.333 -12 -39.333 -18 -66 -18c-14.667 0 -27.334 2.16699 -38.001 6.5s-19.667 10.166 -27 17.499s-13 15.666 -17 24.999s-6.66699 19 -8 29c-16.667 -30 -36.5 -50.5 -59.5 -61.5s-49.5 -16.5 -79.5 -16.5
c-13.333 0 -27.5 1.16699 -42.5 3.5s-29.167 7.16602 -42.5 14.499s-24.333 17.666 -33 30.999s-13 31 -13 53c0 24.667 5.83301 45.5 17.5 62.5s26.667 31 45 42s38.333 19.833 60 26.5s42.5 12.334 62.5 17.001c11.333 2 21.833 4.16699 31.5 6.5s18.167 4.83301 25.5 7.5
c9.33301 2.66699 15.166 6.33398 17.499 11.001s3.5 13.667 3.5 27c0 31.333 -6 57.166 -18 77.499s-33.333 30.5 -64 30.5c-11.333 0 -21 -1.33301 -29 -4s-14.667 -6.83398 -20 -12.501s-10 -13.167 -14 -22.5s-8 -20.333 -12 -33c-2 -7.33301 -6.5 -12.666 -13.5 -15.999
s-18.833 -7.33301 -35.5 -12c-4 -1.33301 -9 -2.66602 -15 -3.99902s-11 -2 -15 -2c-6.66699 0 -10 7 -10 21c0 14.667 5.66699 29.334 17 44.001s25.833 27.667 43.5 39s36.834 20.5 57.501 27.5s40.334 10.5 59.001 10.5c23.333 0 44.333 -2 63 -6s34.667 -11.333 48 -22
s23.5 -25 30.5 -43s10.5 -41.333 10.5 -70v-172c0 -23.333 0.833008 -40.166 2.5 -50.499s4.16699 -18.5 7.5 -24.5c4.66699 -9.33301 9.83398 -15.5 15.501 -18.5s11.5 -4.5 17.5 -4.5c7.33301 0 12.5 0.666992 15.5 2s6.16699 2 9.5 2zM300.999 222l-32 -5
c-17.333 -3.33301 -34.166 -7.33301 -50.499 -12s-30.833 -11.167 -43.5 -19.5s-22.834 -18.833 -30.501 -31.5s-11.5 -28.334 -11.5 -47.001c0 -25.333 6.5 -44.666 19.5 -57.999s29.167 -20 48.5 -20c12.667 0 25.167 2.83301 37.5 8.5s23 13.667 32 24
s16.333 22.5 22 36.5s8.5 29.333 8.5 46v78zM297.999 524c2.66699 -5.33301 4 -9.33398 4 -12.001c0 -7.33301 -5.33301 -13.666 -16 -18.999l-36 32c-10.667 9.33301 -21.167 18 -31.5 26s-21 15.833 -32 23.5l-35.5 24.5c-9.33301 5.33301 -14 13.333 -14 24
c0 11.333 5.83301 22.333 17.5 33s27.5 16 47.5 16z" />
    <glyph glyph-name="aacute" unicode="&#xe1;" horiz-adv-x="473" 
d="M452 27c7.33301 0 11.332 -7 11.999 -21c-17.333 -12 -39.333 -18 -66 -18c-14.667 0 -27.334 2.16699 -38.001 6.5s-19.667 10.166 -27 17.499s-13 15.666 -17 24.999s-6.66699 19 -8 29c-16.667 -30 -36.5 -50.5 -59.5 -61.5s-49.5 -16.5 -79.5 -16.5
c-13.333 0 -27.5 1.16699 -42.5 3.5s-29.167 7.16602 -42.5 14.499s-24.333 17.666 -33 30.999s-13 31 -13 53c0 24.667 5.83301 45.5 17.5 62.5s26.667 31 45 42s38.333 19.833 60 26.5s42.5 12.334 62.5 17.001c11.333 2 21.833 4.16699 31.5 6.5s18.167 4.83301 25.5 7.5
c9.33301 2.66699 15.166 6.33398 17.499 11.001s3.5 13.667 3.5 27c0 31.333 -6 57.166 -18 77.499s-33.333 30.5 -64 30.5c-11.333 0 -21 -1.33301 -29 -4s-14.667 -6.83398 -20 -12.501s-10 -13.167 -14 -22.5s-8 -20.333 -12 -33c-2 -7.33301 -6.5 -12.666 -13.5 -15.999
s-18.833 -7.33301 -35.5 -12c-4 -1.33301 -9 -2.66602 -15 -3.99902s-11 -2 -15 -2c-6.66699 0 -10 7 -10 21c0 14.667 5.66699 29.334 17 44.001s25.833 27.667 43.5 39s36.834 20.5 57.501 27.5s40.334 10.5 59.001 10.5c23.333 0 44.333 -2 63 -6s34.667 -11.333 48 -22
s23.5 -25 30.5 -43s10.5 -41.333 10.5 -70v-172c0 -23.333 0.833008 -40.166 2.5 -50.499s4.16699 -18.5 7.5 -24.5c4.66699 -9.33301 9.83398 -15.5 15.501 -18.5s11.5 -4.5 17.5 -4.5c7.33301 0 12.5 0.666992 15.5 2s6.16699 2 9.5 2zM300.999 222l-32 -5
c-17.333 -3.33301 -34.166 -7.33301 -50.499 -12s-30.833 -11.167 -43.5 -19.5s-22.834 -18.833 -30.501 -31.5s-11.5 -28.334 -11.5 -47.001c0 -25.333 6.5 -44.666 19.5 -57.999s29.167 -20 48.5 -20c12.667 0 25.167 2.83301 37.5 8.5s23 13.667 32 24
s16.333 22.5 22 36.5s8.5 29.333 8.5 46v78zM272.999 672c19.333 0 35 -5.33105 47 -15.998s18 -21.667 18 -33c0 -10.667 -4.66699 -18.667 -14 -24c-13.333 -8.66699 -25.333 -16.834 -36 -24.501s-21.167 -15.667 -31.5 -24l-32 -26.5l-35.5 -31
c-11.333 5.33301 -17 11.666 -17 18.999c0 3.33301 1.66699 7.33301 5 12z" />
    <glyph glyph-name="acircumflex" unicode="&#xe2;" horiz-adv-x="473" 
d="M452 27c7.33301 0 11.332 -7 11.999 -21c-17.333 -12 -39.333 -18 -66 -18c-14.667 0 -27.334 2.16699 -38.001 6.5s-19.667 10.166 -27 17.499s-13 15.666 -17 24.999s-6.66699 19 -8 29c-16.667 -30 -36.5 -50.5 -59.5 -61.5s-49.5 -16.5 -79.5 -16.5
c-13.333 0 -27.5 1.16699 -42.5 3.5s-29.167 7.16602 -42.5 14.499s-24.333 17.666 -33 30.999s-13 31 -13 53c0 24.667 5.83301 45.5 17.5 62.5s26.667 31 45 42s38.333 19.833 60 26.5s42.5 12.334 62.5 17.001c11.333 2 21.833 4.16699 31.5 6.5s18.167 4.83301 25.5 7.5
c9.33301 2.66699 15.166 6.33398 17.499 11.001s3.5 13.667 3.5 27c0 31.333 -6 57.166 -18 77.499s-33.333 30.5 -64 30.5c-11.333 0 -21 -1.33301 -29 -4s-14.667 -6.83398 -20 -12.501s-10 -13.167 -14 -22.5s-8 -20.333 -12 -33c-2 -7.33301 -6.5 -12.666 -13.5 -15.999
s-18.833 -7.33301 -35.5 -12c-4 -1.33301 -9 -2.66602 -15 -3.99902s-11 -2 -15 -2c-6.66699 0 -10 7 -10 21c0 14.667 5.66699 29.334 17 44.001s25.833 27.667 43.5 39s36.834 20.5 57.501 27.5s40.334 10.5 59.001 10.5c23.333 0 44.333 -2 63 -6s34.667 -11.333 48 -22
s23.5 -25 30.5 -43s10.5 -41.333 10.5 -70v-172c0 -23.333 0.833008 -40.166 2.5 -50.499s4.16699 -18.5 7.5 -24.5c4.66699 -9.33301 9.83398 -15.5 15.501 -18.5s11.5 -4.5 17.5 -4.5c7.33301 0 12.5 0.666992 15.5 2s6.16699 2 9.5 2zM300.999 222l-32 -5
c-17.333 -3.33301 -34.166 -7.33301 -50.499 -12s-30.833 -11.167 -43.5 -19.5s-22.834 -18.833 -30.501 -31.5s-11.5 -28.334 -11.5 -47.001c0 -25.333 6.5 -44.666 19.5 -57.999s29.167 -20 48.5 -20c12.667 0 25.167 2.83301 37.5 8.5s23 13.667 32 24
s16.333 22.5 22 36.5s8.5 29.333 8.5 46v78zM348.999 522c2.66699 -5.33301 4.00098 -9.33203 4.00098 -11.999s-1 -5.5 -3 -8.5s-6.33301 -6.16699 -13 -9.5l-58 51.5c-17.333 15 -35.333 29.167 -54 42.5c-18 -13.333 -34.667 -27.5 -50 -42.5l-54 -51.5
c-11.333 5.33301 -17 11.666 -17 18.999c0 2 1.33301 5.66699 4 11l101 146c16.667 0 28.667 -1.5 36 -4.5s14.666 -9.5 21.999 -19.5z" />
    <glyph glyph-name="atilde" unicode="&#xe3;" horiz-adv-x="473" 
d="M452 27c7.33301 0 11.332 -7 11.999 -21c-17.333 -12 -39.333 -18 -66 -18c-14.667 0 -27.334 2.16699 -38.001 6.5s-19.667 10.166 -27 17.499s-13 15.666 -17 24.999s-6.66699 19 -8 29c-16.667 -30 -36.5 -50.5 -59.5 -61.5s-49.5 -16.5 -79.5 -16.5
c-13.333 0 -27.5 1.16699 -42.5 3.5s-29.167 7.16602 -42.5 14.499s-24.333 17.666 -33 30.999s-13 31 -13 53c0 24.667 5.83301 45.5 17.5 62.5s26.667 31 45 42s38.333 19.833 60 26.5s42.5 12.334 62.5 17.001c11.333 2 21.833 4.16699 31.5 6.5s18.167 4.83301 25.5 7.5
c9.33301 2.66699 15.166 6.33398 17.499 11.001s3.5 13.667 3.5 27c0 31.333 -6 57.166 -18 77.499s-33.333 30.5 -64 30.5c-11.333 0 -21 -1.33301 -29 -4s-14.667 -6.83398 -20 -12.501s-10 -13.167 -14 -22.5s-8 -20.333 -12 -33c-2 -7.33301 -6.5 -12.666 -13.5 -15.999
s-18.833 -7.33301 -35.5 -12c-4 -1.33301 -9 -2.66602 -15 -3.99902s-11 -2 -15 -2c-6.66699 0 -10 7 -10 21c0 14.667 5.66699 29.334 17 44.001s25.833 27.667 43.5 39s36.834 20.5 57.501 27.5s40.334 10.5 59.001 10.5c23.333 0 44.333 -2 63 -6s34.667 -11.333 48 -22
s23.5 -25 30.5 -43s10.5 -41.333 10.5 -70v-172c0 -23.333 0.833008 -40.166 2.5 -50.499s4.16699 -18.5 7.5 -24.5c4.66699 -9.33301 9.83398 -15.5 15.501 -18.5s11.5 -4.5 17.5 -4.5c7.33301 0 12.5 0.666992 15.5 2s6.16699 2 9.5 2zM300.999 222l-32 -5
c-17.333 -3.33301 -34.166 -7.33301 -50.499 -12s-30.833 -11.167 -43.5 -19.5s-22.834 -18.833 -30.501 -31.5s-11.5 -28.334 -11.5 -47.001c0 -25.333 6.5 -44.666 19.5 -57.999s29.167 -20 48.5 -20c12.667 0 25.167 2.83301 37.5 8.5s23 13.667 32 24
s16.333 22.5 22 36.5s8.5 29.333 8.5 46v78zM98.999 559c6 8 12.6689 16.1699 20.002 24.5029s15.166 15.833 23.499 22.5s17 12.167 26 16.5s18.167 6.5 27.5 6.5c15.333 0 32.666 -5.33301 51.999 -16c11.333 -5.33301 20.5 -9 27.5 -11s13.833 -3 20.5 -3
c15.333 0 27.666 2.66699 36.999 8s18.333 12.666 27 21.999c10.667 -4.66699 16 -11 16 -19c0 -5.33301 -1 -8.33301 -3 -9c-12 -17.333 -25.833 -33.333 -41.5 -48s-32.834 -22 -51.501 -22c-17.333 0 -37.333 5.66699 -60 17c-10.667 5.33301 -19.667 9.16602 -27 11.499
s-13.666 3.5 -18.999 3.5c-11.333 0 -21.666 -2.5 -30.999 -7.5s-19.333 -13.167 -30 -24.5c-6 3.33301 -10.333 6.66602 -13 9.99902s-4 6.33301 -4 9s1 5.66699 3 9z" />
    <glyph glyph-name="adieresis" unicode="&#xe4;" horiz-adv-x="473" 
d="M452 27c7.33301 0 11.332 -7 11.999 -21c-17.333 -12 -39.333 -18 -66 -18c-14.667 0 -27.334 2.16699 -38.001 6.5s-19.667 10.166 -27 17.499s-13 15.666 -17 24.999s-6.66699 19 -8 29c-16.667 -30 -36.5 -50.5 -59.5 -61.5s-49.5 -16.5 -79.5 -16.5
c-13.333 0 -27.5 1.16699 -42.5 3.5s-29.167 7.16602 -42.5 14.499s-24.333 17.666 -33 30.999s-13 31 -13 53c0 24.667 5.83301 45.5 17.5 62.5s26.667 31 45 42s38.333 19.833 60 26.5s42.5 12.334 62.5 17.001c11.333 2 21.833 4.16699 31.5 6.5s18.167 4.83301 25.5 7.5
c9.33301 2.66699 15.166 6.33398 17.499 11.001s3.5 13.667 3.5 27c0 31.333 -6 57.166 -18 77.499s-33.333 30.5 -64 30.5c-11.333 0 -21 -1.33301 -29 -4s-14.667 -6.83398 -20 -12.501s-10 -13.167 -14 -22.5s-8 -20.333 -12 -33c-2 -7.33301 -6.5 -12.666 -13.5 -15.999
s-18.833 -7.33301 -35.5 -12c-4 -1.33301 -9 -2.66602 -15 -3.99902s-11 -2 -15 -2c-6.66699 0 -10 7 -10 21c0 14.667 5.66699 29.334 17 44.001s25.833 27.667 43.5 39s36.834 20.5 57.501 27.5s40.334 10.5 59.001 10.5c23.333 0 44.333 -2 63 -6s34.667 -11.333 48 -22
s23.5 -25 30.5 -43s10.5 -41.333 10.5 -70v-172c0 -23.333 0.833008 -40.166 2.5 -50.499s4.16699 -18.5 7.5 -24.5c4.66699 -9.33301 9.83398 -15.5 15.501 -18.5s11.5 -4.5 17.5 -4.5c7.33301 0 12.5 0.666992 15.5 2s6.16699 2 9.5 2zM300.999 222l-32 -5
c-17.333 -3.33301 -34.166 -7.33301 -50.499 -12s-30.833 -11.167 -43.5 -19.5s-22.834 -18.833 -30.501 -31.5s-11.5 -28.334 -11.5 -47.001c0 -25.333 6.5 -44.666 19.5 -57.999s29.167 -20 48.5 -20c12.667 0 25.167 2.83301 37.5 8.5s23 13.667 32 24
s16.333 22.5 22 36.5s8.5 29.333 8.5 46v78zM183.999 583c0 -15.333 -5.16699 -28.333 -15.5 -39s-22.833 -16 -37.5 -16c-15.333 0 -28.333 5.33301 -39 16s-16 23.667 -16 39s5.33301 28.5 16 39.5s23.667 16.5 39 16.5c14.667 0 27.167 -5.5 37.5 -16.5
s15.5 -24.167 15.5 -39.5zM381.999 583c0 -15.333 -5.16699 -28.333 -15.5 -39s-23.166 -16 -38.499 -16s-28.333 5.33301 -39 16s-16 23.667 -16 39s5.33301 28.5 16 39.5s23.667 16.5 39 16.5s28.166 -5.5 38.499 -16.5s15.5 -24.167 15.5 -39.5z" />
    <glyph glyph-name="aring" unicode="&#xe5;" horiz-adv-x="473" 
d="M452 27c7.33301 0 11.332 -7 11.999 -21c-17.333 -12 -39.333 -18 -66 -18c-14.667 0 -27.334 2.16699 -38.001 6.5s-19.667 10.166 -27 17.499s-13 15.666 -17 24.999s-6.66699 19 -8 29c-16.667 -30 -36.5 -50.5 -59.5 -61.5s-49.5 -16.5 -79.5 -16.5
c-13.333 0 -27.5 1.16699 -42.5 3.5s-29.167 7.16602 -42.5 14.499s-24.333 17.666 -33 30.999s-13 31 -13 53c0 24.667 5.83301 45.5 17.5 62.5s26.667 31 45 42s38.333 19.833 60 26.5s42.5 12.334 62.5 17.001c11.333 2 21.833 4.16699 31.5 6.5s18.167 4.83301 25.5 7.5
c9.33301 2.66699 15.166 6.33398 17.499 11.001s3.5 13.667 3.5 27c0 31.333 -6 57.166 -18 77.499s-33.333 30.5 -64 30.5c-11.333 0 -21 -1.33301 -29 -4s-14.667 -6.83398 -20 -12.501s-10 -13.167 -14 -22.5s-8 -20.333 -12 -33c-2 -7.33301 -6.5 -12.666 -13.5 -15.999
s-18.833 -7.33301 -35.5 -12c-4 -1.33301 -9 -2.66602 -15 -3.99902s-11 -2 -15 -2c-6.66699 0 -10 7 -10 21c0 14.667 5.66699 29.334 17 44.001s25.833 27.667 43.5 39s36.834 20.5 57.501 27.5s40.334 10.5 59.001 10.5c23.333 0 44.333 -2 63 -6s34.667 -11.333 48 -22
s23.5 -25 30.5 -43s10.5 -41.333 10.5 -70v-172c0 -23.333 0.833008 -40.166 2.5 -50.499s4.16699 -18.5 7.5 -24.5c4.66699 -9.33301 9.83398 -15.5 15.501 -18.5s11.5 -4.5 17.5 -4.5c7.33301 0 12.5 0.666992 15.5 2s6.16699 2 9.5 2zM300.999 222l-32 -5
c-17.333 -3.33301 -34.166 -7.33301 -50.499 -12s-30.833 -11.167 -43.5 -19.5s-22.834 -18.833 -30.501 -31.5s-11.5 -28.334 -11.5 -47.001c0 -25.333 6.5 -44.666 19.5 -57.999s29.167 -20 48.5 -20c12.667 0 25.167 2.83301 37.5 8.5s23 13.667 32 24
s16.333 22.5 22 36.5s8.5 29.333 8.5 46v78zM134.999 578c0 27.333 9.33398 48.668 28.001 64.001s40.667 23 66 23c11.333 0 22.5 -2 33.5 -6s20.667 -9.66699 29 -17s15.166 -16.333 20.499 -27s8 -23 8 -37s-2.66699 -26.333 -8 -37s-12.333 -19.834 -21 -27.501
s-18.5 -13.5 -29.5 -17.5s-22.167 -6 -33.5 -6c-24 0 -45.5 7.66699 -64.5 23s-28.5 37 -28.5 65zM222 631.002c-9.33301 0 -18.167 -4.16895 -26.5 -12.502s-12.5 -20.166 -12.5 -35.499s4.33301 -29 13 -41s19.667 -18 33 -18s23.833 4.33301 31.5 13
s11.5 20.334 11.5 35.001c0 15.333 -4 29 -12 41s-20.667 18 -38 18z" />
    <glyph glyph-name="ae" unicode="&#xe6;" horiz-adv-x="720" 
d="M667 102c4 0 7.49512 -1.83398 10.4951 -5.50098s5.83301 -7.5 8.5 -11.5c-8 -12 -17.667 -23.833 -29 -35.5s-24.833 -22 -40.5 -31s-33.667 -16.333 -54 -22s-43.833 -8.5 -70.5 -8.5c-36 0 -69 7.83301 -99 23.5s-54 39.5 -72 71.5c-16 -32.667 -35 -55.667 -57 -69
s-45.333 -21.666 -70 -24.999c-11.333 -1.33301 -23 -1.33301 -35 0c-12.667 0 -26.167 1.5 -40.5 4.5s-27.5 8.16699 -39.5 15.5s-21.833 17.5 -29.5 30.5s-11.5 29.833 -11.5 50.5c0 24.667 5.83301 45.334 17.5 62.001s26.667 30.5 45 41.5s38.333 19.833 60 26.5
s42.5 12.334 62.5 17.001c10.667 2.66699 20.834 4.66699 30.501 6s18 3.66602 25 6.99902s12.5 8 16.5 14s6 14.667 6 26c0 31.333 -6 57.166 -18 77.499s-33.333 30.5 -64 30.5c-23.333 0 -39.666 -5.5 -48.999 -16.5s-18 -29.5 -26 -55.5
c-1.33301 -5.33301 -9 -12.333 -23 -21s-32.667 -13 -56 -13c-4.66699 0 -7.5 1.66699 -8.5 5s-1.5 8.66602 -1.5 15.999c0 14.667 5.66699 29.334 17 44.001s25.833 27.667 43.5 39s36.834 20.5 57.501 27.5s40 10.5 58 10.5c32.667 0 60.667 -4.16699 84 -12.5
s41 -24.166 53 -47.499c20 19.333 41.833 34.166 65.5 44.499s46.834 15.5 69.501 15.5c30.667 0 57.334 -4.66699 80.001 -14s41.167 -22.5 55.5 -39.5s25 -37.5 32 -61.5s10.5 -50.333 10.5 -79c0 -4 -2 -6 -6 -6l-290 -13c0 -26 3.66699 -50.167 11 -72.5
s17.833 -41.5 31.5 -57.5s30 -28.667 49 -38s40.167 -14 63.5 -14c21.333 0 42 5.33301 62 16s36.667 23.667 50 39c3.33301 5.33301 8.33301 8 15 8zM300.995 221.999c-20 -3.33301 -40 -7.00098 -60 -11.001s-38 -10 -54 -18s-29 -18.833 -39 -32.5s-15 -31.5 -15 -53.5
c0 -25.333 6.33301 -44.333 19 -57s28.667 -19 48 -19c13.333 0 26 2.83301 38 8.5s22.667 13.5 32 23.5s16.833 21.833 22.5 35.5s8.5 28.834 8.5 45.501v78zM489.995 396.998c-34 0 -60.167 -12.833 -78.5 -38.5s-27.5 -59.5 -27.5 -101.5l188 9c10 0 15 4.33301 15 13
c0 12.667 -2 26 -6 40s-10 26.667 -18 38s-18 20.833 -30 28.5s-26.333 11.5 -43 11.5z" />
    <glyph glyph-name="ccedilla" unicode="&#xe7;" horiz-adv-x="435" 
d="M235 396c-31.333 0 -56.834 -13.6641 -76.501 -40.9971s-29.5 -64.333 -29.5 -111c0 -64.667 14.5 -115 43.5 -151s67.5 -54 115.5 -54c21.333 0 39.166 3.33301 53.499 10s26.833 13.334 37.5 20.001l7 4.5c2.66699 1.66699 5.33398 2.5 8.00098 2.5
c3.33301 0 7 -2.33301 11 -7s6.66699 -8.33398 8 -11.001c-12 -13.333 -28.833 -26.833 -50.5 -40.5s-50.834 -22.834 -87.501 -27.501c-3.33301 -6 -6.5 -12.167 -9.5 -18.5s-4.5 -11.833 -4.5 -16.5c0 -9.33301 7.66699 -21 23 -35c8 -8 14.667 -16.833 20 -26.5
s8 -19.834 8 -30.501c0 -21.333 -9.33301 -40.833 -28 -58.5s-46 -31.834 -82 -42.501c-4 6.66699 -6 12.667 -6 18c0 6 2.33301 10 7 12c16.667 8.66699 27.834 17.834 33.501 27.501s8.5 19.167 8.5 28.5c0 12.667 -7.33301 25.667 -22 39
c-14.667 14.667 -22 26.334 -22 35.001c0 4.66699 0.333008 8.83398 1 12.501s2.16699 7.83398 4.5 12.501s6 10.167 11 16.5l19.5 24.5c-27.333 0 -53.166 4.5 -77.499 13.5s-45.5 22.5 -63.5 40.5s-32.333 40.5 -43 67.5s-16 58.5 -16 94.5c0 34 6.5 65.167 19.5 93.5
s29.667 52.5 50 72.5s43 35.667 68 47s49.5 17 73.5 17c24.667 0 47 -2.66699 67 -8s37 -12.333 51 -21s24.833 -18.834 32.5 -30.501s11.5 -23.834 11.5 -36.501c0 -4 -3.33301 -7.33301 -10 -10s-14.167 -4.83398 -22.5 -6.50098s-16.333 -2.83398 -24 -3.50098
s-12.167 -1 -13.5 -1c-8.66699 0 -15.5 4.16699 -20.5 12.5l-16.5 27c-6 9.66699 -14.167 18.667 -24.5 27s-24.833 12.5 -43.5 12.5z" />
    <glyph glyph-name="egrave" unicode="&#xe8;" horiz-adv-x="465" 
d="M397 93c4.66699 4.66699 9.66797 7.00098 15.001 7.00098c6.66699 0 13 -5.66699 19 -17c-8.66699 -12 -18.667 -23.667 -30 -35s-24.833 -21.5 -40.5 -30.5s-33.5 -16.167 -53.5 -21.5s-43 -8 -69 -8c-26.667 0 -52 4.33301 -76 13s-45.167 22 -63.5 40
s-33 40.333 -44 67s-16.5 58 -16.5 94c0 34 6.5 65.333 19.5 94s29.833 53.167 50.5 73.5s43.5 36.166 68.5 47.499s49.167 17 72.5 17c62 0 107.167 -18 135.5 -54s42.5 -83 42.5 -141c0 -4 -2 -6 -6 -6l-290 -13c0 -26 3.66699 -50 11 -72s17.666 -41 30.999 -57
s29.5 -28.5 48.5 -37.5s40.5 -13.5 64.5 -13.5c21.333 0 41.833 5 61.5 15s36.167 22.667 49.5 38zM235.001 398.001c-33.333 0 -59.333 -13.001 -78 -39.001s-28 -60 -28 -102l189 9c10 0 15 4.33301 15 13c0 12.667 -2 26 -6 40s-10 26.833 -18 38.5
s-18.167 21.334 -30.5 29.001s-26.833 11.5 -43.5 11.5zM311.001 524c2.66699 -5.33301 4 -9.33398 4 -12.001c0 -7.33301 -5.33301 -13.666 -16 -18.999l-36 32c-10.667 9.33301 -21.167 18 -31.5 26s-21 15.833 -32 23.5l-35.5 24.5c-9.33301 5.33301 -14 13.333 -14 24
c0 11.333 5.83301 22.333 17.5 33s27.5 16 47.5 16z" />
    <glyph glyph-name="eacute" unicode="&#xe9;" horiz-adv-x="465" 
d="M397 93c4.66699 4.66699 9.66797 7.00098 15.001 7.00098c6.66699 0 13 -5.66699 19 -17c-8.66699 -12 -18.667 -23.667 -30 -35s-24.833 -21.5 -40.5 -30.5s-33.5 -16.167 -53.5 -21.5s-43 -8 -69 -8c-26.667 0 -52 4.33301 -76 13s-45.167 22 -63.5 40
s-33 40.333 -44 67s-16.5 58 -16.5 94c0 34 6.5 65.333 19.5 94s29.833 53.167 50.5 73.5s43.5 36.166 68.5 47.499s49.167 17 72.5 17c62 0 107.167 -18 135.5 -54s42.5 -83 42.5 -141c0 -4 -2 -6 -6 -6l-290 -13c0 -26 3.66699 -50 11 -72s17.666 -41 30.999 -57
s29.5 -28.5 48.5 -37.5s40.5 -13.5 64.5 -13.5c21.333 0 41.833 5 61.5 15s36.167 22.667 49.5 38zM235.001 398.001c-33.333 0 -59.333 -13.001 -78 -39.001s-28 -60 -28 -102l189 9c10 0 15 4.33301 15 13c0 12.667 -2 26 -6 40s-10 26.833 -18 38.5
s-18.167 21.334 -30.5 29.001s-26.833 11.5 -43.5 11.5zM272.001 672c19.333 0 35 -5.33105 47 -15.998s18 -21.667 18 -33c0 -10.667 -4.66699 -18.667 -14 -24c-13.333 -8.66699 -25.333 -16.834 -36 -24.501s-21.167 -15.667 -31.5 -24l-32 -26.5l-35.5 -31
c-11.333 5.33301 -17 11.666 -17 18.999c0 3.33301 1.66699 7.33301 5 12z" />
    <glyph glyph-name="ecircumflex" unicode="&#xea;" horiz-adv-x="465" 
d="M397 93c4.66699 4.66699 9.66797 7.00098 15.001 7.00098c6.66699 0 13 -5.66699 19 -17c-8.66699 -12 -18.667 -23.667 -30 -35s-24.833 -21.5 -40.5 -30.5s-33.5 -16.167 -53.5 -21.5s-43 -8 -69 -8c-26.667 0 -52 4.33301 -76 13s-45.167 22 -63.5 40
s-33 40.333 -44 67s-16.5 58 -16.5 94c0 34 6.5 65.333 19.5 94s29.833 53.167 50.5 73.5s43.5 36.166 68.5 47.499s49.167 17 72.5 17c62 0 107.167 -18 135.5 -54s42.5 -83 42.5 -141c0 -4 -2 -6 -6 -6l-290 -13c0 -26 3.66699 -50 11 -72s17.666 -41 30.999 -57
s29.5 -28.5 48.5 -37.5s40.5 -13.5 64.5 -13.5c21.333 0 41.833 5 61.5 15s36.167 22.667 49.5 38zM235.001 398.001c-33.333 0 -59.333 -13.001 -78 -39.001s-28 -60 -28 -102l189 9c10 0 15 4.33301 15 13c0 12.667 -2 26 -6 40s-10 26.833 -18 38.5
s-18.167 21.334 -30.5 29.001s-26.833 11.5 -43.5 11.5zM367.001 522c2.66699 -5.33301 4.00098 -9.33203 4.00098 -11.999s-1 -5.5 -3 -8.5s-6.33301 -6.16699 -13 -9.5l-58 51.5c-17.333 15 -35.333 29.167 -54 42.5c-18 -13.333 -34.667 -27.5 -50 -42.5l-54 -51.5
c-11.333 5.33301 -17 11.666 -17 18.999c0 2 1.33301 5.66699 4 11l101 146c16.667 0 28.667 -1.5 36 -4.5s14.666 -9.5 21.999 -19.5z" />
    </font>
</defs>
</svg>
